<svg xmlns="http://www.w3.org/2000/svg" width="131.497" height="103.184" viewBox="0 0 131.497 103.184">
  <defs>
    <style>
      .cls-1 {
        fill: #eaafa0;
      }

      .cls-2 {
        fill: #f0a768;
      }

      .cls-3 {
        fill: #f4f0d3;
      }

      .cls-10, .cls-11, .cls-13, .cls-14, .cls-18, .cls-4, .cls-5, .cls-6, .cls-8, .cls-9 {
        fill: none;
      }

      .cls-4 {
        stroke: #a55f38;
      }

      .cls-10, .cls-11, .cls-14, .cls-18, .cls-4, .cls-5, .cls-6 {
        stroke-linecap: round;
        stroke-linejoin: round;
      }

      .cls-10, .cls-11, .cls-13, .cls-14, .cls-18, .cls-4, .cls-9 {
        stroke-width: 1.321px;
      }

      .cls-5 {
        stroke: #823521;
      }

      .cls-5, .cls-6, .cls-8 {
        stroke-width: 1.418px;
      }

      .cls-18, .cls-6 {
        stroke: #6d2920;
      }

      .cls-7 {
        fill: #c93f2d;
      }

      .cls-8, .cls-9 {
        stroke: #c93f2d;
      }

      .cls-13, .cls-8, .cls-9 {
        stroke-miterlimit: 10;
      }

      .cls-10 {
        stroke: #a32a21;
      }

      .cls-11 {
        stroke: #330d0b;
      }

      .cls-12 {
        fill: #0e7289;
      }

      .cls-13, .cls-14 {
        stroke: #0a505b;
      }

      .cls-15 {
        fill: #220d09;
      }

      .cls-16 {
        fill: #ea7663;
      }

      .cls-17 {
        fill: #bf5526;
      }

      .cls-19 {
        fill: #cd6a35;
      }

      .cls-20 {
        fill: #7f2c21;
      }

      .cls-21 {
        fill: #72261c;
      }
    </style>
  </defs>
  <g id="Group_3176" data-name="Group 3176" transform="translate(0 0.626)">
    <ellipse id="Ellipse_549" data-name="Ellipse 549" class="cls-1" cx="59.97" cy="2.762" rx="59.97" ry="2.762" transform="translate(11.557 97.034)"/>
    <g id="Group_2136" data-name="Group 2136" transform="translate(0 0)">
      <g id="Group_2121" data-name="Group 2121" transform="translate(73.207 8.789)">
        <g id="Group_2119" data-name="Group 2119">
          <path id="Path_10790" data-name="Path 10790" class="cls-2" d="M1141.376,173.857a13.225,13.225,0,0,0,.76,5.248,4.809,4.809,0,0,0,.553,1.142,2.976,2.976,0,0,0,2.21,1.243,21.132,21.132,0,0,0,6.328-.051c2.039-.5,13.245-4.465,14.029-4.824l7.365-14.993c-2.039-.654-5.359-.23-8.515,1.743a110.587,110.587,0,0,1-13.217,5.425c-.554-4.929-.989-23.087-1.282-23.87s-2.341-1.329-3.156-1.512a2.775,2.775,0,0,0-2.5,1.182c-1.074,1.807-2.477,1.889-2.455,3.99Z" transform="translate(-1141.028 -136.767)"/>
          <path id="Path_10791" data-name="Path 10791" class="cls-2" d="M1140.733,138.208c-.044-2.939-.242-5.3-.465-8.233a1.214,1.214,0,0,1,.979-1.377,1.442,1.442,0,0,1,1.453.646,3.438,3.438,0,0,1,.321,1.556c.091,2.141.352,4.348.247,6.489" transform="translate(-1140.263 -126.394)"/>
          <path id="Path_10792" data-name="Path 10792" class="cls-2" d="M1151.339,128.54q-.016-2.562-.032-5.125a3.751,3.751,0,0,1,.141-1.286,1.274,1.274,0,0,1,.893-.864,1.251,1.251,0,0,1,1.231.64,3.067,3.067,0,0,1,.354,1.418c.138,2.176-.306,4.373,0,6.532" transform="translate(-1148.007 -121.248)"/>
          <path id="Path_10793" data-name="Path 10793" class="cls-2" d="M1161.759,133.34q0-2.057,0-4.115a15.847,15.847,0,0,1,.2-2.618c.223-1.336,2.422-1.817,2.525,1.275.1,3.134.071,6.69.034,9.825" transform="translate(-1155.334 -124.279)"/>
          <path id="Path_10794" data-name="Path 10794" class="cls-2" d="M1168.717,157a6.789,6.789,0,0,1,1.7-1.667,1.469,1.469,0,0,1,.841-.258,1.27,1.27,0,0,1,.986,1.457,3.928,3.928,0,0,1-.865,1.743c-1.1,1.541-2.17,3.369-3.176,4.82" transform="translate(-1159.854 -144.967)"/>
        </g>
        <g id="Group_2120" data-name="Group 2120" transform="translate(17.529 24.372)">
          <path id="Path_10795" data-name="Path 10795" class="cls-3" d="M1213.55,203.013a15.353,15.353,0,0,0-8.191,1.006c-1.4.586-5.7,2.111-6.412,2.591a126.2,126.2,0,0,0,2.884,14.2c.938-.214,3.671-.936,4.279-1.038,1.507-.255,3.015-.51,4.533-.688A46.9,46.9,0,0,1,1213.55,203.013Z" transform="translate(-1198.947 -202.84)"/>
          <path id="Path_10796" data-name="Path 10796" class="cls-4" d="M1205.09,213.3a111.017,111.017,0,0,0,3.192,14.2" transform="translate(-1203.255 -210.174)"/>
        </g>
      </g>
      <g id="Group_2128" data-name="Group 2128" transform="translate(93.785)">
        <g id="Group_2125" data-name="Group 2125" transform="translate(0 6.255)">
          <path id="Path_10797" data-name="Path 10797" class="cls-2" d="M1250.413,196.049c-1.184-1.381-8.154-4.866-8.154-4.866l.46-5.655-9.977,2.169c0,1.644-.216,2.43-.216,4.074-1.534,2.472-3.206,4.68-4.813,7.105a13.064,13.064,0,0,0,3.281,1.909l9.252,4.238a.937.937,0,0,0,1.442-.473C1243.9,201.228,1248.2,199.371,1250.413,196.049Z" transform="translate(-1222.17 -163.793)"/>
          <g id="Group_2124" data-name="Group 2124">
            <g id="Group_2122" data-name="Group 2122">
              <path id="Path_10798" data-name="Path 10798" class="cls-2" d="M1241.339,122.862c0,6.767-1.941,11.994-7.916,13.552-6.5,1.7-15.8,4.648-14.935-11.395.515-9.542,5.449-12.253,12.169-12.253S1241.339,116.095,1241.339,122.862Z" transform="translate(-1215.66 -112.766)"/>
              <path id="Path_10799" data-name="Path 10799" class="cls-2" d="M1212.275,153.452c-.214.415-2.063,2.227-2.906,3.24a.939.939,0,0,0,.3,1.439,16.766,16.766,0,0,0,3.489.973" transform="translate(-1209.153 -141.299)"/>
            </g>
            <g id="Group_2123" data-name="Group 2123" transform="translate(3.626 13.255)">
              <path id="Path_10800" data-name="Path 10800" class="cls-5" d="M1262.066,161.452a1.7,1.7,0,0,1,3.147.767" transform="translate(-1249.886 -159.59)"/>
              <path id="Path_10801" data-name="Path 10801" class="cls-6" d="M1223.784,157.139c-.1.577-.019,1.074.46,1.2s.781-.477.887-1.007" transform="translate(-1223.013 -157.139)"/>
              <path id="Path_10802" data-name="Path 10802" class="cls-6" d="M1221.291,178c.873.358,1.424-.036,1.9-.849" transform="translate(-1221.291 -171.17)"/>
              <path id="Path_10803" data-name="Path 10803" class="cls-6" d="M1243.377,195.291a14.469,14.469,0,0,0,3.034-.432" transform="translate(-1236.78 -183.592)"/>
            </g>
          </g>
        </g>
        <g id="Group_2127" data-name="Group 2127" transform="translate(0.016)">
          <path id="Path_10804" data-name="Path 10804" class="cls-7" d="M1220.147,108.558a8.059,8.059,0,0,0-2.084.837,4.637,4.637,0,0,0-2.343,4.976,6.245,6.245,0,0,0,3.488,4.367c.7.3,5.109.86,5.242-.436-.261,2.558,1.921,4.756,4.316,5.693a6.114,6.114,0,0,1,1.034-.871,3.2,3.2,0,0,1,2.2-.392,2.41,2.41,0,0,1,1.67,2.021,3.615,3.615,0,0,1-.777,2.6,4.832,4.832,0,0,1-.814.843c-.452.366,2.426,3.544,3.09,3.471,1.483-.162,2.922-2.67,3.545-3.8a16.037,16.037,0,0,0,2.077-6.469c.17-2.276-.737-6.319-2.209-8.063-4.288-5.082-9.878-3.7-10.537-3.918C1225.486,108.569,1222.746,107.914,1220.147,108.558Z" transform="translate(-1213.713 -103.378)"/>
          <path id="Path_10805" data-name="Path 10805" class="cls-7" d="M1276.846,102c.12-1.842.22-4.664,1.052-6.313a7.533,7.533,0,0,1,4.336-3.667,6.185,6.185,0,0,1,7.052,3.682,8.023,8.023,0,0,1-1.591,8.112c-1.461,1.668-3.919,1.5-6.115,1.8" transform="translate(-1256.641 -91.826)"/>
          <path id="Path_10806" data-name="Path 10806" class="cls-8" d="M1223.542,118.182c-.527.6-1.631,1.809-2.422,1.9a10.7,10.7,0,0,1-3.913-.043,5.463,5.463,0,0,1-3.759-3.628,5.528,5.528,0,0,1,1.084-5.116,6.224,6.224,0,0,1,5.469-1.963,8.114,8.114,0,0,1,5.108,2.98" transform="translate(-1212.024 -104.062)"/>
          <path id="Path_10807" data-name="Path 10807" class="cls-8" d="M1244.459,140.822a4.538,4.538,0,0,0,1.477,5.039,2.5,2.5,0,0,0,3.138.153" transform="translate(-1233.751 -126.186)"/>
          <path id="Path_10808" data-name="Path 10808" class="cls-9" d="M1278.885,103.232a12.034,12.034,0,0,1-.339-7.749,4.877,4.877,0,0,1,6.672-3.112A6.059,6.059,0,0,1,1287,93.4a6.225,6.225,0,0,1,2.177,5.081" transform="translate(-1257.496 -91.945)"/>
          <path id="Path_10809" data-name="Path 10809" class="cls-8" d="M1216.82,112.076c-.188-1.821-.339-3.806.663-5.339a5.291,5.291,0,0,1,1.3-1.332,7.66,7.66,0,0,1,11.3,2.517" transform="translate(-1214.449 -100.297)"/>
          <path id="Path_10810" data-name="Path 10810" class="cls-10" d="M1291.3,95.936a4.491,4.491,0,0,0-2.981.237,8.288,8.288,0,0,0-2.492,1.728c-1.631,1.565-2.935,3.713-2.705,5.962" transform="translate(-1261.021 -94.599)"/>
          <path id="Path_10811" data-name="Path 10811" class="cls-10" d="M1298.584,97.085a7.516,7.516,0,0,1-.57,6.367,13.072,13.072,0,0,1-4.644,4.6c-.043.027-.1.053-.14.022s.029-.111.048-.064" transform="translate(-1268.123 -95.514)"/>
          <path id="Path_10812" data-name="Path 10812" class="cls-10" d="M1288.179,105.547a32.8,32.8,0,0,1,6.209-9.164c.108-.113.282-.232.4-.133" transform="translate(-1264.589 -94.902)"/>
          <path id="Path_10813" data-name="Path 10813" class="cls-10" d="M1293.564,118.75a7.285,7.285,0,0,0,4.342-1.2,5.194,5.194,0,0,0,.866-.964,9.333,9.333,0,0,0,1.67-4.155" transform="translate(-1268.365 -106.276)"/>
          <path id="Path_10814" data-name="Path 10814" class="cls-8" d="M1218.448,120.239a8.707,8.707,0,0,1-6.778-1.276,5.782,5.782,0,0,1-2.219-6.254c.761-2.24,3.573-3.669,5.7-2.628" transform="translate(-1209.205 -104.385)"/>
          <path id="Path_10815" data-name="Path 10815" class="cls-10" d="M1281.6,106.872a6.294,6.294,0,0,1,1.669-6.488" transform="translate(-1259.759 -97.827)"/>
          <path id="Path_10816" data-name="Path 10816" class="cls-10" d="M1217.632,118.534a12.15,12.15,0,0,1,2.435-3.724,7.75,7.75,0,0,1,8.646-1.32" transform="translate(-1215.115 -106.48)"/>
          <path id="Path_10817" data-name="Path 10817" class="cls-10" d="M1228.039,128.246a6.375,6.375,0,0,1,7.492-5.736" transform="translate(-1222.413 -113.274)"/>
          <path id="Path_10818" data-name="Path 10818" class="cls-10" d="M1221.948,129.5a4.892,4.892,0,0,1,2.075-3.794" transform="translate(-1218.142 -115.586)"/>
          <path id="Path_10819" data-name="Path 10819" class="cls-10" d="M1266.631,124.11c-3.332,1.96-7.545,4.685-7.109,10.974" transform="translate(-1244.47 -114.466)"/>
          <path id="Path_10820" data-name="Path 10820" class="cls-10" d="M1283.137,133.544a15.254,15.254,0,0,1-4.122,14.729" transform="translate(-1258.162 -121.082)"/>
          <path id="Path_10821" data-name="Path 10821" class="cls-10" d="M1276.47,128.733a19.383,19.383,0,0,1-.3,6.806c-.653,2.834-1.929,5.582-4.693,7.093" transform="translate(-1252.879 -117.708)"/>
          <path id="Path_10822" data-name="Path 10822" class="cls-10" d="M1243.879,129.25c-.3-2.392,2.22-4,4.08-4.87a14.329,14.329,0,0,1,7.757-1.147" transform="translate(-1233.504 -113.787)"/>
          <path id="Path_10823" data-name="Path 10823" class="cls-10" d="M1253.512,116.91c2.749-1.972,7.694.2,8.482.592" transform="translate(-1240.277 -108.845)"/>
          <path id="Path_10824" data-name="Path 10824" class="cls-10" d="M1291.576,116.527a29.249,29.249,0,0,0,3.833-5.934" transform="translate(-1266.971 -104.987)"/>
          <path id="Path_10825" data-name="Path 10825" class="cls-10" d="M1278.824,126.127a28.043,28.043,0,0,1-3.2,9.6" transform="translate(-1255.78 -115.881)"/>
          <g id="Group_2126" data-name="Group 2126" transform="translate(17.457 1.729)">
            <path id="Path_10826" data-name="Path 10826" class="cls-11" d="M1277.286,113.764a13.95,13.95,0,0,0,6.444,7.1" transform="translate(-1274.407 -108.939)"/>
            <path id="Path_10827" data-name="Path 10827" class="cls-11" d="M1269.7,99.053a1.447,1.447,0,0,1,.113-1.1,1.1,1.1,0,0,1,1.632.049,2.829,2.829,0,0,1,.57,1.747,5.993,5.993,0,0,1-.141,2.736C1270.632,102.288,1269.913,100.143,1269.7,99.053Z" transform="translate(-1269.052 -97.613)"/>
            <path id="Path_10828" data-name="Path 10828" class="cls-11" d="M1278.682,102.707a2.831,2.831,0,0,1,.958-.609,1.273,1.273,0,0,1,1.1.1,1.328,1.328,0,0,1,.25,1.739,3.3,3.3,0,0,1-1.505,1.173,5.654,5.654,0,0,1-.875.346,6.768,6.768,0,0,1-1.874.354C1276.5,104.841,1278.022,103.3,1278.682,102.707Z" transform="translate(-1274.004 -100.704)"/>
            <path id="Path_10829" data-name="Path 10829" class="cls-11" d="M1276.684,114.153a3.846,3.846,0,0,0,.268,3.026" transform="translate(-1273.85 -109.212)"/>
            <path id="Path_10830" data-name="Path 10830" class="cls-11" d="M1267.648,109.555a3.12,3.12,0,0,0,2.883,1.573" transform="translate(-1267.648 -105.988)"/>
          </g>
          <path id="Path_10831" data-name="Path 10831" class="cls-9" d="M1300.471,109.538a4.47,4.47,0,0,0,3.492-.617,8.376,8.376,0,0,0,3.152-4.333,5.7,5.7,0,0,0-2.973-6.5" transform="translate(-1273.209 -96.219)"/>
          <path id="Path_10832" data-name="Path 10832" class="cls-9" d="M1281.267,154.859a9.165,9.165,0,0,0,5.533-5.481,10.718,10.718,0,0,0-.283-7.855" transform="translate(-1259.741 -126.678)"/>
        </g>
      </g>
      <g id="Group_2129" data-name="Group 2129" transform="translate(98.455 33.641)">
        <path id="Path_10833" data-name="Path 10833" class="cls-3" d="M1230.317,204.745c1.722,1.33,4.12,1.2,6.288,1.006,1.305-.117,2.751-.3,3.6-1.3,1.054.464,5.1,1.914,6.709,2.831-2.782,2.4-5.031,6.7-7.022,9.788a.814.814,0,0,1-.446.4.849.849,0,0,1-.541-.122,62.816,62.816,0,0,0-14.118-4.768C1226.033,209.822,1228.555,207.2,1230.317,204.745Z" transform="translate(-1224.785 -204.448)"/>
        <path id="Path_10834" data-name="Path 10834" class="cls-4" d="M1241.436,210.409a12.015,12.015,0,0,0,10.406-.561" transform="translate(-1236.462 -208.235)"/>
      </g>
      <g id="Group_2130" data-name="Group 2130" transform="translate(76.994 32.925)">
        <path id="Path_10835" data-name="Path 10835" class="cls-12" d="M1179.431,286.022c-.166-.122-11.2-7.4-13.28-8.646-1.945-1.166-5.843-1.678-7.939-.812-1.332.55-4.348,2.007-4.689,3.408-1.6,6.591.336,12.578,3.025,18.806,1.874,4.34,2.681,5.452,4.6,9.995,2.63-2.7,5.7-4.295,8.351-6.247,4.318-3.182,8.1-6.4,13.356-9.146Zm-9.447,15.543q-1.519-3.733-2.874-7.53c2.765,1.439,5.273,2.171,8.038,3.611Z" transform="translate(-1152.941 -254.002)"/>
        <path id="Path_10836" data-name="Path 10836" class="cls-12" d="M1213.942,268.843c3.4-2.552,4.695-5.891,5.058-10.124s-.454-8.467-1.244-12.641a113.633,113.633,0,0,0-3.164-12.648l-11.171-2.858a84.662,84.662,0,0,1-10.2-3.317l-.813.161a37.14,37.14,0,0,0-1.529,3.8,8.872,8.872,0,0,0-.444,2.318,25.093,25.093,0,0,0,.543,4.685c.418,2.081.978,2.523,1.4,4.6.112.558,1.579,6.821,1.579,6.821a61.986,61.986,0,0,0,6.446,9.248,13.553,13.553,0,0,0-3.347,1.656c-1.492.918-10.385,5-12.754,6.774-1.873,1.405-4.136,2.533-5.466,4.535-1.062,1.6-.221,4.354.682,6.029a8.488,8.488,0,0,0,4.025,3.866c2.276.871,4.823.231,7.163-.45q6.658-1.937,13.2-4.25a25.322,25.322,0,0,1,.675-5.112C1206.542,271.136,1212.242,270.12,1213.942,268.843Z" transform="translate(-1170.749 -219.726)"/>
        <path id="Path_10837" data-name="Path 10837" class="cls-12" d="M1222.473,211.909c.653.274,2.24-1.285,2.893-1.012a91.984,91.984,0,0,1,3.568-8.6l-2.675-.243C1225.176,204.632,1223.212,209.542,1222.473,211.909Z" transform="translate(-1201.703 -202.049)"/>
        <path id="Path_10838" data-name="Path 10838" class="cls-12" d="M1262.215,218.988a19.4,19.4,0,0,1,3.028-6.087c1.318-1.787,4.814-3.579,4.814-3.579l-3.107-1.258a1.618,1.618,0,0,0-.878.509,23.47,23.47,0,0,0-7.111,11.6" transform="translate(-1227.291 -206.267)"/>
        <path id="Path_10839" data-name="Path 10839" class="cls-13" d="M1177.536,344.62c2.232-2.789,15.988-9.594,21.248-13.8" transform="translate(-1170.189 -292.353)"/>
        <path id="Path_10840" data-name="Path 10840" class="cls-14" d="M1234.125,248.176a25.076,25.076,0,0,1,2.565-8.384,53.012,53.012,0,0,1-9.357-3.047,18.5,18.5,0,0,0-1.747,7.716" transform="translate(-1203.886 -226.381)"/>
        <path id="Path_10841" data-name="Path 10841" class="cls-14" d="M1262.321,238.326a10.938,10.938,0,0,1,2.646.621" transform="translate(-1229.648 -227.49)"/>
        <line id="Line_215" data-name="Line 215" class="cls-14" x2="2.167" y2="0.803" transform="translate(21.759 7.282)"/>
        <path id="Path_10842" data-name="Path 10842" class="cls-14" d="M1191.378,332.941a30.986,30.986,0,0,0,3.764,1.536" transform="translate(-1179.897 -293.842)"/>
        <path id="Path_10843" data-name="Path 10843" class="cls-14" d="M1286.477,311.528a17.019,17.019,0,0,1,4.947-.513" transform="translate(-1246.588 -278.454)"/>
        <path id="Path_10844" data-name="Path 10844" class="cls-14" d="M1285.355,312.709a30.282,30.282,0,0,0,4.071,1.746" transform="translate(-1245.802 -279.654)"/>
        <path id="Path_10845" data-name="Path 10845" class="cls-14" d="M1239.315,379.922l7.883-2.294" transform="translate(-1213.514 -325.181)"/>
        <path id="Path_10846" data-name="Path 10846" class="cls-14" d="M1190.477,394.691a6.843,6.843,0,0,0,1.334,1.966" transform="translate(-1179.265 -337.147)"/>
        <path id="Path_10847" data-name="Path 10847" class="cls-14" d="M1193.186,387.617l2.09,3.953" transform="translate(-1181.164 -332.186)"/>
      </g>
      <g id="Group_2131" data-name="Group 2131" transform="translate(81.025 81.73)">
        <path id="Path_10848" data-name="Path 10848" class="cls-15" d="M1172.654,399.94c-1.121.5-2.609,1.311-4.065,2.118a4.177,4.177,0,0,0-1.741,5.461h0a154.993,154.993,0,0,0,17.865-.786,1.55,1.55,0,0,0,1.257-2.1,33.568,33.568,0,0,1-1.325-3.253" transform="translate(-1166.436 -389.633)"/>
        <path id="Path_10849" data-name="Path 10849" class="cls-15" d="M1271.948,365.435a7.524,7.524,0,0,0,2.372.489.679.679,0,0,1,.636.689l-.077,4.68a.68.68,0,0,1-.679.669h0a.861.861,0,0,0-.827.638,50.5,50.5,0,0,1-2.512,6.17,4.713,4.713,0,0,1-4.223,2.727l-3.652.042s-.28-.432-.651-1a2.781,2.781,0,0,1,.917-3.917l.012-.007a1.251,1.251,0,0,0,.035-2.114c-.528-.349-.98-.646-.928-.6.221-1.666.695-5.262.695-5.262Z" transform="translate(-1233.372 -365.435)"/>
      </g>
      <circle id="Ellipse_550" data-name="Ellipse 550" class="cls-16" cx="2.118" cy="2.118" r="2.118" transform="translate(101.1 20.067)"/>
      <g id="Group_2133" data-name="Group 2133" transform="translate(92.366 36.216)">
        <path id="Path_10850" data-name="Path 10850" class="cls-2" d="M1209.34,231.124c2.544,1.015,8.145,5.512,10.794,6.208a1.073,1.073,0,0,0,.828-.01.76.76,0,0,0,.248-.273,5.186,5.186,0,0,0,.626-1.473l2.024-8.918a22.447,22.447,0,0,1,2.071-6.225c1.085-1.908,3.73-4.847,5.864-4.335,1.644.395,1.357.568,2.137,1.151,2.927,2.186,2.672,5.718,2.108,8.98a50.284,50.284,0,0,1-7.937,19.615,5.836,5.836,0,0,1-5.638,2.507,18.617,18.617,0,0,1-2.5-.518c-3.8-1.087-15.447-10.85-15.358-11.186a4.316,4.316,0,0,1,.855-4.142A4.894,4.894,0,0,1,1209.34,231.124Z" transform="translate(-1204.402 -215.152)"/>
        <g id="Group_2132" data-name="Group 2132" transform="translate(17.563)">
          <path id="Path_10851" data-name="Path 10851" class="cls-3" d="M1266.56,219.195c1.807-4.1,4.648-7.786,8.606-5.345a9.2,9.2,0,0,1,3.808,5.061,26.981,26.981,0,0,1,.915,6.342c.156,2.441-.539,5.027-.383,7.468.046.726-14.9-1.933-16.308-2.762,0,0,.74-2.149,1.16-3.977A39.893,39.893,0,0,1,1266.56,219.195Z" transform="translate(-1263.198 -213.068)"/>
          <path id="Path_10852" data-name="Path 10852" class="cls-4" d="M1266.886,259.92a7.406,7.406,0,0,0,3.077.955c3.756.583,8.709,2.074,12,1.942" transform="translate(-1265.784 -245.925)"/>
          <path id="Path_10853" data-name="Path 10853" class="cls-4" d="M1312.442,260.207q.358-3.867.344-7.757" transform="translate(-1297.732 -240.686)"/>
        </g>
      </g>
      <g id="Group_2134" data-name="Group 2134" transform="translate(58.103 18.045)">
        <path id="Path_10854" data-name="Path 10854" class="cls-17" d="M1093.7,187.817a18.745,18.745,0,0,0,6.384-.3,5.549,5.549,0,0,0,4.092-3.789c2.152-7,5.277-16.279,6.1-22.824l1.279-6.569c.2-1.014-2.254-2.231-3.277-2.092a5.285,5.285,0,0,0-.929.211,24.908,24.908,0,0,0-3,6.436c-1.6,5.545-4.857,11.737-7.512,16.86a15.874,15.874,0,0,1-7.14.862" transform="translate(-1089.697 -152.237)"/>
        <path id="Path_10855" data-name="Path 10855" class="cls-18" d="M1155.295,158.325a2.4,2.4,0,0,1,1.572-2.021" transform="translate(-1135.7 -155.089)"/>
        <path id="Path_10856" data-name="Path 10856" class="cls-18" d="M1148.71,155.906a3.475,3.475,0,0,1,1.312-2.114" transform="translate(-1131.082 -153.327)"/>
        <path id="Path_10857" data-name="Path 10857" class="cls-18" d="M1129.23,230.83c.333.106,1.033-2.353,1.033-2.353" transform="translate(-1117.421 -205.703)"/>
        <line id="Line_216" data-name="Line 216" class="cls-18" y1="2.929" x2="1.288" transform="translate(13.543 21.608)"/>
      </g>
      <g id="Group_2135" data-name="Group 2135" transform="translate(0 26.856)">
        <path id="Path_10858" data-name="Path 10858" class="cls-19" d="M911.23,395.741a25.368,25.368,0,0,1-14.488-5.136.958.958,0,0,0-1.469,1.132c1.095,2.417,3.32,4.1,6.253,5.409,2.186.973,10.476,3.866,16.131,2.945" transform="translate(-895.185 -328.07)"/>
        <path id="Path_10859" data-name="Path 10859" class="cls-19" d="M984.585,234.681c-1.133,2.436-4.143,4.8-6.675,6.353a50.979,50.979,0,0,1-8.462,3.932l-.1.013c.061.469.133.931.227,1.381a4.128,4.128,0,0,0,1.071,2.591c.992,1.112,3.112,1.233,4.6,1.232,1.792,0,3.844-.406,5.167.8a3.923,3.923,0,0,1,.917,3.606c-4.6.125-10.031.588-14.63.714-7.556.206-15.486.332-22.2-3.136l-1.119.346c-1.21-2.61-.7-5.885-.4-8.649.9-8.275,7.083-13.928,12.253-19.853a57.707,57.707,0,0,0,12.7-24.909q.116-.509.223-1.021c.481-2.317,1-4.626,1.625-6.909a14.821,14.821,0,0,1,1.7-4.4,12.336,12.336,0,0,1,3.7-3.3c1.885-1.223,2.342-1.821,4.581-1.734a8.633,8.633,0,0,1,2.235.4l4.72,1.473c1.614.5,4.419-.152,6.58-.48a1.439,1.439,0,0,1,1.653,1.352c.029.547.042,1.091.018,1.636a2.729,2.729,0,0,1-.976,1.954,33.81,33.81,0,0,1-3.779,3.028c-1.121.7-2.9,1.924-3.424,3.139-.428,1,3.385,8.942,4.495,12.627A33.343,33.343,0,0,1,992.938,220c-.193,3.009-.425,5.251-.436,10.2-.011,5.093-.328,12.6,1.355,20.332.926.29.719.114,1.644.4a1.782,1.782,0,0,1,1.517,2.164q.011.7.022,1.4h-5.884a3.245,3.245,0,0,1-3.212-2.785c-1.014-7.045-3.359-17.029-3.359-17.029" transform="translate(-928.444 -181.731)"/>
        <path id="Path_10860" data-name="Path 10860" class="cls-18" d="M1004.561,355.013a14.309,14.309,0,0,1,6.073,4.813c1.416,2.059,1.694,4.343,2.089,6.689.081.48.167.963.268,1.447" transform="translate(-971.889 -303.252)"/>
        <path id="Path_10861" data-name="Path 10861" class="cls-20" d="M1051.494,190.187a8.055,8.055,0,0,0-2.677,1.191,2.315,2.315,0,0,0-.989,2.061,21.573,21.573,0,0,0,1.968,7.206c.163.383.5.417.75.087a17.365,17.365,0,0,0,3.185-6.8,1.368,1.368,0,0,0-.024-.674l-.606-2.114A1.357,1.357,0,0,0,1051.494,190.187Z" transform="translate(-1002.228 -187.636)"/>
        <path id="Path_10862" data-name="Path 10862" class="cls-21" d="M1112.812,185.991a8.975,8.975,0,0,1,1.33-.207.36.36,0,0,1,.238.037.364.364,0,0,1,.095.339,7.033,7.033,0,0,1-.173,1.085.285.285,0,0,1-.1.187c-.12.074-.262-.051-.348-.163l-.87-1.143" transform="translate(-1047.805 -184.57)"/>
        <path id="Path_10863" data-name="Path 10863" class="cls-18" d="M1081.166,197.059a2.308,2.308,0,0,0,.927.132.585.585,0,0,0,.5-.8,1.1,1.1,0,0,0-.6-.533" transform="translate(-1025.611 -191.635)"/>
        <path id="Path_10864" data-name="Path 10864" class="cls-18" d="M1094.07,198.826a18.538,18.538,0,0,0,7.035-3.414" transform="translate(-1034.661 -191.325)"/>
        <path id="Path_10865" data-name="Path 10865" class="cls-18" d="M1080.044,338.034q.863,3.93,1.424,7.918" transform="translate(-1024.825 -291.345)"/>
        <path id="Path_10866" data-name="Path 10866" class="cls-18" d="M1067.425,417.158a3.2,3.2,0,0,1,.446,2.359" transform="translate(-1015.975 -346.834)"/>
        <path id="Path_10867" data-name="Path 10867" class="cls-18" d="M1063.832,421.278q.118.595.237,1.189" transform="translate(-1013.455 -349.723)"/>
        <path id="Path_10868" data-name="Path 10868" class="cls-18" d="M1120.8,417.538a4.544,4.544,0,0,1,.386,2.108" transform="translate(-1053.407 -347.1)"/>
        <path id="Path_10869" data-name="Path 10869" class="cls-18" d="M1116.786,420.416a12.631,12.631,0,0,0,.246,1.385" transform="translate(-1050.591 -349.118)"/>
        <path id="Path_10870" data-name="Path 10870" class="cls-18" d="M1017.088,277.356l1.559-3.362" transform="translate(-980.674 -246.434)"/>
        <path id="Path_10871" data-name="Path 10871" class="cls-18" d="M1024.277,270.9l1.809-4.128" transform="translate(-985.716 -241.371)"/>
        <path id="Path_10872" data-name="Path 10872" class="cls-18" d="M946.195,397.393l.82-2.555" transform="translate(-930.958 -331.181)"/>
        <path id="Path_10873" data-name="Path 10873" class="cls-18" d="M952.358,393.7l.825-2.751" transform="translate(-935.28 -328.453)"/>
        <path id="Path_10874" data-name="Path 10874" class="cls-18" d="M1102.831,282.615q.129,1.971.258,3.941" transform="translate(-1040.805 -252.48)"/>
        <path id="Path_10875" data-name="Path 10875" class="cls-18" d="M1108.566,293.229a8.453,8.453,0,0,0-.148,3.151" transform="translate(-1044.664 -259.923)"/>
      </g>
    </g>
  </g>
</svg>
