<svg xmlns="http://www.w3.org/2000/svg" width="53.5" height="58.914" viewBox="0 0 53.5 58.914">
  <defs>
    <style>
      .cls-1 {
        fill: #c63c5d;
      }

      .cls-2 {
        fill: #f16479;
      }

      .cls-3 {
        fill: #b23257;
      }

      .cls-4 {
        fill: #fff;
      }

      .cls-5 {
        fill: #22874d;
      }

      .cls-6 {
        fill: #3caf6a;
      }

      .cls-7 {
        fill: #29995c;
      }
    </style>
  </defs>
  <g id="Layer_2" data-name="Layer 2" transform="translate(14)">
    <g id="Layer_1" data-name="Layer 1" transform="translate(-14 0)">
      <path id="Path_5228" data-name="Path 5228" class="cls-1" d="M22.534,32.295,3.179,21.121c-4.712-2.744-4.111-7.508,1.315-10.646l.849-.487c5.426-3.107,13.721-3.479,18.433-.756L43.131,20.448c4.712,2.713,4.142,7.508-1.326,10.646l-.839.487C35.53,34.676,27.235,35.018,22.534,32.295Z" transform="translate(-0.001 0.252)"/>
      <path id="Path_5229" data-name="Path 5229" class="cls-1" d="M42.885,14.86c0,.331,2.133,9.32,2.133,9.32l-6.1,4.07L34.88,18.992Z" transform="translate(1.239 0.517)"/>
      <path id="Path_5230" data-name="Path 5230" class="cls-1" d="M2.47,7.4.13,15.488l3.479.839L7.524,9.254Z" transform="translate(0.004 0.252)"/>
      <path id="Path_5231" data-name="Path 5231" class="cls-2" d="M22.7,22.419,5.248,12.354C1.013,9.91,1.541,5.6,6.439,2.775l.725-.435C12.052-.487,19.529-.767,23.733,1.646L41.161,11.712c4.235,2.444,3.7,6.762-1.191,9.589l-.7.445C34.378,24.563,26.912,24.853,22.7,22.419Z" transform="translate(0.084 -0.011)"/>
      <path id="Path_5232" data-name="Path 5232" class="cls-3" d="M38.4,19.854a4.6,4.6,0,0,0,2.579-3.666c0-3.024-4.36-5.468-9.724-5.468s-9.724,2.361-9.724,5.468a4.6,4.6,0,0,0,2.558,3.666,13.99,13.99,0,0,1,7.145-1.771A13.99,13.99,0,0,1,38.4,19.854Z" transform="translate(0.764 0.37)"/>
      <path id="Path_5233" data-name="Path 5233" class="cls-1" d="M38.311,19.6a13.99,13.99,0,0,0-7.145-1.771A13.99,13.99,0,0,0,24,19.6a14.094,14.094,0,0,0,7.145,1.76,14.094,14.094,0,0,0,7.166-1.76Z" transform="translate(0.852 0.622)"/>
      <path id="Path_5234" data-name="Path 5234" class="cls-3" d="M22.949,11.035c1.595-.973,2.579-2.268,2.579-3.7,0-3.024-4.349-5.478-9.724-5.478S6.09,4.314,6.09,7.338c0,1.429.973,2.724,2.579,3.7A14.021,14.021,0,0,1,15.8,9.254a14.032,14.032,0,0,1,7.145,1.781Z" transform="translate(0.215 0.055)"/>
      <path id="Path_5235" data-name="Path 5235" class="cls-1" d="M22.86,10.781A14.032,14.032,0,0,0,15.715,9a14.021,14.021,0,0,0-7.135,1.76,13.918,13.918,0,0,0,7.135,1.771,13.928,13.928,0,0,0,7.145-1.75Z" transform="translate(0.304 0.308)"/>
      <path id="Path_5236" data-name="Path 5236" class="cls-4" d="M17.446,26.667,6.8,20.515l.487-1.905,10.646,6.151Z" transform="translate(0.241 0.65)"/>
      <path id="Path_5237" data-name="Path 5237" class="cls-5" d="M29.412,55.985l-19.3-11.174C5.408,42.1,5.967,37.3,11.435,34.165l.839-.487c5.437-3.107,13.731-3.479,18.433-.756L50.071,44.1c4.7,2.713,4.142,7.508-1.326,10.646l-.849.487C42.419,58.356,34.124,58.708,29.412,55.985Z" transform="translate(0.245 1.094)"/>
      <path id="Path_5238" data-name="Path 5238" class="cls-5" d="M49.765,38.55c0,.331,2.133,9.32,2.133,9.32l-6.1,4.07L41.77,42.682Z" transform="translate(1.484 1.359)"/>
      <path id="Path_5239" data-name="Path 5239" class="cls-5" d="M9.35,31.09,7.01,39.178l3.479.839L14.4,32.944Z" transform="translate(0.248 1.094)"/>
      <path id="Path_5240" data-name="Path 5240" class="cls-6" d="M29.558,46.109,12.1,36.044c-4.235-2.444-3.7-6.752,1.191-9.579l.756-.435c4.9-2.827,12.365-3.107,16.569-.694L48.1,35.4c4.246,2.444,3.707,6.762-1.191,9.589l-.756.435C41.27,48.253,33.845,48.553,29.558,46.109Z" transform="translate(0.328 0.831)"/>
      <path id="Path_5241" data-name="Path 5241" class="cls-5" d="M45.279,43.545a4.6,4.6,0,0,0,2.579-3.707c0-3.024-4.349-5.468-9.724-5.468s-9.724,2.444-9.724,5.468a4.6,4.6,0,0,0,2.579,3.707,13.99,13.99,0,0,1,7.145-1.771,13.99,13.99,0,0,1,7.145,1.771Z" transform="translate(1.009 1.211)"/>
      <path id="Path_5242" data-name="Path 5242" class="cls-7" d="M45.191,43.291a13.99,13.99,0,0,0-7.145-1.771A13.99,13.99,0,0,0,30.9,43.291a14.094,14.094,0,0,0,7.145,1.76A14.094,14.094,0,0,0,45.191,43.291Z" transform="translate(1.098 1.465)"/>
      <path id="Path_5243" data-name="Path 5243" class="cls-5" d="M29.838,34.725c1.595-.973,2.579-2.268,2.579-3.7,0-3.024-4.36-5.478-9.724-5.478S13,28,13,31.028c0,1.429.984,2.724,2.579,3.7a14.094,14.094,0,0,1,7.145-1.76A14.094,14.094,0,0,1,29.838,34.725Z" transform="translate(0.461 0.897)"/>
      <path id="Path_5244" data-name="Path 5244" class="cls-7" d="M29.751,34.471a14.094,14.094,0,0,0-7.145-1.76,14.094,14.094,0,0,0-7.145,1.76,13.99,13.99,0,0,0,7.145,1.771,13.99,13.99,0,0,0,7.145-1.771Z" transform="translate(0.549 1.151)"/>
      <path id="Path_5245" data-name="Path 5245" class="cls-4" d="M24.326,50.357,13.68,44.205l.487-1.905,10.646,6.151Z" transform="translate(0.485 1.492)"/>
    </g>
  </g>
</svg>
