<svg xmlns="http://www.w3.org/2000/svg" width="69" height="49.433" viewBox="0 0 69 49.433">
  <defs>
    <style>
      .cls-1 {
        fill: #fbeed1;
      }

      .cls-2 {
        fill: #eba25d;
      }

      .cls-3 {
        fill: #5296c6;
      }

      .cls-4 {
        fill: #315f84;
      }

      .cls-5 {
        fill: #437ab2;
      }

      .cls-6 {
        fill: #34648c;
      }

      .cls-7 {
        fill: #80d1f9;
      }

      .cls-8 {
        fill: none;
      }

      .cls-9 {
        fill: #56a7d8;
      }

      .cls-10 {
        fill: #843252;
      }

      .cls-11 {
        fill: #a34262;
      }

      .cls-12 {
        fill: #422c4f;
      }

      .cls-13 {
        fill: #f0bf6c;
      }

      .cls-14 {
        fill: #6ca8bf;
      }

      .cls-15 {
        fill: #468097;
      }

      .cls-16 {
        fill: #f0bf9c;
      }

      .cls-17 {
        fill: #de7274;
      }

      .cls-18 {
        fill: #454f6b;
      }

      .cls-19 {
        fill: #57637f;
      }

      .cls-20 {
        fill: #e4e4e0;
      }

      .cls-21 {
        fill: #fff;
      }

      .cls-22 {
        fill: #8c404c;
      }

      .cls-23 {
        fill: #a55060;
      }

      .cls-24 {
        fill: #eba588;
      }

      .cls-25 {
        fill: #be7e68;
      }

      .cls-26 {
        fill: #a4625c;
      }

      .cls-27 {
        fill: #854751;
      }

      .cls-28 {
        fill: #56438c;
      }

      .cls-29 {
        fill: #ebceba;
      }

      .cls-30 {
        fill: #6c6fc3;
      }
    </style>
  </defs>
  <g id="OBJECT" transform="translate(-95 -50.485)">
    <g id="Group_3344" data-name="Group 3344" transform="translate(95 50.485)">
      <g id="Group_3287" data-name="Group 3287" transform="translate(1.47)">
        <path id="Path_13014" data-name="Path 13014" class="cls-1" d="M115.653,129.941c-3.633-.842-6.465-4.431-7.787-7.918a11.616,11.616,0,0,1,1.371-10.658c1.526-2.145,3.856-3.895,4.362-6.478.4-2.063-.477-4.133-.8-6.211a11.812,11.812,0,0,1,14.655-13.256c5.185,1.354,9.032,6.085,14.273,7.2,3.742.8,7.583-.379,11.268-1.406s7.68-1.906,11.263-.567A9.681,9.681,0,0,1,168.234,106c-1.724,2.023-4.443,3.692-4.467,6.35-.025,2.771,2.881,4.484,4.635,6.63a9.676,9.676,0,0,1,.4,10.964Z" transform="translate(-107.149 -80.872)"/>
        <path id="Path_13015" data-name="Path 13015" class="cls-1" d="M355.386,59.7a7.667,7.667,0,0,0,3.728-2.5,3.782,3.782,0,0,0,.27-4.261,4.064,4.064,0,0,0-3.3-1.514,14.87,14.87,0,0,0-3.7.624,8.693,8.693,0,0,1-3.724.285c-1.785-.36-3.3-1.709-5.116-1.838a3.985,3.985,0,0,0-3.956,2.537c-.4,1.077-.617,2.873.1,3.874.89,1.247,2.793,2.012,4.166,2.547a17.019,17.019,0,0,0,5.382,1.14A16.063,16.063,0,0,0,355.386,59.7Z" transform="translate(-311.138 -50.485)"/>
      </g>
      <g id="Group_3297" data-name="Group 3297" transform="translate(6.69 15.125)">
        <path id="Path_13016" data-name="Path 13016" class="cls-2" d="M168.777,264.39l2.629-.834,2.518-.18,2.014.18-.357.425-2.632,1.074h-2.066l-1.715-.257Z" transform="translate(-166.539 -252.739)"/>
        <g id="Group_3288" data-name="Group 3288" transform="translate(19.038 13.909)">
          <path id="Path_13017" data-name="Path 13017" class="cls-3" d="M329.311,292.924a3.892,3.892,0,0,0-1.272-2.5,2.189,2.189,0,0,1,.186,1.808,3.555,3.555,0,0,1-1.044,1.533,3.331,3.331,0,0,1-1.545.843,2.657,2.657,0,0,1-1.022,0,3.807,3.807,0,0,1,.484,1.3,3.878,3.878,0,0,0,.607.148,3.241,3.241,0,0,0,2.548-.642A3.076,3.076,0,0,0,329.311,292.924Z" transform="translate(-322.557 -290.425)"/>
          <path id="Path_13018" data-name="Path 13018" class="cls-4" d="M309,315.776a4.231,4.231,0,0,1-1.384-1.027c.256.417.417,1.136.774,1.469a4.837,4.837,0,0,0,1.767,1.071,3.809,3.809,0,0,0-.484-1.3A3.131,3.131,0,0,1,309,315.776Z" transform="translate(-307.612 -311.806)"/>
        </g>
        <g id="Group_3289" data-name="Group 3289" transform="translate(6.861)">
          <path id="Path_13019" data-name="Path 13019" class="cls-5" d="M207.466,178.981a10,10,0,0,1,2.629-1.709,3.017,3.017,0,0,0,.8-.441.854.854,0,0,0,.312-.812.816.816,0,0,0-.828-.541,1.9,1.9,0,0,0-.98.391,6.146,6.146,0,0,0-2.416,3.318A2.971,2.971,0,0,0,207.466,178.981Z" transform="translate(-206.98 -175.478)"/>
          <path id="Path_13020" data-name="Path 13020" class="cls-6" d="M213.252,180.912a5.823,5.823,0,0,1,1.861-2.106,1.6,1.6,0,0,1,.786-.328h.015a.461.461,0,0,1,.45.268.507.507,0,0,1-.2.45,2.35,2.35,0,0,1-.61.339l-.095.042A10.321,10.321,0,0,0,213.252,180.912Z" transform="translate(-212.493 -178.115)"/>
        </g>
        <g id="Group_3290" data-name="Group 3290" transform="translate(11.846 19.73)">
          <path id="Path_13021" data-name="Path 13021" class="cls-7" d="M266.169,427.933l-.115.809a.817.817,0,0,0,.809.932h.386a.817.817,0,0,0,.816-.77l.047-.823A2.175,2.175,0,0,0,266.169,427.933Z" transform="translate(-263.884 -416.972)"/>
          <path id="Path_13022" data-name="Path 13022" class="cls-4" d="M252.355,343.266a8.577,8.577,0,0,1-.082-2.864l-4.1-1.872.258,1.711c.025.164.058.326.1.487a23.519,23.519,0,0,1,3.878,2.811Z" transform="translate(-248.176 -338.529)"/>
          <path id="Path_13023" data-name="Path 13023" class="cls-5" d="M254.988,359.506a23.516,23.516,0,0,0-3.878-2.811,5.983,5.983,0,0,0,.819,1.905l1.713,2.609-.6,4.249a2.174,2.174,0,0,1,1.943.147l.257-4.49a2.1,2.1,0,0,0-.037-.531Z" transform="translate(-250.755 -354.497)"/>
        </g>
        <g id="Group_3292" data-name="Group 3292" transform="translate(0 13.897)">
          <g id="Group_3291" data-name="Group 3291">
            <path id="Path_13024" data-name="Path 13024" class="cls-7" d="M152.726,320.88a1.817,1.817,0,0,0-.71.365l.144.978a1.469,1.469,0,0,0,1.36,1.253h0a.662.662,0,0,0,.7-.744L154,321A1.825,1.825,0,0,0,152.726,320.88Z" transform="translate(-151.806 -317.129)"/>
            <path id="Path_13025" data-name="Path 13025" class="cls-5" d="M156.775,295.343l-.743-3.837-1.966-1.18-.608,1.012.258,1.439-1.149-.944a1.4,1.4,0,0,0-1.37-.231h0a1.4,1.4,0,0,0-.9,1.514l.195,1.328a1.855,1.855,0,0,1,1.985-.245l2.514,2.176a1.09,1.09,0,0,0,.928.245h0A1.09,1.09,0,0,0,156.775,295.343Z" transform="translate(-150.283 -290.326)"/>
          </g>
          <path id="Path_13026" data-name="Path 13026" class="cls-4" d="M167.139,312.9l-.176-1.3,1.82,2.72Z" transform="translate(-164.945 -309.028)"/>
        </g>
        <g id="Group_3294" data-name="Group 3294" transform="translate(2.407 2.717)">
          <path id="Path_13027" data-name="Path 13027" class="cls-7" d="M288.648,427.034a2.358,2.358,0,0,0-.856.291l-.274.576a.777.777,0,0,0,.7,1.111h.443a.939.939,0,0,0,.88-.612l.262-.7a1.011,1.011,0,0,0-.3-.483A1.111,1.111,0,0,0,288.648,427.034Z" transform="translate(-273.252 -399.297)"/>
          <g id="Group_3293" data-name="Group 3293">
            <path id="Path_13028" data-name="Path 13028" class="cls-8" d="M283.228,357.131a4.5,4.5,0,0,1-.39-.844v0A4.3,4.3,0,0,0,283.228,357.131Z" transform="translate(-269.205 -337.125)"/>
            <path id="Path_13029" data-name="Path 13029" class="cls-8" d="M282.808,356.207v0l0-.012,0,.01Z" transform="translate(-269.175 -337.042)"/>
            <path id="Path_13030" data-name="Path 13030" class="cls-8" d="M227.354,312.324q.224.222.462.427Q227.578,312.545,227.354,312.324Z" transform="translate(-220.435 -298.482)"/>
            <path id="Path_13031" data-name="Path 13031" class="cls-8" d="M246.851,326.322a4.508,4.508,0,0,1,1.531,1.178,4.342,4.342,0,0,0-1.491-1.159l-1.736-.815c-.193-.091-.381-.189-.567-.292.186.1.374.2.567.292Z" transform="translate(-235.584 -309.829)"/>
            <path id="Path_13032" data-name="Path 13032" class="cls-8" d="M218.575,303.514l-1.147-1.154,1.147,1.154Z" transform="translate(-211.71 -289.724)"/>
            <path id="Path_13033" data-name="Path 13033" class="cls-3" d="M188.564,216.377a4.693,4.693,0,0,0,.067-2.127h0a4.693,4.693,0,0,0-3.357-3.606l-1.95-.537-4.106-2.057a6.515,6.515,0,0,1-2.813-2.727l-.982-1.817,1.787.277a2.256,2.256,0,0,0,1.081-.1l.382-.132a1.643,1.643,0,0,0,1.009-.994,1.436,1.436,0,0,0,.076-.537l0-.05-.878.4a1.847,1.847,0,0,1-1.452-.038l-2.508-1.152,2.386-.151a4.132,4.132,0,0,0,1.7-.485l.423-.227a1.679,1.679,0,0,0,.876-1.636l-.016-.169a.646.646,0,0,0-.883-.539l-2.043.817a1.194,1.194,0,0,1-.952-.028l-.525-.247a1.528,1.528,0,0,0-1.409.056l-.861.492a5.036,5.036,0,0,0-1.957,2.024l-.284.538a10.339,10.339,0,0,0-1.169,5.537l.084,1.217a7.765,7.765,0,0,0,1.489,4.06,1.976,1.976,0,0,1-.027-.225l0-.013,0,.013a1.968,1.968,0,0,1,1.625-2.065l.788-.137a1.968,1.968,0,0,1,1.733.551l1.147,1.154.054.052q.263.26.545.5a9.657,9.657,0,0,0,1.7,1.149c.135.072.272.142.411.208l1.736.815a4.342,4.342,0,0,1,1.491,1.159,4.506,4.506,0,0,1,.83,1.48l0,.008a4.7,4.7,0,0,0,.347.774l.871,1.467-.828-1.394a4.3,4.3,0,0,1-.389-.84l.144.428,2.652,4.465-1.889,3.969a2.357,2.357,0,0,1,.856-.291,1.111,1.111,0,0,1,.858.179,1.011,1.011,0,0,1,.3.483l1.328-3.573a2.773,2.773,0,0,0,.12-1.509l-.286-1.428a2.288,2.288,0,0,1,.033-1.038Z" transform="translate(-170.177 -197.932)"/>
            <path id="Path_13034" data-name="Path 13034" class="cls-9" d="M195.193,304.669l0-.01a4.712,4.712,0,0,0-.83-1.48A4.508,4.508,0,0,0,192.827,302l-1.7-.8c-.193-.091-.381-.189-.567-.292a9.521,9.521,0,0,1-1.624-1.135q-.237-.206-.462-.427l-.054-.052h0l-1.147-1.154a1.968,1.968,0,0,0-1.733-.551l-.788.137a1.968,1.968,0,0,0-1.625,2.065l.027.225a7.754,7.754,0,0,0,.693.82l.648.666a4,4,0,0,0,3.108,1.2l1.124-.067a5.906,5.906,0,0,1,3.036.635l3.57,1.822-.144-.428Z" transform="translate(-181.56 -285.508)"/>
          </g>
        </g>
        <g id="Group_3296" data-name="Group 3296" transform="translate(4.95 14.342)">
          <g id="Group_3295" data-name="Group 3295">
            <path id="Path_13035" data-name="Path 13035" class="cls-7" d="M193.632,324.555a1.813,1.813,0,0,0-.71.365l.144.978a1.469,1.469,0,0,0,1.36,1.253h0a.662.662,0,0,0,.7-.744l-.218-1.732A1.826,1.826,0,0,0,193.632,324.555Z" transform="translate(-192.712 -320.803)"/>
            <path id="Path_13036" data-name="Path 13036" class="cls-3" d="M197.681,299.017l-.743-3.837L194.972,294l-.608,1.012.258,1.439-1.149-.944a1.4,1.4,0,0,0-1.37-.231h0a1.4,1.4,0,0,0-.9,1.514l.195,1.328a1.855,1.855,0,0,1,1.985-.245l2.514,2.176a1.09,1.09,0,0,0,.928.245h0A1.09,1.09,0,0,0,197.681,299.017Z" transform="translate(-191.189 -294)"/>
          </g>
          <path id="Path_13037" data-name="Path 13037" class="cls-4" d="M217.686,303.8l2.095,1.724-2.352-3.163Z" transform="translate(-214.253 -301.349)"/>
          <path id="Path_13038" data-name="Path 13038" class="cls-4" d="M208.045,316.575l-.176-1.3,1.82,2.72Z" transform="translate(-205.85 -312.703)"/>
        </g>
        <path id="Path_13039" data-name="Path 13039" class="cls-10" d="M209.369,223.733l2.386-.151,2.451.938-.878.4a1.847,1.847,0,0,1-1.452-.038Z" transform="translate(-202.219 -217.761)"/>
        <path id="Path_13040" data-name="Path 13040" class="cls-11" d="M208.4,223.77a1.654,1.654,0,0,1-.171,1.583,7.211,7.211,0,0,1-.822.809,1.249,1.249,0,0,0-.437,1.023.964.964,0,0,0,.824.74,1.65,1.65,0,0,0,1.119-.3,2.628,2.628,0,0,0,1.145-1.791,2.89,2.89,0,0,0-.634-2.141Z" transform="translate(-200.097 -217.86)"/>
        <path id="Path_13041" data-name="Path 13041" class="cls-12" d="M242.008,199.785a2.734,2.734,0,0,0-.874.347.21.21,0,0,0,.053.378,2.4,2.4,0,0,0,.633.111.3.3,0,0,0,.275-.154,1.784,1.784,0,0,0,.163-.431A.21.21,0,0,0,242.008,199.785Z" transform="translate(-230.055 -196.84)"/>
        <path id="Path_13042" data-name="Path 13042" class="cls-12" d="M211.644,208.6a.284.284,0,1,1-.284-.284A.284.284,0,0,1,211.644,208.6Z" transform="translate(-203.721 -204.34)"/>
        <path id="Path_13043" data-name="Path 13043" class="cls-3" d="M186.445,184.693a4.164,4.164,0,0,1,1.106-4.57,1.767,1.767,0,0,1,.661-.409.832.832,0,0,1,.746.111.935.935,0,0,1,.089,1.193,4.5,4.5,0,0,1-.93.914,4.6,4.6,0,0,0-1.407,2.357A1.364,1.364,0,0,1,186.445,184.693Z" transform="translate(-181.833 -179.166)"/>
        <path id="Path_13044" data-name="Path 13044" class="cls-13" d="M175.938,264.865a8.409,8.409,0,0,1-7.161.834v.624a7.787,7.787,0,0,0,7.331-1.018Z" transform="translate(-166.539 -254.049)"/>
      </g>
      <g id="Group_3331" data-name="Group 3331" transform="translate(15.787 0.557)">
        <g id="Group_3300" data-name="Group 3300" transform="translate(7.269 5.169)">
          <g id="Group_3298" data-name="Group 3298" transform="translate(7.632 4.862)">
            <path id="Path_13045" data-name="Path 13045" class="cls-14" d="M352.179,137.985l-3.578,3.36,2.552,3.086,3.074-3.812Z" transform="translate(-348.602 -137.985)"/>
            <path id="Path_13046" data-name="Path 13046" class="cls-15" d="M378.027,140.559a4.306,4.306,0,0,0-.224,2.386,9.428,9.428,0,0,0,.521,1.808l1.509-1.871Z" transform="translate(-374.207 -140.248)"/>
          </g>
          <path id="Path_13047" data-name="Path 13047" class="cls-16" d="M293.166,106.028l-1.271,1.3-3.086-6.174.052-.06a2.29,2.29,0,0,0,.554-1.679l-.031-.4a.493.493,0,0,0-.437-.452l-.245-.027v-.234a.392.392,0,0,0-.317-.384l-.538-.105a.572.572,0,0,0-.453.1l-1.56,1.169a.753.753,0,0,0-.273.809l.02.072A2.977,2.977,0,0,0,287,101.755l.19.106,2.766,7.784a1.539,1.539,0,0,0,2.378.712l2.716-2.056Z" transform="translate(-285.534 -97.806)"/>
          <path id="Path_13048" data-name="Path 13048" class="cls-12" d="M346.935,165.75l1.88,2.273-1.074.812-1.036-2.851Z" transform="translate(-339.304 -157.528)"/>
          <g id="Group_3299" data-name="Group 3299" transform="translate(0.432 0.538)">
            <path id="Path_13049" data-name="Path 13049" class="cls-17" d="M329.628,176.261a.03.03,0,0,0-.043,0l-1.139.958a.03.03,0,0,0,.019.053.03.03,0,0,0,.019-.007l1.139-.958A.03.03,0,0,0,329.628,176.261Z" transform="translate(-323.675 -167.296)"/>
            <path id="Path_13050" data-name="Path 13050" class="cls-17" d="M291.973,103.371l-1.063.484a.542.542,0,0,1-.711-.255l1.464-1a.03.03,0,1,0-.034-.05l-.4.27,0-.039a.549.549,0,0,0-.446-.485l-.254-.049a.03.03,0,0,0-.011.06l.254.048a.489.489,0,0,1,.4.432l.008.072-.459.313a.54.54,0,0,0-.458-.441l-.317-.044a.031.031,0,0,0-.034.026.03.03,0,0,0,.026.034l.317.044a.481.481,0,0,1,.412.418l-.431.294a.409.409,0,0,0-.392-.334l-.41-.011a.032.032,0,0,0-.031.029.03.03,0,0,0,.03.031l.409.011a.35.35,0,0,1,.339.311l-.054.037.01.023a.6.6,0,0,0,.1.158l.04.287a.218.218,0,0,1-.058.181.221.221,0,0,1-.177.068l-.623-.049a.34.34,0,0,1,.336-.329h.016l.039.229a.03.03,0,0,0,.03.025h.005a.03.03,0,0,0,.025-.035l-.11-.65a.03.03,0,0,0-.06.01l.034.2-.6-.031a.028.028,0,0,0-.032.029.03.03,0,0,0,.029.032l.613.031.017.1h-.006a.4.4,0,0,0-.4.418v.027l.677.053h.022a.279.279,0,0,0,.2-.088s.007-.01.011-.014l.507-.295s0,0,0-.007a.6.6,0,0,0,.149-.044l.442-.2a2.132,2.132,0,0,0-.472,1.425l.012.272a.03.03,0,0,0,.03.029h0a.03.03,0,0,0,.029-.032l-.012-.272a2.071,2.071,0,0,1,.538-1.48l.495-.226a.03.03,0,1,0-.025-.055Zm-1.637.668-.03-.212a.563.563,0,0,0,.351.135l-.33.192A.279.279,0,0,0,290.336,104.04Z" transform="translate(-289.102 -102.249)"/>
          </g>
        </g>
        <g id="Group_3306" data-name="Group 3306" transform="translate(23.361 23.014)">
          <g id="Group_3302" data-name="Group 3302" transform="translate(0 0.571)">
            <path id="Path_13051" data-name="Path 13051" class="cls-18" d="M418.518,252.944l3.071,6.173a3.786,3.786,0,0,0,5.153,1.664l8.838-4.65-2.1-4.719-7.422,4.477L424.488,250Z" transform="translate(-418.518 -250)"/>
            <g id="Group_3301" data-name="Group 3301">
              <path id="Path_13052" data-name="Path 13052" class="cls-19" d="M463.416,280.08l-8.368,4.553a1.413,1.413,0,0,1-1.975-.687l-1.432-3.359c-.06.064-.12.127-.183.189l1.392,3.265a1.655,1.655,0,0,0,2.313.8l8.368-4.553Z" transform="translate(-447.472 -276.44)"/>
              <path id="Path_13053" data-name="Path 13053" class="cls-12" d="M418.518,264.29l1.458,2.931a6.4,6.4,0,0,0,2.528-1.54l-1.183-2.774Z" transform="translate(-418.518 -261.345)"/>
              <path id="Path_13054" data-name="Path 13054" class="cls-12" d="M443.848,254.147a6.513,6.513,0,0,0,1.069-1.521,10.64,10.64,0,0,0,.8-2.384l-.065-.242-3.056,1.508.11-.047Z" transform="translate(-439.68 -250)"/>
              <path id="Path_13055" data-name="Path 13055" class="cls-18" d="M441.9,262.07l-.11.047-.11.054,1.183,2.774c.062-.061.123-.125.183-.189Z" transform="translate(-438.882 -260.609)"/>
            </g>
          </g>
          <g id="Group_3305" data-name="Group 3305" transform="translate(15.631)">
            <g id="Group_3304" data-name="Group 3304" transform="translate(0)">
              <g id="Group_3303" data-name="Group 3303">
                <path id="Path_13056" data-name="Path 13056" class="cls-16" d="M551.754,265.124l.794-.092-.972-.324a.444.444,0,0,1-.19-.124l-1.282-1.421-.325.45-2.082.869,1.115,2.508,2.206-1.04a1.1,1.1,0,0,1,.65-.09h0l-.131-.4A.261.261,0,0,1,551.754,265.124Z" transform="translate(-547.697 -260.999)"/>
                <path id="Path_13057" data-name="Path 13057" class="cls-12" d="M567.588,251.914l1.282,1.421a.444.444,0,0,0,.19.124l.972.324-.794.092a.261.261,0,0,0-.218.341l.131.4.173.029a13.7,13.7,0,0,1,3.6,1.126,1.7,1.7,0,0,0,1.241.083l-5.458-5.484Z" transform="translate(-565.181 -249.75)"/>
                <path id="Path_13058" data-name="Path 13058" class="cls-20" d="M582.267,251.381a1.693,1.693,0,0,0,.662-.395l-5.677-5.7-.443.615Z" transform="translate(-573.286 -245.282)"/>
              </g>
              <path id="Path_13059" data-name="Path 13059" class="cls-21" d="M581.517,276.522l-.794.092-.069-.38Z" transform="translate(-576.666 -272.489)"/>
            </g>
            <path id="Path_13060" data-name="Path 13060" class="cls-12" d="M547.7,274.069l1.827,2.172-.712.336Z" transform="translate(-547.697 -270.585)"/>
          </g>
        </g>
        <g id="Group_3310" data-name="Group 3310" transform="translate(0 20.331)">
          <path id="Path_13061" data-name="Path 13061" class="cls-18" d="M287.749,224.4l-7.789-.538a4.272,4.272,0,0,0-4.2,2.412l-4.256,8.884,4.719,2.218,3.308-9.156,9.793,2a5.326,5.326,0,0,0,6.475-4.394l.409-2.714Z" transform="translate(-265.932 -223.109)"/>
          <g id="Group_3308" data-name="Group 3308" transform="translate(0 12.562)">
            <g id="Group_3307" data-name="Group 3307" transform="translate(0 0)">
              <path id="Path_13062" data-name="Path 13062" class="cls-16" d="M268.035,329.418l-.7.389,1.022-.072a.446.446,0,0,1,.223.042l1.728.823.128-.54.974-1.972-2.475-1.163-.633,1.4a.661.661,0,0,1-.454.373l-.015,0,.272.315A.261.261,0,0,1,268.035,329.418Z" transform="translate(-262.27 -326.923)"/>
              <path id="Path_13063" data-name="Path 13063" class="cls-12" d="M236.852,343.534l-1.728-.823a.446.446,0,0,0-.223-.042l-1.022.072.7-.389a.261.261,0,0,0,.071-.4l-.272-.315-.171.039a13.7,13.7,0,0,1-3.754.334,1.7,1.7,0,0,0-1.178.4l7.14,2.981Z" transform="translate(-228.812 -339.858)"/>
              <path id="Path_13064" data-name="Path 13064" class="cls-21" d="M225.923,348.017a1.7,1.7,0,0,0-.461.618l7.427,3.1.174-.738Z" transform="translate(-225.462 -345.465)"/>
            </g>
            <path id="Path_13065" data-name="Path 13065" class="cls-21" d="M267.337,347.926l.7-.389.209.324Z" transform="translate(-262.27 -345.043)"/>
            <path id="Path_13066" data-name="Path 13066" class="cls-12" d="M279.258,326.922l2.475,1.163-.374.757-2.28-1.524Z" transform="translate(-272.591 -326.922)"/>
          </g>
          <g id="Group_3309" data-name="Group 3309" transform="translate(8.072 0)">
            <path id="Path_13067" data-name="Path 13067" class="cls-19" d="M310.145,239.8a3.06,3.06,0,0,1-2.391.5l-8.253-1.439a3.4,3.4,0,0,0-3.827,2.047l-3.5,8.592.224.091L295.9,241a3.157,3.157,0,0,1,3.555-1.9l8.253,1.439a3.332,3.332,0,0,0,3.9-2.455l-.253.009A3.056,3.056,0,0,1,310.145,239.8Z" transform="translate(-292.173 -236.266)"/>
            <path id="Path_13068" data-name="Path 13068" class="cls-19" d="M452.5,226.623h0l.014,0Z" transform="translate(-433.1 -226.196)"/>
            <path id="Path_13069" data-name="Path 13069" class="cls-12" d="M455.4,223.109l-2.788.425.238-.036-.158,1.1c-.016.109-.038.216-.064.321l2.512-.087Z" transform="translate(-433.201 -223.109)"/>
            <path id="Path_13070" data-name="Path 13070" class="cls-12" d="M417.463,226.639l-4.823.735.8.4a3.178,3.178,0,0,0,1.536.336l2.267-.079a3.153,3.153,0,0,0,.077-.365Z" transform="translate(-398.063 -226.212)"/>
            <path id="Path_13071" data-name="Path 13071" class="cls-18" d="M451.135,226.322l-.238.036-.014,0-.145,1.028a3.153,3.153,0,0,1-.077.365l.253-.009c.026-.105.047-.212.064-.321Z" transform="translate(-431.483 -225.933)"/>
          </g>
        </g>
        <g id="Group_3311" data-name="Group 3311" transform="translate(18.338 7.887)">
          <path id="Path_13072" data-name="Path 13072" class="cls-14" d="M377.907,121.427l-.545.653a1.513,1.513,0,0,0-.216,1.6l.142.312a4.139,4.139,0,0,0,.91,1.28l.761.726a2.4,2.4,0,0,1,.648,1.066l.849,2.916a3.012,3.012,0,0,1-.022,1.755l-.329,1.034a1.134,1.134,0,0,0,.384,1.239l.156.122a2.707,2.707,0,0,0,2.484.443l6.159-1.962a1.7,1.7,0,0,0,.977-.806h0a1.7,1.7,0,0,0,.065-1.5l-.983-2.25a18.6,18.6,0,0,0-2.516-4.168l-1.178-1.474a5.716,5.716,0,0,0-3.709-2.1h0a5.088,5.088,0,0,0-3.214.635Z" transform="translate(-377.009 -120.272)"/>
          <path id="Path_13073" data-name="Path 13073" class="cls-15" d="M421.41,136.071c-.031-.039-.06-.079-.091-.118l-1.178-1.474a5.734,5.734,0,0,0-.433-.48l-3.464,1.364C417.376,136,420,136.079,421.41,136.071Z" transform="translate(-411.496 -132.338)"/>
        </g>
        <g id="Group_3317" data-name="Group 3317" transform="translate(21.837 6.298)">
          <path id="Path_13074" data-name="Path 13074" class="cls-14" d="M407.218,109.2l4.731-1.2.3.453a4.421,4.421,0,0,1,.73,2.433v1.053l-5.131.623a1.712,1.712,0,0,1-1.777-1.02h0A1.712,1.712,0,0,1,407.218,109.2Z" transform="translate(-405.928 -107.895)"/>
          <path id="Path_13075" data-name="Path 13075" class="cls-16" d="M458.883,110.445l2.914-.3,1.3,6.393-1.317.913a.622.622,0,0,0-.263.583l.088.757a.643.643,0,0,0,.425.532l1.259.442a.766.766,0,0,0,.772-.159l.51-.469a.407.407,0,0,0-.042-.633h0a2.291,2.291,0,0,0,.149-1.988l-.008-.019-.284-7.718a1.706,1.706,0,0,0-1.918-1.63l-4.316.544h0a4.421,4.421,0,0,1,.73,2.433Z" transform="translate(-451.834 -107.133)"/>
          <g id="Group_3312" data-name="Group 3312" transform="translate(10.112 11.066)">
            <path id="Path_13076" data-name="Path 13076" class="cls-17" d="M489.685,199.607a.03.03,0,0,1-.03-.025l-.157-.96a.03.03,0,0,1,.025-.035.03.03,0,0,1,.035.025l.157.96a.03.03,0,0,1-.025.035Z" transform="translate(-489.498 -198.587)"/>
          </g>
          <g id="Group_3313" data-name="Group 3313" transform="translate(10.674 11.292)">
            <path id="Path_13077" data-name="Path 13077" class="cls-17" d="M494.326,201.47a.03.03,0,0,1-.03-.025l-.157-.96a.03.03,0,0,1,.025-.035.03.03,0,0,1,.035.025l.157.96a.03.03,0,0,1-.025.035Z" transform="translate(-494.139 -200.45)"/>
          </g>
          <g id="Group_3314" data-name="Group 3314" transform="translate(11.217 11.368)">
            <path id="Path_13078" data-name="Path 13078" class="cls-17" d="M498.815,202.1a.03.03,0,0,1-.03-.025l-.157-.96a.03.03,0,0,1,.025-.035.03.03,0,0,1,.035.025l.157.96a.03.03,0,0,1-.025.035Z" transform="translate(-498.628 -201.081)"/>
          </g>
          <path id="Path_13079" data-name="Path 13079" class="cls-17" d="M503.53,202.276l-.248.091-.057-.425a.03.03,0,0,0-.034-.026.03.03,0,0,0-.026.034l.081.605a.03.03,0,0,0,.03.026h0a.03.03,0,0,0,.026-.034l-.016-.119.261-.1a.03.03,0,1,0-.021-.057Z" transform="translate(-491.399 -190.447)"/>
          <g id="Group_3315" data-name="Group 3315" transform="translate(9.934 2.797)">
            <path id="Path_13080" data-name="Path 13080" class="cls-17" d="M488.05,130.492a.03.03,0,0,1,0-.06l1.664-.182a.029.029,0,0,1,.033.027.03.03,0,0,1-.027.033l-1.664.182Z" transform="translate(-488.02 -130.25)"/>
          </g>
          <path id="Path_13081" data-name="Path 13081" class="cls-12" d="M458.487,111.4l-.334.042a4.421,4.421,0,0,1,.73,2.433v.32l.949-.1A3.794,3.794,0,0,0,458.487,111.4Z" transform="translate(-451.834 -110.881)"/>
          <g id="Group_3316" data-name="Group 3316" transform="translate(5.364 0.721)">
            <path id="Path_13082" data-name="Path 13082" class="cls-15" d="M450.914,116.382h-.006a.03.03,0,0,1-.024-.035,4.406,4.406,0,0,0-.627-3.21.03.03,0,1,1,.051-.033,4.467,4.467,0,0,1,.635,3.254A.03.03,0,0,1,450.914,116.382Z" transform="translate(-450.253 -113.089)"/>
          </g>
        </g>
        <g id="Group_3323" data-name="Group 3323" transform="translate(18.706 9.868)">
          <g id="Group_3318" data-name="Group 3318" transform="translate(2.755 3.65)">
            <path id="Path_13083" data-name="Path 13083" class="cls-15" d="M409.331,168.185c-.477.007-1.018,0-1.587-.038a12.672,12.672,0,0,1-3.461-.735c-.537-.193-1.032-.411-1.465-.611a5.948,5.948,0,0,0,1.329.923,7.028,7.028,0,0,0,3.595.764A5.944,5.944,0,0,0,409.331,168.185Z" transform="translate(-402.817 -166.801)"/>
          </g>
          <g id="Group_3319" data-name="Group 3319" transform="translate(6.011 5.937)">
            <path id="Path_13084" data-name="Path 13084" class="cls-15" d="M434.277,185.708a5.672,5.672,0,0,1-1.024.46,4.589,4.589,0,0,1-2.458.13,5.667,5.667,0,0,1-1.067-.349,3.042,3.042,0,0,0,1,.582,3.4,3.4,0,0,0,2.615-.138A3.046,3.046,0,0,0,434.277,185.708Z" transform="translate(-429.728 -185.708)"/>
          </g>
          <g id="Group_3320" data-name="Group 3320" transform="translate(9.159 6.174)">
            <path id="Path_13085" data-name="Path 13085" class="cls-15" d="M455.742,189.433a1.308,1.308,0,0,0,.557-.165,1.694,1.694,0,0,0,.811-1.027,1.306,1.306,0,0,0,.032-.58,6.295,6.295,0,0,1-1.4,1.772Z" transform="translate(-455.742 -187.661)"/>
          </g>
          <g id="Group_3321" data-name="Group 3321" transform="translate(3.944 8.543)">
            <path id="Path_13086" data-name="Path 13086" class="cls-15" d="M419.032,207.243a10.246,10.246,0,0,1-1.449.553,8.547,8.547,0,0,1-3.421.293,10.235,10.235,0,0,1-1.522-.3,4.766,4.766,0,0,0,1.462.627,5.625,5.625,0,0,0,3.6-.308A4.761,4.761,0,0,0,419.032,207.243Z" transform="translate(-412.64 -207.243)"/>
          </g>
          <g id="Group_3322" data-name="Group 3322">
            <path id="Path_13087" data-name="Path 13087" class="cls-15" d="M382.7,136.641a2.214,2.214,0,0,1-.514.481,1.877,1.877,0,0,1-1.484.281,2.216,2.216,0,0,1-.655-.26,1.477,1.477,0,0,0,.612.408,1.614,1.614,0,0,0,1.62-.307A1.478,1.478,0,0,0,382.7,136.641Z" transform="translate(-380.049 -136.641)"/>
          </g>
        </g>
        <g id="Group_3329" data-name="Group 3329" transform="translate(12.305)">
          <g id="Group_3324" data-name="Group 3324" transform="translate(5.775 6.763)">
            <path id="Path_13088" data-name="Path 13088" class="cls-16" d="M374.874,113.034l1.453,1.451a2.379,2.379,0,0,0,2.026-1.539,6.617,6.617,0,0,1-1.677-1.97A5.132,5.132,0,0,1,374.874,113.034Z" transform="translate(-374.874 -110.977)"/>
            <path id="Path_13089" data-name="Path 13089" class="cls-12" d="M376.474,114.256a2.323,2.323,0,0,0,.076-1.3,5.06,5.06,0,0,1-1.676,1.818l.65.65A2.326,2.326,0,0,0,376.474,114.256Z" transform="translate(-374.874 -112.717)"/>
          </g>
          <path id="Path_13090" data-name="Path 13090" class="cls-22" d="M327.156,58.621a3.208,3.208,0,0,1,1.181-2.2,5.546,5.546,0,0,1,2.3-1.086,8.828,8.828,0,0,1,4.287.04,2.607,2.607,0,0,1,.826.338,1.093,1.093,0,0,1,.488.722c.063.456-.253.9-.178,1.359.106.644.888.914,1.255,1.453a1.562,1.562,0,0,1,.075,1.5,2.673,2.673,0,0,1-1.059,1.123,5.454,5.454,0,0,1-3.985.547,25.942,25.942,0,0,1-3.64-1.477A2.277,2.277,0,0,1,327.156,58.621Z" transform="translate(-327.151 -55.09)"/>
          <path id="Path_13091" data-name="Path 13091" class="cls-23" d="M328.182,57.385a5,5,0,0,1,2.768-1.67,11.57,11.57,0,0,1,3.275-.222,4.32,4.32,0,0,1,1.033.134,1.583,1.583,0,0,1,.856.564,1.08,1.08,0,0,1,.119.217,1.1,1.1,0,0,0-.483-.7,2.608,2.608,0,0,0-.826-.338,8.828,8.828,0,0,0-4.287-.04,5.546,5.546,0,0,0-2.3,1.086,3.208,3.208,0,0,0-1.181,2.2,2.261,2.261,0,0,0,.341,1.359A3.334,3.334,0,0,1,328.182,57.385Z" transform="translate(-327.152 -55.09)"/>
          <g id="Group_3328" data-name="Group 3328" transform="translate(0.74 2.216)">
            <path id="Path_13092" data-name="Path 13092" class="cls-16" d="M340.033,76.317a.884.884,0,0,1-.915-.466l-.327-.628a.53.53,0,0,0-.366-.275h0a.529.529,0,0,1-.371-.285l-.479-.969a.523.523,0,0,0-.757-.2l-1.45.96a4.357,4.357,0,0,1-.949.474l-1.077.382a3.121,3.121,0,0,0,.413,2.343l.825,1.3a3.131,3.131,0,0,0,5.617-2.662Z" transform="translate(-333.268 -73.404)"/>
            <g id="Group_3325" data-name="Group 3325" transform="translate(6.159 1.581)">
              <circle id="Ellipse_640" data-name="Ellipse 640" class="cls-16" cx="0.922" cy="0.922" r="0.922" transform="translate(0 1.819) rotate(-80.805)"/>
              <path id="Path_13093" data-name="Path 13093" class="cls-24" d="M389.815,91.622a.493.493,0,1,1-.493-.493A.493.493,0,0,1,389.815,91.622Z" transform="translate(-388.266 -90.565)"/>
            </g>
            <g id="Group_3326" data-name="Group 3326" transform="translate(0.72 2.637)">
              <path id="Path_13094" data-name="Path 13094" class="cls-22" d="M339.7,95.416a1.154,1.154,0,0,0-.483.907l1.5-1.07A1.155,1.155,0,0,0,339.7,95.416Z" transform="translate(-339.22 -95.201)"/>
            </g>
            <g id="Group_3327" data-name="Group 3327" transform="translate(3.072 1.54)">
              <path id="Path_13095" data-name="Path 13095" class="cls-22" d="M359.409,86.181a1.155,1.155,0,0,1,1.013.175l-1.764.526A1.155,1.155,0,0,1,359.409,86.181Z" transform="translate(-358.658 -86.133)"/>
            </g>
            <path id="Path_13096" data-name="Path 13096" class="cls-12" d="M350.532,105.872a.216.216,0,1,1-.216-.216A.216.216,0,0,1,350.532,105.872Z" transform="translate(-348.064 -101.753)"/>
            <path id="Path_13097" data-name="Path 13097" class="cls-12" d="M368.345,97.708a.216.216,0,1,1-.216-.216A.215.215,0,0,1,368.345,97.708Z" transform="translate(-363.722 -94.577)"/>
            <path id="Path_13098" data-name="Path 13098" class="cls-24" d="M359.612,110.551a2.574,2.574,0,0,0-.471.13.863.863,0,0,0-.384.292.962.962,0,0,0,.513.048A.6.6,0,0,0,359.612,110.551Z" transform="translate(-355.672 -106.056)"/>
            <path id="Path_13099" data-name="Path 13099" class="cls-21" d="M359.27,109.04a3.669,3.669,0,0,1-2.585,1.467,3.088,3.088,0,0,0,1.05.345,1.611,1.611,0,0,0,1.031-.29A1.694,1.694,0,0,0,359.27,109.04Z" transform="translate(-353.851 -104.728)"/>
          </g>
        </g>
        <g id="Group_3330" data-name="Group 3330" transform="translate(15.678 12.945)">
          <path id="Path_13100" data-name="Path 13100" class="cls-15" d="M357.184,164.4a.03.03,0,0,1-.022-.01l-2.13-2.271a.03.03,0,0,1,.044-.041l2.13,2.271a.03.03,0,0,1-.022.051Z" transform="translate(-355.024 -162.073)"/>
        </g>
      </g>
      <g id="Group_3342" data-name="Group 3342" transform="translate(30.592 26.324)">
        <g id="Group_3333" data-name="Group 3333" transform="translate(0 9.617)">
          <g id="Group_3332" data-name="Group 3332">
            <path id="Path_13101" data-name="Path 13101" class="cls-25" d="M348.376,359.869a1.683,1.683,0,0,0-.551,1.422l.076.745,2.018-1.073-.141-.324A1.309,1.309,0,0,0,348.376,359.869Z" transform="translate(-347.816 -358.359)"/>
            <path id="Path_13102" data-name="Path 13102" class="cls-26" d="M361.193,347.5l-3.1,2.742L355.47,348.5a1.917,1.917,0,0,0-1.912-.118l-.741.369a1.681,1.681,0,0,0-.374.255,1.309,1.309,0,0,1,1.4.77l.141.324.433-.23,2.777,2.447a1.57,1.57,0,0,0,1.9.135l3.937-2.582Z" transform="translate(-351.882 -347.499)"/>
          </g>
          <path id="Path_13103" data-name="Path 13103" class="cls-27" d="M389.8,347.5l-1.313,1.161-.462,1.414a1.7,1.7,0,0,1-1.244,1.129l-1.794.4.815.719a1.57,1.57,0,0,0,1.9.135l3.937-2.582Z" transform="translate(-380.487 -347.499)"/>
        </g>
        <g id="Group_3335" data-name="Group 3335" transform="translate(20.661 11.391)">
          <g id="Group_3334" data-name="Group 3334">
            <path id="Path_13104" data-name="Path 13104" class="cls-26" d="M526.915,366.744l-1.568-.808-2.846-3.774-3.94,2.252,1.831,2.291a5.365,5.365,0,0,0,3.6,1.982l1.661.185,1.533,2.795-.031.036a3.775,3.775,0,0,1,2.735,1.815l-1.949-5.593A2.106,2.106,0,0,0,526.915,366.744Z" transform="translate(-518.561 -362.161)"/>
            <path id="Path_13105" data-name="Path 13105" class="cls-25" d="M583.892,441l-.135.155a2.622,2.622,0,0,0-.646,1.66h3.516A3.775,3.775,0,0,0,583.892,441Z" transform="translate(-575.3 -431.461)"/>
          </g>
          <path id="Path_13106" data-name="Path 13106" class="cls-27" d="M525.118,366.825l1.229-.374-1-.516-2.846-3.774-3.94,2.252,2.9,1.892A4.366,4.366,0,0,0,525.118,366.825Z" transform="translate(-518.561 -362.161)"/>
        </g>
        <g id="Group_3336" data-name="Group 3336" transform="translate(25.268 2.558)">
          <path id="Path_13107" data-name="Path 13107" class="cls-25" d="M556.634,295.225a3.607,3.607,0,0,0,3.134-6.064,3.473,3.473,0,0,1,2.358,2.672c.087-.215.2-.42.289-.634a3.412,3.412,0,0,1-.489,3.3c.15-.033.378-.019.529-.051a3.327,3.327,0,0,1-2.469,1.708,9.074,9.074,0,0,1-3.119-.161A2.259,2.259,0,0,0,556.634,295.225Z" transform="translate(-556.634 -289.161)"/>
          <path id="Path_13108" data-name="Path 13108" class="cls-27" d="M556.634,338.028a2.26,2.26,0,0,1,.232.767,9.073,9.073,0,0,0,3.119.161l.092-.018a13.35,13.35,0,0,0-1.759-1.081A3.538,3.538,0,0,1,556.634,338.028Z" transform="translate(-556.634 -331.964)"/>
        </g>
        <path id="Path_13109" data-name="Path 13109" class="cls-28" d="M414.906,313.193a5.453,5.453,0,0,0,2.123-1.939c-1.633-.015-4.545,2-4.95,2.529A5.52,5.52,0,0,0,414.906,313.193Z" transform="translate(-404.303 -306.022)"/>
        <path id="Path_13110" data-name="Path 13110" class="cls-26" d="M417.728,269.888a7.937,7.937,0,0,1,1.383-1.328,2.669,2.669,0,0,1,1.807-.519,1.626,1.626,0,0,1,1.392,1.151,15.633,15.633,0,0,0-3.934,1.082C418.188,270.183,417.917,269.978,417.728,269.888Z" transform="translate(-409.268 -268.025)"/>
        <g id="Group_3339" data-name="Group 3339" transform="translate(2.051 1.021)">
          <path id="Path_13111" data-name="Path 13111" class="cls-11" d="M384.837,308.806a3.11,3.11,0,0,0-.246,1.936,1.7,1.7,0,0,0,.365.9.757.757,0,0,0,.888.2.873.873,0,0,0,.362-.817c-.014-.313-.115-.617-.137-.93a1.855,1.855,0,0,1,.328-1.183c.179-.255.443-.509.327-.849a.4.4,0,0,0-.486-.276A1.9,1.9,0,0,0,384.837,308.806Z" transform="translate(-382.147 -303.992)"/>
          <g id="Group_3338" data-name="Group 3338">
            <path id="Path_13112" data-name="Path 13112" class="cls-29" d="M437.075,366.981a2.971,2.971,0,0,1-2.3-.645l-.54-.443-3.539.874a4.46,4.46,0,0,0,1.3,1.146l1.447.844a5.182,5.182,0,0,0,4.6.307l4.353-1.815-1.247-.839Z" transform="translate(-422.72 -355.072)"/>
            <g id="Group_3337" data-name="Group 3337">
              <path id="Path_13113" data-name="Path 13113" class="cls-25" d="M398.529,292.162l.634-.534-2.6-3.147a2.132,2.132,0,0,0-1.644-.775H392.7l-2.029-2.328a6.372,6.372,0,0,0-5.364-2.16l-3.994.353-4.438-1.26a2.624,2.624,0,0,1-1.628-1.346l-.944-1.878a3.913,3.913,0,0,0-2.164-1.922l-1.745-.632a1.13,1.13,0,0,0-1.005.118l-.68.447a1.134,1.134,0,0,1-.769.177l-2.951-.384a.2.2,0,0,0-.222.23l.24,1.442a1.554,1.554,0,0,0,1.152,1.251l2.46.621a.4.4,0,0,1-.045.79l-2.712.362.129.286a1.194,1.194,0,0,0,1.247.692l2.427-.326a1.437,1.437,0,0,1,1.595,1.117l.667,3.048a4.46,4.46,0,0,0,.815,1.755l3.539-.874.54.443a2.971,2.971,0,0,0,2.3.645l4.077-.572,1.247.839,2.771,1.479a4.662,4.662,0,0,0,3.2.44l3.867-.854,3.441,3.623a2.987,2.987,0,0,0,.426.368A1.349,1.349,0,0,1,398.529,292.162Z" transform="translate(-364.762 -276.466)"/>
              <path id="Path_13114" data-name="Path 13114" class="cls-29" d="M642.926,404.134l-1.956-2.369-.634.534a1.349,1.349,0,0,0-.382,1.536A2.991,2.991,0,0,0,642.926,404.134Z" transform="translate(-606.569 -386.603)"/>
            </g>
          </g>
          <path id="Path_13115" data-name="Path 13115" class="cls-12" d="M365.445,280.03h0a1.439,1.439,0,0,1,.545.187l.7.413a.219.219,0,0,1-.084.405l-.575.073a.612.612,0,0,1-.654-.4l-.146-.412A.2.2,0,0,1,365.445,280.03Z" transform="translate(-365.165 -279.597)"/>
          <path id="Path_13116" data-name="Path 13116" class="cls-12" d="M403.273,285.333c-.119.178-.3.265-.4.2s-.091-.27.029-.447.3-.265.4-.2S403.393,285.155,403.273,285.333Z" transform="translate(-398.197 -283.846)"/>
        </g>
        <path id="Path_13117" data-name="Path 13117" class="cls-26" d="M423.4,317.872a4.437,4.437,0,0,1-4.058,3.1l-.181-.87,2.516-.807Z" transform="translate(-410.526 -311.84)"/>
        <path id="Path_13118" data-name="Path 13118" class="cls-30" d="M417.029,311.254a5.454,5.454,0,0,1-2.123,1.939,5.52,5.52,0,0,1-2.827.59l.03.366h0c.015.144.03.29.035.409a5.38,5.38,0,0,0,3.053-.591,5.289,5.289,0,0,0,2.148-2.222C417.249,311.626,417.125,311.374,417.029,311.254Z" transform="translate(-404.303 -306.023)"/>
        <g id="Group_3340" data-name="Group 3340" transform="translate(2.319 9.236)">
          <path id="Path_13119" data-name="Path 13119" class="cls-29" d="M368.539,406.86a1.277,1.277,0,0,0-1.494.167,1.91,1.91,0,0,0,.752,2.063l.4.278.792-2.252h0Z" transform="translate(-366.98 -399.149)"/>
          <path id="Path_13120" data-name="Path 13120" class="cls-25" d="M378.074,345.156a1.2,1.2,0,0,0-1.231-.8h-.017a2.112,2.112,0,0,0-1.621.985l-2.082,3.326-3.369.833a2.189,2.189,0,0,0-1.4,1.076l-.672,1.231a1.913,1.913,0,0,0-.167.422,1.277,1.277,0,0,1,1.494-.167l.45.257h0l.24-.684,3.826-.712a3.144,3.144,0,0,0,1.5-.731l3.672-3.234Z" transform="translate(-367.454 -344.351)"/>
        </g>
        <g id="Group_3341" data-name="Group 3341" transform="translate(8.427 0.907)">
          <path id="Path_13121" data-name="Path 13121" class="cls-25" d="M417.958,278.034a7.928,7.928,0,0,1,3.439-.092,7.209,7.209,0,0,0,.878.151,1.5,1.5,0,0,0,.863-.166,1.191,1.191,0,0,0,.544-1.178,1.427,1.427,0,0,0-.8-1.052,2.618,2.618,0,0,0-1.44-.144,7.75,7.75,0,0,0-3.982,1.708A1.663,1.663,0,0,1,417.958,278.034Z" transform="translate(-417.458 -275.519)"/>
          <path id="Path_13122" data-name="Path 13122" class="cls-27" d="M430.482,282.141c-.035,0-.07,0-.1,0a4.406,4.406,0,0,1-.581-.1l-.218-.044a8.581,8.581,0,0,0-2.953-.056,7.148,7.148,0,0,1,2.95-1.058,3.837,3.837,0,0,1,.455-.031,1.456,1.456,0,0,1,.63.117.788.788,0,0,1,.441.561.551.551,0,0,1-.231.529A.786.786,0,0,1,430.482,282.141Z" transform="translate(-425.516 -280.206)"/>
        </g>
      </g>
      <g id="Group_3343" data-name="Group 3343" transform="translate(0 49.07)">
        <path id="Path_13123" data-name="Path 13123" class="cls-22" d="M162.582,456.363h-67.4a.182.182,0,1,1,0-.363h67.4a.182.182,0,0,1,0,.363Z" transform="translate(-95 -456)"/>
      </g>
    </g>
  </g>
</svg>
