<svg xmlns="http://www.w3.org/2000/svg" width="62.044" height="49.462" viewBox="0 0 62.044 49.462">
  <defs>
    <style>
      .cls-1 {
        fill: #ddd;
      }

      .cls-2, .cls-5 {
        fill: #262523;
      }

      .cls-3, .cls-6 {
        fill: #ebeae9;
      }

      .cls-4, .cls-9 {
        fill: #302f2b;
      }

      .cls-5, .cls-6 {
        mix-blend-mode: soft-light;
        isolation: isolate;
      }

      .cls-6 {
        opacity: 0.25;
      }

      .cls-7, .cls-8 {
        fill: #ffb8cc;
      }

      .cls-10, .cls-8 {
        stroke: #302f2b;
        stroke-miterlimit: 10;
      }

      .cls-8 {
        stroke-width: 1.178px;
      }

      .cls-9 {
        opacity: 0.5;
      }

      .cls-10 {
        fill: none;
      }

      .cls-11 {
        fill: #fabe8b;
      }
    </style>
  </defs>
  <g id="OBJECTS" transform="translate(-35.001 -69.999)">
    <g id="Group_3280" data-name="Group 3280" transform="translate(35.001 94.384)">
      <g id="Group_3279" data-name="Group 3279" transform="translate(3.057 0)">
        <g id="Group_3272" data-name="Group 3272" transform="translate(35.278 1.383)">
          <path id="Path_12980" data-name="Path 12980" class="cls-1" d="M311.073,259.018a3.177,3.177,0,0,0-.26.342,8.513,8.513,0,0,0-.883,4.691c.029,1.251.146,2.385.1,3.042a2.148,2.148,0,0,1-.544,1.3l-.45.5-1.472,1.557c-.561.628-1.865,1.567-2.676,1.341l-1.4-.016c-1.5.051.29-1.225.5-1.44l2.37-2.444.918-.945a.569.569,0,0,0,.026-.765,14.805,14.805,0,0,1-2.576-4.33,8.682,8.682,0,0,1,.456-7.617l-4.493-.5a8.514,8.514,0,0,1,6.492-4.955,8.211,8.211,0,0,1,2.27-.176C314.282,250.387,313.353,256.409,311.073,259.018Z" transform="translate(-300.69 -248.588)"/>
          <path id="Path_12981" data-name="Path 12981" class="cls-2" d="M333.873,327.935c.029,1.251.146,2.385.1,3.042a2.148,2.148,0,0,1-.544,1.3l-.45.5a8.007,8.007,0,0,1-2.681-1l.918-.945a.569.569,0,0,0,.026-.765,14.806,14.806,0,0,1-2.576-4.33,11.155,11.155,0,0,1,2.216-.769,14.464,14.464,0,0,0,2.5-.96,14.716,14.716,0,0,0,1.372-.769A8.513,8.513,0,0,0,333.873,327.935Z" transform="translate(-324.633 -312.472)"/>
        </g>
        <path id="Path_12982" data-name="Path 12982" class="cls-1" d="M76.589,351.1s-.637.378-3.084,1.512c-1.406.652-6.875,3.314-8.325,3.921a23.678,23.678,0,0,1-7.294,1.162c-.971-.083-1.466.841-1.676,1.409a.308.308,0,0,0,.3.415c2.01-.052,10.514-.271,12.2-.308,2.075-.045,9.7-2.07,9.7-2.07Z" transform="translate(-56.19 -334.921)"/>
        <g id="Group_3273" data-name="Group 3273" transform="translate(1.878 0.954)">
          <path id="Path_12983" data-name="Path 12983" class="cls-3" d="M117.063,264.545l-1.508,3.252-.062.134a2.214,2.214,0,0,1-1.952,1.284l-1.151.029a.4.4,0,0,1-.361-.573l1.633-3.183.864-1.682a.565.565,0,0,0-.2-.736,15.535,15.535,0,0,1-2.495-1.993,12.419,12.419,0,0,1-1.932-2.437l0,0c-.29.642-.609,1.3-.951,1.941a18,18,0,0,1-3.249,4.542,10.708,10.708,0,0,1-7.972,3.021,17.719,17.719,0,0,1-3.616-.488,25.689,25.689,0,0,1-2.6-.758l-.009,0-.082-.027v0s-7.269,1.929-9.545,2.062c-.055,0-.108.006-.157.007-1.688.036-10.193.255-12.2.307a.307.307,0,0,1-.3-.416c.209-.567.7-1.492,1.675-1.408a23.713,23.713,0,0,0,7.294-1.163c1.058-.442,1.791-.9,2.691-1.268a8.819,8.819,0,0,1,1.1-.374,4.454,4.454,0,0,0,1.522-1.086c.372-.355.76-.768,1.14-1.192l-.185-.147c-1.542-1.226-3.017-2.382-3.117-2.462l-.006,0,1.2-.766,1.092-.7,1.975-1.263,2.166-.179.517-.042.537-.045h0a.511.511,0,0,1,.912.019.491.491,0,0,1,.9,0,.544.544,0,0,1,.908-.027A35.251,35.251,0,0,0,97.5,256.1a11.938,11.938,0,0,0,3.766-2.06,1.817,1.817,0,0,0,.7-1.173c.016-.1.036-.214.061-.333a8.751,8.751,0,0,1,.558-1.773,8.517,8.517,0,0,1,6.493-4.955,8.191,8.191,0,0,1,2.268-.175,5.049,5.049,0,0,1,4.417,3.07,8.258,8.258,0,0,1,.074,6.409c-1.1,2.462.988,6.464,1.361,8.025A2.149,2.149,0,0,1,117.063,264.545Z" transform="translate(-69.203 -245.614)"/>
          <path id="Path_12984" data-name="Path 12984" class="cls-4" d="M351.578,282.863l-1.508,3.252a9.6,9.6,0,0,1-1.893-2.309l.864-1.682a.565.565,0,0,0-.2-.736,15.535,15.535,0,0,1-2.495-1.993,12.419,12.419,0,0,1-1.932-2.437l0,0c-.29.642-.609,1.3-.951,1.941q-.084-.42-.131-.844a10.324,10.324,0,0,1,6.955-11.038,8.258,8.258,0,0,1,.074,6.409c-1.1,2.462.988,6.464,1.361,8.025A2.149,2.149,0,0,1,351.578,282.863Z" transform="translate(-303.718 -263.933)"/>
          <path id="Path_12985" data-name="Path 12985" class="cls-4" d="M171.116,301.28c-1.255,1.426-3.431,1.516-5.075,2.472-1.564.91-2.537,2.528-3.649,3.966-.084.108-.169.216-.254.322s-.176.209-.271.307a4.879,4.879,0,0,1-.372.361,25.689,25.689,0,0,1-2.6-.758l-.009,0-.082-.027v0s-7.269,1.929-9.545,2.062a4.224,4.224,0,0,1-.573-.6,3.2,3.2,0,0,1-.736-2.159,3.123,3.123,0,0,1,.313-1.185,8.813,8.813,0,0,1,1.1-.374,4.454,4.454,0,0,0,1.522-1.086c.372-.355.76-.768,1.14-1.192a18.631,18.631,0,0,1,1.889-.916c.291-.134.571-.267.8-.381a9.487,9.487,0,0,0,4.207-4.3h0c0-.007.007-.014.01-.022a35.25,35.25,0,0,0,5.961-.629,11.939,11.939,0,0,0,3.766-2.06,1.817,1.817,0,0,0,.7-1.173c.016-.1.036-.214.061-.333a9.236,9.236,0,0,1,1.309,1.5C172.006,296.917,172.593,299.6,171.116,301.28Z" transform="translate(-136.588 -286.661)"/>
          <path id="Path_12986" data-name="Path 12986" class="cls-5" d="M110.687,337.019a34.793,34.793,0,0,1-8.432,6.245,13.708,13.708,0,0,1-2.785.971h0a8.153,8.153,0,0,1-2.591-.286,23.313,23.313,0,0,0-3.495-.874c-1.449-.053-5.4,1.467-8.061,2.12-.733.179-1.436.317-2.146.424a43.123,43.123,0,0,1-6.44.336,18.55,18.55,0,0,0-5.347.576c2.01-.052,10.514-.271,12.2-.307.049,0,.1,0,.157-.007,2.275-.133,9.545-2.062,9.545-2.062v0l.082.027.009,0a25.679,25.679,0,0,0,2.6.758q.235.055.467.1l.09.018c.124.026.248.05.371.073l.111.02c.115.021.229.041.343.059l.126.019c.106.016.213.033.318.047l.144.019c.1.012.194.025.29.035l.166.017.259.025.19.015.224.015.219.011.183.007.115,0v0a10.707,10.707,0,0,0,7.972-3.02,18.006,18.006,0,0,0,3.249-4.542c.342-.645.661-1.3.951-1.941C111.729,335.964,111.336,336.385,110.687,337.019Z" transform="translate(-71.074 -322.892)"/>
          <path id="Path_12987" data-name="Path 12987" class="cls-6" d="M234.143,308.312s5.636.321,8.4-2.62c0,0-.307,1.923-3.671,2.73C235.689,309.187,234.143,308.312,234.143,308.312Z" transform="translate(-210.344 -297.023)"/>
        </g>
        <g id="Group_3276" data-name="Group 3276" transform="translate(8.858 6.233)">
          <g id="Group_3274" data-name="Group 3274" transform="translate(9.909 0.261)">
            <path id="Path_12988" data-name="Path 12988" class="cls-7" d="M203.091,284.025s-.738.062-1.385,1.793h0l.667.406.718-2.2Z" transform="translate(-199.231 -284.023)"/>
            <path id="Path_12989" data-name="Path 12989" class="cls-2" d="M187.334,288.447s2.631-1.443,2.916-2.478a4.56,4.56,0,0,0,.049-1.778.211.211,0,0,0-.391-.075l-.94,1.6-2.714,1.047Z" transform="translate(-186.253 -284.012)"/>
          </g>
          <path id="Path_12990" data-name="Path 12990" class="cls-3" d="M130.308,288.38a12.219,12.219,0,0,0-3.812,2.57,5.255,5.255,0,0,1-.411.377c-1.5,1.228-2.476.342-3.35-.277l-.006,0a26.376,26.376,0,0,1-3.451-2.935,10.214,10.214,0,0,1-1.014-1.215,4.064,4.064,0,0,1-.564-1.072,1.945,1.945,0,0,1-.055-.209c-.012-.055-.022-.11-.029-.163,0-.027-.009-.055-.012-.082-.007-.062-.013-.123-.017-.183a3.988,3.988,0,0,1,.491-2.1,0,0,0,0,0,0,0c.063-.12.128-.232.192-.333.084-.134.164-.251.237-.349a.5.5,0,0,1,.343-.2.663.663,0,0,1,.107,0,.5.5,0,0,1,.179.052l.739.381,1.591.817a2.211,2.211,0,0,0,.641.216,2.259,2.259,0,0,0,1.074-.066c.03-.009.062-.019.092-.03l.53-.188a1.774,1.774,0,0,1,.212-.061c.023-.006.048-.01.072-.014a1.758,1.758,0,0,1,.289-.025q.056,0,.113,0a1.049,1.049,0,0,1,.115.012.378.378,0,0,1,.056.009c.025,0,.049.009.074.013s.074.017.11.027h0l.612.175,1.411.4a3.638,3.638,0,0,1,1.509.9l.032.03.036.038a5.092,5.092,0,0,1,.5.576c.032.04.062.082.091.124a7.179,7.179,0,0,1,.462.74l0,0c.058.105.111.209.162.312.131.268.241.524.33.753h0c.1.254.172.475.224.642h0C130.279,288.258,130.308,288.38,130.308,288.38Z" transform="translate(-117.579 -282.207)"/>
          <path id="Path_12991" data-name="Path 12991" class="cls-4" d="M154.637,294.486a7.111,7.111,0,0,1-.975.709,5.867,5.867,0,0,1-3.466.958,3.49,3.49,0,0,1-2.919-1.9c-.26-.577-.321-1.233-.621-1.791a8.545,8.545,0,0,1-.439-.763,1.153,1.153,0,0,1-.047-.136,1.548,1.548,0,0,1,.142-1.139,1.6,1.6,0,0,1,.216-.31,2.261,2.261,0,0,0,1.161-.1l.531-.188a1.722,1.722,0,0,1,1.044-.034l2.025.578C153.379,290.964,154.353,293.562,154.637,294.486Z" transform="translate(-142 -288.64)"/>
          <g id="Group_3275" data-name="Group 3275" transform="translate(9.965 1.828)">
            <path id="Path_12992" data-name="Path 12992" class="cls-8" d="M195.57,295.676a.011.011,0,0,1,0,0c-.108.177-.462.265-.96.348-.4.064-.882.126-1.41.224a2.482,2.482,0,0,0-1.329.694c.5-.524,2.7-2.724,3.46-1.884C195.587,295.346,195.652,295.537,195.57,295.676Z" transform="translate(-191.115 -294.872)"/>
            <path id="Path_12993" data-name="Path 12993" class="cls-4" d="M190.133,300.82c-.4.063-.882.126-1.41.224a2.482,2.482,0,0,0-1.329.694c-.019.017-.035.036-.052.055a.271.271,0,0,0-.029.029h0l-.02.022h0a2.985,2.985,0,0,0-.652,1.218l2.046.892a7.11,7.11,0,0,1,1.436-2.392,3.8,3.8,0,0,0,.971-1.091Z" transform="translate(-186.64 -299.664)"/>
          </g>
          <path id="Path_12994" data-name="Path 12994" d="M122.79,282.64a1.9,1.9,0,0,1-1.8.447,5.441,5.441,0,0,1,.428-.682.5.5,0,0,1,.629-.145Z" transform="translate(-120.5 -282.204)"/>
          <path id="Path_12995" data-name="Path 12995" d="M158.236,295.669a.255.255,0,1,1-.261-.248A.255.255,0,0,1,158.236,295.669Z" transform="translate(-151.934 -293.514)"/>
          <path id="Path_12996" data-name="Path 12996" class="cls-9" d="M128.745,288.633a.164.164,0,0,0-.048.176c.032.073.123.1.19.137a.7.7,0,0,1,.149.145.45.45,0,0,0,.16.132.173.173,0,0,0,.193-.031.242.242,0,0,0,.046-.145.8.8,0,0,0-.032-.327.4.4,0,0,0-.213-.241.287.287,0,0,0-.2-.006c-.058.02-.087.067-.138.094A.44.44,0,0,0,128.745,288.633Z" transform="translate(-127.084 -287.555)"/>
          <path id="Path_12997" data-name="Path 12997" class="cls-9" d="M128.148,293.108a.436.436,0,0,0-.094-.135.613.613,0,0,0-.14-.126.206.206,0,0,0-.182-.02.187.187,0,0,0-.1.175.4.4,0,0,0,.2.3.159.159,0,0,0,.1.024.38.38,0,0,0,.17-.045A.141.141,0,0,0,128.148,293.108Z" transform="translate(-126.18 -291.283)"/>
          <path id="Path_12998" data-name="Path 12998" class="cls-9" d="M124.693,290.11a.209.209,0,0,0,.027-.2.178.178,0,0,0-.19-.053.409.409,0,0,0-.22.113.263.263,0,0,0-.071.231.3.3,0,0,0,.1.152.228.228,0,0,0,.181.07.123.123,0,0,0,.1-.128A.4.4,0,0,1,124.693,290.11Z" transform="translate(-123.274 -288.751)"/>
          <path id="Path_12999" data-name="Path 12999" class="cls-4" d="M120.344,306.8a.253.253,0,0,1-.235.183.647.647,0,0,1-.309-.072,3.509,3.509,0,0,1-.4-.2,3.7,3.7,0,0,1-.746-.583,3.782,3.782,0,0,1-.737-1.056,1.942,1.942,0,0,1-.055-.209c-.012-.055-.022-.11-.029-.163l0,.009s0,0,0,.006a2.979,2.979,0,0,0,.341.587,2.8,2.8,0,0,0,.2.237,3.1,3.1,0,0,0,.828.645,2.872,2.872,0,0,0,.713.267.941.941,0,0,1,.294.1A.264.264,0,0,1,120.344,306.8Z" transform="translate(-117.794 -301.447)"/>
        </g>
        <g id="Group_3278" data-name="Group 3278" transform="translate(45.402)">
          <g id="Group_3277" data-name="Group 3277">
            <path id="Path_13000" data-name="Path 13000" class="cls-3" d="M381.436,249.674c-.059.219-.113.463-.16.723a33.289,33.289,0,0,0-.385,4.135,3,3,0,0,1-1.366-2.866,13.906,13.906,0,0,1,.465-2.593c.651-2.817,1.467-6.554-1.315-7.6a4.224,4.224,0,0,0-4.691.716l0,0a3.465,3.465,0,0,1-1.723.854l-1.409-2.657s7.314-3.473,10.536.579C383.435,243.544,381.982,247.677,381.436,249.674Z" transform="translate(-370.85 -239.003)"/>
            <path id="Path_13001" data-name="Path 13001" class="cls-4" d="M432.722,309.75a33.29,33.29,0,0,0-.385,4.135,3,3,0,0,1-1.366-2.866,13.907,13.907,0,0,1,.465-2.593.978.978,0,0,1,.32-.062.08.08,0,0,1,.026,0,.924.924,0,0,1,.711.645C432.586,309.252,432.635,309.509,432.722,309.75Z" transform="translate(-422.295 -298.357)"/>
          </g>
          <path id="Path_13002" data-name="Path 13002" class="cls-5" d="M398.922,257.885a12.192,12.192,0,0,0-.408,2.913,12.993,12.993,0,0,0,.964,2.6,3,3,0,0,1-1.366-2.866,13.91,13.91,0,0,1,.465-2.593c.651-2.816,1.467-6.554-1.314-7.6a4.224,4.224,0,0,0-4.691.716,3.68,3.68,0,0,1,4.2-1.542c2.938.737,3.31,3.343,2.855,5.288C399.424,255.687,399.148,256.824,398.922,257.885Z" transform="translate(-389.436 -247.874)"/>
        </g>
        <path id="Path_13003" data-name="Path 13003" class="cls-5" d="M128.139,311.983a18.619,18.619,0,0,0-1.889.916l-.185-.147c-1.542-1.226-3.017-2.382-3.117-2.462l-.006,0a26.379,26.379,0,0,1-3.451-2.935,10.216,10.216,0,0,1-1.014-1.215,4.065,4.065,0,0,1-.564-1.072,1.942,1.942,0,0,1-.055-.209c-.012-.055-.022-.11-.029-.163l0,.009a6.636,6.636,0,0,0,.538.83A10.289,10.289,0,0,0,119.4,306.7a11.236,11.236,0,0,0,3.935,2.495c.287.108.557.215.812.322a18.227,18.227,0,0,1,2.156,1.048A6.611,6.611,0,0,1,128.139,311.983Z" transform="translate(-108.936 -295.214)"/>
      </g>
      <line id="Line_321" data-name="Line 321" class="cls-10" x2="62.044" transform="translate(0 24.577)"/>
    </g>
    <g id="Group_3286" data-name="Group 3286" transform="translate(38.387 69.999)">
      <g id="Group_3281" data-name="Group 3281" transform="translate(7.906 0.813)">
        <path id="Path_13004" data-name="Path 13004" class="cls-11" d="M121.189,77.321a1.336,1.336,0,0,1-.32.41l-.515.505a9.421,9.421,0,0,1-.825.785L117.152,82.9a3.97,3.97,0,0,0-.035,1.5,3.115,3.115,0,0,1-.148,1.714,1.256,1.256,0,0,1-.981.686.773.773,0,0,1-.46-.105.855.855,0,0,1-.266-.252h0a1.441,1.441,0,0,1-.224-.8c0-.4.1-.8.111-1.208a2.147,2.147,0,0,1-.885.794.746.746,0,0,1-.987-.406c-.091-.373.224-.712.509-.969l.681-.612c.4-.357.8-.7,1.191-1.071a.949.949,0,0,0,.116-.134l2.437-3.975c.054-.317.115-.633.188-.946a2.349,2.349,0,0,1,.536-1.187.885.885,0,0,1,1.186-.109c.336.324.233.873.106,1.322a1.319,1.319,0,0,1,.4-.347.531.531,0,0,1,.264-.053.365.365,0,0,1,.232.1.38.38,0,0,1,.108.281A.526.526,0,0,1,121.189,77.321Z" transform="translate(-113.26 -75.63)"/>
        <path id="Path_13005" data-name="Path 13005" class="cls-5" d="M133.059,83.872a1.036,1.036,0,0,1-.214.3l-.574.565a10.874,10.874,0,0,1-.874.832l-2.376,3.876a3.969,3.969,0,0,0-.035,1.5,3.115,3.115,0,0,1-.148,1.714,1.256,1.256,0,0,1-.981.686.773.773,0,0,1-.46-.105.855.855,0,0,1-.266-.252,1.248,1.248,0,0,0,1.409-.36c.34-.35.176-1.309.093-1.788a6.9,6.9,0,0,1,.01-1.369l2.474-3.985a1.115,1.115,0,0,1,.215-.253c.326-.283,1.185-1.036,1.4-1.279a.567.567,0,0,0,.023-.668.365.365,0,0,1,.232.1.38.38,0,0,1,.108.281A.526.526,0,0,1,133.059,83.872Z" transform="translate(-125.13 -82.181)"/>
      </g>
      <g id="Group_3282" data-name="Group 3282" transform="translate(24.467 13.767)">
        <path id="Path_13006" data-name="Path 13006" class="cls-11" d="M235.175,167.69a.59.59,0,0,1-.012.088h0a.784.784,0,0,1-.665.616,1.143,1.143,0,0,1-.791-.281c-.183-.141-.343-.312-.517-.466h-2.806a1.339,1.339,0,0,0-.354.345,3.2,3.2,0,0,1-.482.6.978.978,0,0,1-1.053.117.884.884,0,0,1-.452-.844.645.645,0,0,1,.019-.105.79.79,0,0,1,.848-.574,1.407,1.407,0,0,1-.684-.469.685.685,0,0,1-.027-.785.72.72,0,0,1,.656-.231,2.13,2.13,0,0,1,.678.251l.032.016.538.271a5.153,5.153,0,0,0,.489.244.238.238,0,0,1,.162.03l.006,0a.994.994,0,0,0,.17-.014,7.2,7.2,0,0,1,1.059-.017h1.188c.082-.082.162-.169.244-.25.153-.152.31-.3.469-.447.244-.224.563-.453.877-.351a.636.636,0,0,1,.361.747,1.312,1.312,0,0,1-.531.717A.782.782,0,0,1,235.175,167.69Z" transform="translate(-228.039 -165.413)"/>
        <path id="Path_13007" data-name="Path 13007" class="cls-5" d="M235.162,178.675a.784.784,0,0,1-.665.616,1.143,1.143,0,0,1-.791-.281c-.183-.141-.343-.312-.517-.466h-2.806a1.339,1.339,0,0,0-.354.345,3.2,3.2,0,0,1-.482.6.978.978,0,0,1-1.053.117.884.884,0,0,1-.452-.844,0,0,0,0,0,0,0s.271.557.766.571c.348.011.88-.578,1.166-.929a.694.694,0,0,1,.539-.255h2.431a.692.692,0,0,1,.5.212,1.663,1.663,0,0,0,.67.463A1.912,1.912,0,0,0,235.162,178.675Z" transform="translate(-228.039 -176.31)"/>
      </g>
      <g id="Group_3283" data-name="Group 3283" transform="translate(31.337 0)">
        <path id="Path_13008" data-name="Path 13008" class="cls-11" d="M283.321,80.172a1.111,1.111,0,0,1-.2.343h0a1.127,1.127,0,0,1-1.8-.113,2.273,2.273,0,0,1-.268-.743q-.129-.543-.256-1.085c0-.012,0-.025-.008-.037l-3.326-5.522c-.041-.031-.087-.06-.125-.09q-.414-.339-.829-.677c-.152-.126-.305-.25-.459-.375a.873.873,0,0,1-.391-.548.481.481,0,0,1,.221-.427.574.574,0,0,1,.3-.11.937.937,0,0,1,.728.347.767.767,0,0,1,.9-1.1,1.337,1.337,0,0,1,.738,1.226,4.113,4.113,0,0,0,.215,1.351l.158.263a1.576,1.576,0,0,1,.26.43l2.644,4.389c.06.042.118.085.179.126a4.786,4.786,0,0,1,.7.552,2.823,2.823,0,0,1,.377.431A1.535,1.535,0,0,1,283.321,80.172Z" transform="translate(-275.648 -69.999)"/>
        <path id="Path_13009" data-name="Path 13009" class="cls-5" d="M283.115,85.849a1.127,1.127,0,0,1-1.8-.113,2.273,2.273,0,0,1-.268-.743q-.129-.543-.256-1.085c0-.012,0-.025-.008-.037l-3.326-5.522c-.041-.031-.087-.06-.125-.09q-.414-.339-.829-.677c-.152-.126-.305-.25-.459-.375a.873.873,0,0,1-.391-.548.481.481,0,0,1,.221-.427,1,1,0,0,0,.512.936c.587.367,1.335.954,1.335.954l3.316,5.549s.048,1.688.646,1.952A2,2,0,0,0,283.115,85.849Z" transform="translate(-275.648 -75.333)"/>
      </g>
      <g id="Group_3284" data-name="Group 3284" transform="translate(47.195 3.696)">
        <path id="Path_13010" data-name="Path 13010" class="cls-11" d="M395.474,96.4c-.007.466-.479.767-.894.981a1.317,1.317,0,0,1,.527.051.582.582,0,0,1,.078.038.423.423,0,0,1,.23.356.45.45,0,0,1-.31.383,1.307,1.307,0,0,1-.52.048l-.721-.031c-.259-.012-.523-.01-.784-.027l-3.388.7a3.939,3.939,0,0,0-1.116,1,3.138,3.138,0,0,1-1.353,1.064,1.107,1.107,0,0,1-1.409-.656,1.206,1.206,0,0,1,.432-1.077c.293-.279.656-.476.958-.745a2.16,2.16,0,0,1-1.185-.1.746.746,0,0,1-.378-1c.212-.32.672-.323,1.056-.291l.913.078c.531.047,1.063.107,1.6.138a1.1,1.1,0,0,0,.177-.007l2.914-.6c.344-.235.7-.459,1.054-.668a2.343,2.343,0,0,1,1.234-.42A.886.886,0,0,1,395.474,96.4Z" transform="translate(-385.554 -95.611)"/>
        <path id="Path_13011" data-name="Path 13011" class="cls-5" d="M396.716,108.518a.423.423,0,0,1,.23.356.45.45,0,0,1-.31.383,1.308,1.308,0,0,1-.52.048l-.721-.031c-.259-.012-.523-.01-.784-.027l-3.388.7a3.939,3.939,0,0,0-1.117,1,3.138,3.138,0,0,1-1.353,1.064,1.107,1.107,0,0,1-1.409-.656s1.027.616,1.59.178,1.352-1.518,1.9-1.769a17.834,17.834,0,0,1,3.627-.781,10.392,10.392,0,0,0,1.988.057C396.617,108.951,396.689,108.662,396.716,108.518Z" transform="translate(-387.085 -106.656)"/>
      </g>
      <g id="Group_3285" data-name="Group 3285" transform="translate(0 23.372)">
        <path id="Path_13012" data-name="Path 13012" class="cls-11" d="M65.517,233.719a1.957,1.957,0,0,1-.616.28l-.91.291q-.087.028-.177.052l-2.754,1.972c-.026.038-.051.079-.075.115l-.521.755-.29.417a.755.755,0,0,1-.44.372.469.469,0,0,1-.495-.41.557.557,0,0,1,0-.139.876.876,0,0,1,.25-.506.657.657,0,0,1-1-.7c.1-.423.57-.638,1-.714a3.511,3.511,0,0,0,1.138-.274l.214-.153a1.319,1.319,0,0,1,.351-.251l2.05-1.469c.01-.017.02-.035.029-.052a4.227,4.227,0,0,1,.426-.633,2.38,2.38,0,0,1,.342-.351,1.314,1.314,0,0,1,1.156-.309.961.961,0,0,1,.33.17h0a.977.977,0,0,1,.358.576A.993.993,0,0,1,65.517,233.719Z" transform="translate(-58.466 -231.981)"/>
        <path id="Path_13013" data-name="Path 13013" class="cls-5" d="M70.057,234.955a1.958,1.958,0,0,1-.616.28l-.91.291q-.087.028-.177.052L65.6,237.551c-.026.038-.051.079-.075.115l-.521.755-.29.417a.755.755,0,0,1-.44.372.469.469,0,0,1-.495-.41.556.556,0,0,1,0-.138c.133.162.346.361.538.278.307-.133.952-1.394,1.147-1.527s2.591-1.967,2.776-2.017,1.981-.452,1.977-1.137c-.006-.642-.14-.815-.157-.834a.977.977,0,0,1,.358.576A.993.993,0,0,1,70.057,234.955Z" transform="translate(-63.006 -233.217)"/>
      </g>
    </g>
  </g>
</svg>
