<svg id="b" xmlns="http://www.w3.org/2000/svg" width="48.657" height="61.064" viewBox="0 0 48.657 61.064">
  <defs>
    <style>
      .cls-1 {
        fill: #ddd8ce;
      }

      .cls-2 {
        fill: #ebb088;
      }

      .cls-3 {
        fill: #341a1b;
      }

      .cls-4 {
        fill: #7c7a48;
      }

      .cls-5 {
        fill: #504f2c;
      }

      .cls-6 {
        fill: #fb532c;
      }

      .cls-7 {
        fill: #a62413;
      }

      .cls-8 {
        fill: #fff;
      }

      .cls-9 {
        fill: #9f6f42;
      }

      .cls-10 {
        fill: #83532f;
      }

      .cls-11 {
        fill: #6e3e45;
      }

      .cls-12 {
        fill: #fe812d;
      }

      .cls-13 {
        fill: #ff7d5b;
      }

      .cls-14 {
        fill: #c0905f;
      }

      .cls-15 {
        fill: #d18337;
      }

      .cls-16 {
        fill: #e29d50;
      }

      .cls-17 {
        fill: #ba6129;
      }

      .cls-18 {
        fill: #fb705f;
      }
    </style>
  </defs>
  <g id="c" transform="translate(0 0)">
    <ellipse id="Ellipse_511" data-name="Ellipse 511" class="cls-1" cx="21.105" cy="2.093" rx="21.105" ry="2.093" transform="translate(0 56.878)"/>
    <g id="Group_1335" data-name="Group 1335" transform="translate(3.228)">
      <path id="Path_8210" data-name="Path 8210" class="cls-2" d="M130.679,85.674l.03.238.034.256q.036.259.077.517c.054.345.115.69.18,1.031.133.682.285,1.356.47,1.994.091.319.192.628.3.92a7.279,7.279,0,0,0,.343.8c.059.115.119.22.174.307a1.758,1.758,0,0,0,.141.192c.032.038.048.046.006.022-.01,0-.024-.014-.04-.02l-.014-.006h-.008l-.014-.008-.065-.024a1.017,1.017,0,0,0-.236-.046c-.133,0-.174.018-.159.014a.617.617,0,0,0,.159-.065,3.675,3.675,0,0,0,.612-.412c.228-.18.462-.39.7-.616s.466-.468.7-.719c.46-.5.91-1.043,1.344-1.6.218-.277.432-.561.642-.846.105-.143.208-.285.311-.43l.151-.214.141-.2.026-.038a1.875,1.875,0,0,1,3.108,2.1l-.17.26-.165.246c-.111.163-.222.323-.333.484-.224.321-.452.636-.688.951-.47.628-.959,1.249-1.49,1.857-.266.305-.543.607-.836.906a13.05,13.05,0,0,1-.957.888c-.174.147-.359.291-.561.434a7.037,7.037,0,0,1-.666.42,4.749,4.749,0,0,1-.866.375,3.54,3.54,0,0,1-.569.131,3.237,3.237,0,0,1-.692.032,3.07,3.07,0,0,1-.783-.153c-.065-.022-.131-.048-.2-.073l-.046-.02-.04-.018-.077-.036c-.1-.05-.2-.1-.285-.155a4.008,4.008,0,0,1-.85-.69,5.711,5.711,0,0,1-.551-.684,7.4,7.4,0,0,1-.4-.652,11.2,11.2,0,0,1-.575-1.239c-.161-.4-.3-.8-.422-1.2-.248-.789-.442-1.566-.612-2.343-.085-.388-.161-.777-.232-1.165-.036-.194-.069-.39-.1-.587l-.048-.3-.022-.151-.024-.165a2.087,2.087,0,1,1,4.133-.581.132.132,0,0,0,0,.028l.006.046Z" transform="translate(-104.66 -67.186)"/>
      <path id="Path_8211" data-name="Path 8211" class="cls-3" d="M125.879,69.093a5.734,5.734,0,0,1,1.667,3.288c.386,2.22.529,3.366.529,3.366l-5.11,1.762S119.792,68.869,125.879,69.093Z" transform="translate(-101.158 -55.394)"/>
      <g id="Group_1321" data-name="Group 1321" transform="translate(0 16.988)">
        <path id="Path_8212" data-name="Path 8212" class="cls-4" d="M40.976,112.574H23.568c-8.485,0-8.253-16.495-5.792-22.292a7.085,7.085,0,0,1,5.4-4.541,2.43,2.43,0,0,1,2.848,2.186c.028.325.061.644.1.955.739,6.358,3.021,9.67,5.688,11.474,4.043,2.735,8.973,2,10.749,3.177C45.687,105.6,46.236,112.574,40.976,112.574Z" transform="translate(-16.287 -85.701)"/>
        <g id="Group_1320" data-name="Group 1320" transform="translate(5.401 26.868)">
          <rect id="Rectangle_1744" data-name="Rectangle 1744" class="cls-5" width="0.684" height="16.489" transform="translate(2.307 2.64) rotate(-62.45)"/>
          <rect id="Rectangle_1745" data-name="Rectangle 1745" class="cls-5" width="16.489" height="0.684" transform="translate(2.305 9.666) rotate(-27.55)"/>
          <path id="Path_8213" data-name="Path 8213" class="cls-4" d="M48.2,221.28l-.333,1.875-2.3,12.982a.538.538,0,0,1-.529.444h-.957a.538.538,0,0,1-.529-.63L45.775,223.4l.377-2.121H48.2Z" transform="translate(-43.539 -221.276)"/>
          <path id="Path_8214" data-name="Path 8214" class="cls-5" d="M57.244,221.28l-.331,1.873-2.093.248.377-2.121Z" transform="translate(-52.584 -221.276)"/>
          <path id="Path_8215" data-name="Path 8215" class="cls-4" d="M122.343,236.563h-.957a.538.538,0,0,1-.529-.444l-2.525-14.231-.111-.628h2.047l.069.39,2.533,14.279a.537.537,0,0,1-.529.63Z" transform="translate(-103.418 -221.26)"/>
          <path id="Path_8216" data-name="Path 8216" class="cls-5" d="M120.4,221.988l-1.984.353-.188-1.06h2.047Z" transform="translate(-103.426 -221.276)"/>
        </g>
        <path id="Path_8217" data-name="Path 8217" class="cls-5" d="M55.635,119.494s-11.444.868-13.809-.93-1.994-12.158-.444-16,3.859-2.208,3.859-2.208c.739,6.358,3.021,9.67,5.688,11.474l4.7,7.663Z" transform="translate(-35.41 -97.176)"/>
      </g>
      <g id="Group_1324" data-name="Group 1324" transform="translate(17.236 29.07)">
        <g id="Group_1323" data-name="Group 1323" transform="translate(0 20.229)">
          <path id="Path_8218" data-name="Path 8218" class="cls-2" d="M117.83,248.72l-.86,2.287,2.343,1.257,1.088-2.248Z" transform="translate(-114.251 -248.72)"/>
          <g id="Group_1322" data-name="Group 1322" transform="translate(0 1.635)">
            <path id="Path_8219" data-name="Path 8219" class="cls-6" d="M112.11,265.678l-8.86-4.749a1.447,1.447,0,0,1,.147-.555,16.437,16.437,0,0,1,1.748-2.539q.092-.122.166-.226a3.1,3.1,0,0,0,.192-.293.513.513,0,0,1,.819-.218c.426,1.36,2.147.585,2.507,1.336,0,0,.157.319.521,1.33a12.424,12.424,0,0,0,2.127,3.04c1.021,1.255,1.1,2,.969,2.42A.786.786,0,0,1,112.11,265.678Z" transform="translate(-103.25 -256.971)"/>
            <path id="Path_8220" data-name="Path 8220" class="cls-7" d="M112.11,279.444l-8.86-4.749a1.447,1.447,0,0,1,.147-.555l9.048,4.85a.786.786,0,0,1-.337.454Z" transform="translate(-103.25 -270.737)"/>
            <path id="Path_8221" data-name="Path 8221" class="cls-7" d="M106.744,263.994l-.264-.141a2.2,2.2,0,0,0,1.237-1.163,2.837,2.837,0,0,0,.018-2.273q.092-.122.166-.226a3.076,3.076,0,0,1,.032,2.6,2.442,2.442,0,0,1-1.189,1.2Z" transform="translate(-105.84 -259.552)"/>
            <path id="Path_8222" data-name="Path 8222" class="cls-8" d="M131.509,272.032a.165.165,0,0,1,.121-.305l.626.159a.166.166,0,1,1-.083.321l-.626-.159a.214.214,0,0,1-.038-.014Z" transform="translate(-125.839 -268.798)"/>
            <path id="Path_8223" data-name="Path 8223" class="cls-8" d="M129.979,268.222a.165.165,0,0,1,.121-.305l.626.159a.166.166,0,0,1-.083.321l-.626-.159a.209.209,0,0,1-.038-.014Z" transform="translate(-124.612 -265.743)"/>
            <path id="Path_8224" data-name="Path 8224" class="cls-8" d="M133.429,275.152a.165.165,0,0,1,.121-.305l.626.159a.166.166,0,1,1-.083.321l-.626-.159a.209.209,0,0,1-.038-.014Z" transform="translate(-127.378 -271.299)"/>
            <path id="Path_8225" data-name="Path 8225" class="cls-8" d="M135.389,278.212a.165.165,0,0,1,.121-.305l.626.159a.166.166,0,1,1-.083.321l-.626-.159a.211.211,0,0,1-.038-.014Z" transform="translate(-128.949 -273.753)"/>
            <path id="Path_8226" data-name="Path 8226" class="cls-8" d="M137.659,281.282a.165.165,0,0,1,.121-.305l.626.159a.166.166,0,1,1-.083.321l-.626-.159a.207.207,0,0,1-.038-.014Z" transform="translate(-130.77 -276.215)"/>
            <path id="Path_8227" data-name="Path 8227" class="cls-8" d="M140.3,284.282a.165.165,0,0,1,.121-.305l.626.159a.166.166,0,1,1-.083.321l-.626-.159a.219.219,0,0,1-.038-.014Z" transform="translate(-132.886 -278.62)"/>
          </g>
        </g>
        <path id="Path_8228" data-name="Path 8228" class="cls-9" d="M122.867,150.941c-1.278-1.883-7.611-3.371-12.655-4.281-.858,2.139.414.547-.7,2.561,5.916,2.3,7.451,3.326,7.451,3.326a56.191,56.191,0,0,0-3.149,6.664c-.632,2.061-3.312,7.75-3.312,7.75l4.069,2.25s10.13-15.573,8.3-18.27Z" transform="translate(-108.269 -146.66)"/>
        <path id="Path_8229" data-name="Path 8229" class="cls-10" d="M121.067,245.733a.141.141,0,0,1-.061-.016l-4-2.289a.123.123,0,0,1,.123-.214l4,2.289a.123.123,0,0,1,.046.168A.121.121,0,0,1,121.067,245.733Z" transform="translate(-114.233 -224.063)"/>
        <path id="Path_8230" data-name="Path 8230" class="cls-10" d="M120.867,188.367a.111.111,0,0,1-.061-.018.123.123,0,0,1-.044-.168,32.689,32.689,0,0,0,2.365-5.524,60.627,60.627,0,0,1,4.029-8.457.123.123,0,0,1,.214.123,60.4,60.4,0,0,0-4.01,8.414,32.993,32.993,0,0,1-2.386,5.57A.123.123,0,0,1,120.867,188.367Z" transform="translate(-117.277 -168.691)"/>
      </g>
      <g id="Group_1328" data-name="Group 1328" transform="translate(7.682)">
        <path id="Path_8231" data-name="Path 8231" class="cls-3" d="M55.743,63.422c-.048.317-.091.636-.127.957a61.56,61.56,0,0,0-.519,8.582,13.671,13.671,0,0,0,6.1,2.628q.615.107,1.229.165c.361.034.719.055,1.072.063a11.351,11.351,0,0,0,5.9-1.271c-.083-2.329.131-6.473.258-8.241.024-.331.052-.65.081-.961s.059-.6.093-.888c.038-.329.079-.648.123-.955.048-.331.1-.65.149-.959.055-.329.113-.646.174-.949.821-4.146,2.022-6.017,2.042-7.05.028-1.554-1.354-1.837-2.505-2.579-.067-.044-.135-.087-.2-.135-.044-.032-.087-.063-.131-.1a2.882,2.882,0,0,1-.938-1.209l-3.685-.8a5.355,5.355,0,0,1-.947.335c-.055.016-.113.03-.174.044-.145.034-.305.065-.476.089a7.207,7.207,0,0,1-1.467.063c-1.709-.1-3.042,1.451-3.841,4.259-.4,1.419-.795,2.753-1.144,4.045-.024.085-.046.17-.069.258a42.078,42.078,0,0,0-1,4.614Z" transform="translate(-55.047 -39.864)"/>
        <path id="Path_8232" data-name="Path 8232" class="cls-11" d="M58.941,99.334h-.012a.1.1,0,0,1-.091-.115,88.721,88.721,0,0,1,2.484-14.092.1.1,0,1,1,.2.061,88.7,88.7,0,0,0-2.476,14.055.1.1,0,0,1-.1.091Z" transform="translate(-58.086 -68.195)"/>
        <path id="Path_8233" data-name="Path 8233" class="cls-11" d="M81.3,110.646a11.937,11.937,0,0,1-6.37-2.212A18.437,18.437,0,0,1,71.9,105.9a.1.1,0,0,1,.153-.141,18.344,18.344,0,0,0,3,2.5,11.219,11.219,0,0,0,6.909,2.147.1.1,0,1,1,.018.208c-.226.02-.452.03-.676.03Z" transform="translate(-68.536 -84.773)"/>
        <path id="Path_8234" data-name="Path 8234" class="cls-11" d="M111.628,85a.075.075,0,0,1-.036-.006,7.735,7.735,0,0,1-4.188-4.232.1.1,0,1,1,.194-.071,7.522,7.522,0,0,0,4.063,4.109.1.1,0,0,1-.036.2Z" transform="translate(-97.022 -64.646)"/>
        <g id="Group_1325" data-name="Group 1325" transform="translate(15.567 15.881)">
          <path id="Path_8235" data-name="Path 8235" class="cls-11" d="M133.693,84.694h-.014a.106.106,0,0,1-.091-.117,21.41,21.41,0,0,1,1.374-4.394.1.1,0,0,1,.192.081A21.688,21.688,0,0,0,133.8,84.6.1.1,0,0,1,133.693,84.694Z" transform="translate(-133.587 -80.119)"/>
          <path id="Path_8236" data-name="Path 8236" class="cls-11" d="M138.21,84.132a.108.108,0,0,1-.071-.028.1.1,0,0,1,0-.147l.7-.749a.1.1,0,1,1,.151.143l-.7.749a.1.1,0,0,1-.075.034Z" transform="translate(-137.21 -82.57)"/>
        </g>
        <path id="Path_8237" data-name="Path 8237" class="cls-11" d="M105.4,56.346a1.725,1.725,0,0,1-.224-.016c-1.334-.19-2.585-1.992-2.636-2.067a.1.1,0,0,1,.172-.117c.012.018,1.251,1.8,2.5,1.98a1.24,1.24,0,0,0,.993-.283.1.1,0,1,1,.133.161,1.447,1.447,0,0,1-.932.345Z" transform="translate(-93.111 -43.376)"/>
        <g id="Group_1327" data-name="Group 1327" transform="translate(9.512)">
          <path id="Path_8238" data-name="Path 8238" class="cls-12" d="M104.354,7.57s-1.308.279-1.314-1.34.46-2.137.149-3.457A1.434,1.434,0,0,1,104.707.859c.836.129,1.37-1.108,2.468-.823s2.291-.186,3.021.048.47.88,1.245,1.423a1.064,1.064,0,0,1,.388,1.629c-.337.517-.868-.018-1.031.676s-1,.735-1,.735l-5.441,3.021Z" transform="translate(-103.04 0.006)"/>
          <path id="Path_8239" data-name="Path 8239" class="cls-12" d="M138.5,17.99a1.842,1.842,0,0,1-.351,2.369A13.294,13.294,0,0,1,138.5,17.99Z" transform="translate(-131.191 -14.423)"/>
          <g id="Group_1326" data-name="Group 1326" transform="translate(0.256 6.911)">
            <path id="Path_8240" data-name="Path 8240" class="cls-2" d="M108.35,38.061l-.21.961a3.252,3.252,0,0,1-.392.165,3.531,3.531,0,0,1-3.417-.995l.725-3.332,2.9,2.82.392.383Z" transform="translate(-104.33 -34.86)"/>
            <path id="Path_8241" data-name="Path 8241" d="M114.068,45.01l-.228,1.045a3.252,3.252,0,0,1-.392.165,6.556,6.556,0,0,1-2.008-2.589l2.216,1.082.41.3Z" transform="translate(-110.031 -41.892)"/>
          </g>
          <path id="Path_8242" data-name="Path 8242" class="cls-13" d="M134.2,30.095s.686-.525.854.186-.355,1.966-1.138,1.572Z" transform="translate(-127.799 -23.979)"/>
          <path id="Path_8243" data-name="Path 8243" class="cls-2" d="M112.943,15.363a2.008,2.008,0,0,1-2.5,1.532,5.246,5.246,0,0,1-3.157-2.46h0l.069-.424.355-2.192.19-1.171a2.245,2.245,0,0,1,2.258-2.091,3.9,3.9,0,0,1,3.336,1.479c.016.03.034.059.048.089a1.825,1.825,0,0,1,.178,1.056l-.388,2.1-.1.513-.293,1.576Z" transform="translate(-106.448 -6.858)"/>
          <path id="Path_8244" data-name="Path 8244" class="cls-12" d="M109.34,10.516a1.177,1.177,0,0,1,.422.9h0a.541.541,0,0,0,.65-.454c.024-.18.054-.4.081-.644.085-.737-.063-1.029.48-1.328s.252-.682.718-.866c.511-.2,1.3.717,2.079.807.922.105,1.043-.5,1.572.414a1.847,1.847,0,0,0-.757-1.673c-.89-.6-3.728-1.267-4.582-.091a4.784,4.784,0,0,0-.66,2.937Z" transform="translate(-108.077 -5.558)"/>
          <path id="Path_8245" data-name="Path 8245" d="M119.8,19.271h0a.506.506,0,0,0,.593.392,2.753,2.753,0,0,1,.533-.055.467.467,0,0,0,.468-.492h0a1.986,1.986,0,0,0-1.594.153Z" transform="translate(-116.478 -15.242)"/>
          <path id="Path_8246" data-name="Path 8246" d="M133.651,21.343h0a.478.478,0,0,1-.662.105,2.666,2.666,0,0,0-.434-.256.439.439,0,0,1-.208-.6h0a1.876,1.876,0,0,1,1.306.755Z" transform="translate(-126.498 -16.508)"/>
          <path id="Path_8247" data-name="Path 8247" class="cls-13" d="M118.482,28.886c-.032.145-.355.2-.723.117s-.64-.262-.608-.406.355-.2.723-.117S118.514,28.741,118.482,28.886Z" transform="translate(-114.351 -22.804)"/>
          <path id="Path_8248" data-name="Path 8248" class="cls-13" d="M134.151,32.561c-.052-.006-.107-.016-.163-.028-.367-.079-.64-.262-.608-.406s.355-.2.721-.117c.05.01.1.024.143.038l-.1.513Z" transform="translate(-127.364 -25.634)"/>
          <path id="Path_8249" data-name="Path 8249" d="M123.682,25.152c-.044.2-.168.341-.279.315s-.166-.2-.123-.4.168-.341.279-.315S123.726,24.952,123.682,25.152Z" transform="translate(-119.256 -19.839)"/>
          <path id="Path_8250" data-name="Path 8250" d="M133.752,27.342c-.044.2-.168.341-.279.315s-.167-.2-.123-.4.168-.341.279-.315S133.8,27.142,133.752,27.342Z" transform="translate(-127.33 -21.595)"/>
          <path id="Path_8251" data-name="Path 8251" d="M124.1,33.719a2.156,2.156,0,0,1-1.191-.922.084.084,0,0,1,.145-.085c.03.05.741,1.213,1.78.767a.083.083,0,0,1,.065.153,1.292,1.292,0,0,1-.8.085Z" transform="translate(-118.964 -26.194)"/>
          <path id="Path_8252" data-name="Path 8252" d="M108.1,34.86a1.86,1.86,0,0,1-.823.666h0l.069-.424a1.453,1.453,0,0,0,.755-.24Z" transform="translate(-106.44 -27.949)"/>
          <path id="Path_8253" data-name="Path 8253" class="cls-2" d="M104.639,24.469s-.561-1.241-1.326-.529c-.63.587-.115,2.585.967,2.174l.359-1.647Z" transform="translate(-103.04 -19.017)"/>
          <path id="Path_8254" data-name="Path 8254" d="M106.462,27.916a.085.085,0,0,1-.065-.091,1.4,1.4,0,0,0-.553-1.274.084.084,0,1,1,.1-.139,1.564,1.564,0,0,1,.626,1.429.084.084,0,0,1-.091.075h-.01Z" transform="translate(-105.259 -21.164)"/>
          <path id="Path_8255" data-name="Path 8255" d="M105.533,29.639a.083.083,0,0,1-.02-.157.8.8,0,0,1,.614-.069.084.084,0,0,1-.075.151.658.658,0,0,0-.464.069.079.079,0,0,1-.055.008Z" transform="translate(-104.986 -23.549)"/>
          <path id="Path_8256" data-name="Path 8256" d="M128.105,25.1a.083.083,0,0,1,.036-.163.577.577,0,0,0,.537-.121c-.18-.743-.357-1.49-.357-1.5a.084.084,0,1,1,.163-.04c0,.008.184.785.369,1.542a.092.092,0,0,1-.014.071.715.715,0,0,1-.731.21Z" transform="translate(-123.085 -18.616)"/>
        </g>
      </g>
      <g id="Group_1331" data-name="Group 1331" transform="translate(7.474 30.784)">
        <g id="Group_1330" data-name="Group 1330" transform="translate(18.447 22.243)">
          <path id="Path_8257" data-name="Path 8257" class="cls-2" d="M150.37,267.6l.323,2.422h2.658l-.1-2.493Z" transform="translate(-149.714 -267.53)"/>
          <g id="Group_1329" data-name="Group 1329" transform="translate(0 1.756)">
            <path id="Path_8258" data-name="Path 8258" class="cls-6" d="M157.257,281.324H147.2a1.42,1.42,0,0,1-.133-.559,16.3,16.3,0,0,1,.341-3.062c.016-.1.03-.194.042-.277a3.085,3.085,0,0,0,.03-.349.513.513,0,0,1,.618-.579c1.017,1,2.168-.5,2.842-.008,0,0,.289.208,1.088.926a12.423,12.423,0,0,0,3.31,1.675c1.492.624,1.915,1.247,2,1.675A.786.786,0,0,1,157.257,281.324Z" transform="translate(-147.062 -276.388)"/>
            <path id="Path_8259" data-name="Path 8259" class="cls-7" d="M157.3,299.029H147.243a1.421,1.421,0,0,1-.133-.559h10.267a.786.786,0,0,1-.083.559Z" transform="translate(-147.101 -294.093)"/>
            <path id="Path_8260" data-name="Path 8260" class="cls-7" d="M149.647,285.519h-.3a2.212,2.212,0,0,0,.541-1.609,2.832,2.832,0,0,0-1.058-2.012c.016-.1.03-.194.042-.277a3.078,3.078,0,0,1,1.257,2.277A2.435,2.435,0,0,1,149.647,285.519Z" transform="translate(-148.48 -280.583)"/>
            <path id="Path_8261" data-name="Path 8261" class="cls-8" d="M170.6,282.592a.165.165,0,0,1-.04-.325l.628-.157a.165.165,0,1,1,.079.321l-.628.157a.143.143,0,0,1-.04,0Z" transform="translate(-165.803 -280.972)"/>
            <path id="Path_8262" data-name="Path 8262" class="cls-8" d="M167.451,279.952a.165.165,0,0,1-.04-.325l.628-.157a.165.165,0,0,1,.079.321l-.628.157a.149.149,0,0,1-.04.006Z" transform="translate(-163.277 -278.855)"/>
            <path id="Path_8263" data-name="Path 8263" class="cls-8" d="M173.771,284.432a.165.165,0,0,1-.04-.325l.628-.157a.165.165,0,0,1,.079.321l-.628.157A.14.14,0,0,1,173.771,284.432Z" transform="translate(-168.344 -282.448)"/>
            <path id="Path_8264" data-name="Path 8264" class="cls-8" d="M176.941,286.2a.165.165,0,0,1-.04-.325l.628-.157a.165.165,0,0,1,.079.321l-.628.157a.149.149,0,0,1-.04.006Z" transform="translate(-170.886 -283.867)"/>
            <path id="Path_8265" data-name="Path 8265" class="cls-8" d="M180.391,287.842a.165.165,0,0,1-.04-.325l.628-.157a.165.165,0,1,1,.079.321l-.628.157a.148.148,0,0,1-.04.006Z" transform="translate(-173.652 -285.182)"/>
            <path id="Path_8266" data-name="Path 8266" class="cls-8" d="M184.141,289.242a.165.165,0,0,1-.04-.325l.628-.157a.165.165,0,0,1,.079.321l-.628.157A.14.14,0,0,1,184.141,289.242Z" transform="translate(-176.659 -286.304)"/>
          </g>
        </g>
        <path id="Path_8267" data-name="Path 8267" class="cls-14" d="M54.217,155.806s-2.376,8.128,8.38,8.128a47.787,47.787,0,0,0,8.477-.555s.139,5.074.4,7.215,1.215,7.474,1.215,7.474l4.525.351s.723-18.574-2.051-20.284-6.761-1.762-13.609-2.418c0,0-5.845-.983-7.343.091Z" transform="translate(-53.994 -155.306)"/>
        <path id="Path_8268" data-name="Path 8268" class="cls-9" d="M76.883,177.608a.121.121,0,0,1-.119-.1,63.445,63.445,0,0,1-1.08-9.4c-.085-1.27-.157-2.367-.246-3.2-.121-1.126-.236-1.379-.293-1.431-.258-.228-1.391-.107-2.826.046a38.57,38.57,0,0,1-8.618.166,5.626,5.626,0,0,1-3.982-2.043,7.265,7.265,0,0,1-1.229-4.959.123.123,0,0,1,.244.034,7.147,7.147,0,0,0,1.181,4.775,5.38,5.38,0,0,0,3.813,1.948,38.348,38.348,0,0,0,8.564-.166c1.669-.178,2.678-.285,3.017.016.309.274.426,1.833.622,4.8A63.534,63.534,0,0,0,77,177.456a.124.124,0,0,1-.091.149.157.157,0,0,1-.028,0Z" transform="translate(-57.563 -156.33)"/>
        <path id="Path_8269" data-name="Path 8269" class="cls-9" d="M151.682,262.391h-.008l-4.6-.277a.123.123,0,0,1-.115-.131.121.121,0,0,1,.131-.115l4.6.277a.124.124,0,0,1,.115.131A.122.122,0,0,1,151.682,262.391Z" transform="translate(-128.533 -240.747)"/>
      </g>
      <g id="Group_1332" data-name="Group 1332" transform="translate(25.872 9.981)">
        <path id="Path_8270" data-name="Path 8270" class="cls-15" d="M184.144,103.056a4.283,4.283,0,0,0-.17,2.489c.365,1.136,1.05,2.23,1.106,2.8s.091,1.459-.321,1.679-1.068,0-.969.727.817.636,1.306.638.692-.42,1.128-1.154a2.04,2.04,0,0,0,.4-1.758,2.825,2.825,0,0,1,.563-1.931c.428-.616.313-4.676-3.038-3.5Z" transform="translate(-176.454 -92.438)"/>
        <path id="Path_8271" data-name="Path 8271" class="cls-15" d="M153.61,82.29a4.7,4.7,0,0,0-2.575-.143,7.114,7.114,0,0,0-3.95,1.968c-.7.932.091,1.13,1.066.678s3.508-1.223,4.743-.832,1.7-1.4.716-1.673Z" transform="translate(-146.82 -75.772)"/>
        <path id="Path_8272" data-name="Path 8272" class="cls-16" d="M162.871,57.228a3.6,3.6,0,0,1-3.1-.9,6.275,6.275,0,0,0-1.538-.854.725.725,0,0,1-.321-1.054c.216-.216.83.394,1.645.614a.966.966,0,0,0,1.146-.474c-.44.02-1.282-.618-2-1.009s-.573-.975-.519-1.742a2.03,2.03,0,0,1,.089-.468c.184-.608.6-1.132.906-.957.085.05.21.131.359.234a12.6,12.6,0,0,0,1.592.987,1.823,1.823,0,0,0,.226.085,4.6,4.6,0,0,0,1.175.024,1.024,1.024,0,0,1,.579.182,3.142,3.142,0,0,1,.852,1.1,13.663,13.663,0,0,1,.676,2.2c.091.712-.161,1.7-1.772,2.04Z" transform="translate(-155.619 -50.348)"/>
        <path id="Path_8273" data-name="Path 8273" class="cls-15" d="M171.42,58.1c-.519-.654.091-1.175.48-1.419a1.826,1.826,0,0,0,.226.085,4.6,4.6,0,0,0,1.175.024C173.505,57.495,172.05,58.9,171.42,58.1Z" transform="translate(-166.384 -55.425)"/>
        <path id="Path_8274" data-name="Path 8274" class="cls-3" d="M161.515,50.616a1.266,1.266,0,0,1-1.265.723c.184-.608.6-1.132.906-.957C161.241,50.432,161.366,50.513,161.515,50.616Z" transform="translate(-157.588 -50.348)"/>
        <path id="Path_8275" data-name="Path 8275" class="cls-16" d="M174.154,88.409a5.75,5.75,0,0,1-1.891-.392,12.477,12.477,0,0,1-4.672-3.393,4.892,4.892,0,0,1-1.15-2.111,6.836,6.836,0,0,1,.363-4.1l4.006.573a5.158,5.158,0,0,0,.955,1.229,9.168,9.168,0,0,0,.961.838,22.158,22.158,0,0,1,3.32,2.549,3.4,3.4,0,0,1,.587.93C177.26,86.047,175.9,88.443,174.154,88.409Z" transform="translate(-162.412 -72.848)"/>
        <path id="Path_8276" data-name="Path 8276" class="cls-16" d="M193.474,106.716a4.283,4.283,0,0,0-.17,2.489c.365,1.136,1.05,2.23,1.106,2.8s.091,1.459-.321,1.679-1.068,0-.969.727.817.636,1.306.638.694-.42,1.128-1.154a2.04,2.04,0,0,0,.4-1.758,2.825,2.825,0,0,1,.563-1.931c.428-.616.313-4.676-3.038-3.5Z" transform="translate(-183.934 -95.372)"/>
        <path id="Path_8277" data-name="Path 8277" class="cls-15" d="M196.3,91.553c-.983.414-.88-.7-2.069-.414s-2.18.109-1.835-.672a1.81,1.81,0,0,0-.569-2.04c-.335-.351.01-.706.323-.928a9.168,9.168,0,0,0,.961.838,22.158,22.158,0,0,1,3.32,2.549C196.524,91.224,196.5,91.472,196.3,91.553Z" transform="translate(-182.795 -80.136)"/>
        <path id="Path_8278" data-name="Path 8278" class="cls-15" d="M172.971,104.363a12.477,12.477,0,0,1-4.672-3.393,4.892,4.892,0,0,1-1.15-2.111,3.337,3.337,0,0,1,1.207-.02,3.132,3.132,0,0,1,1.128,1.744A3.825,3.825,0,0,0,171.76,103c.973.525,1.4.916,1.209,1.37Z" transform="translate(-163.12 -89.194)"/>
        <path id="Path_8279" data-name="Path 8279" class="cls-2" d="M162.87,95.022A2.261,2.261,0,0,1,162,92.069a22.02,22.02,0,0,1,1.556-2.684c.589-.747.511.069.426.834s-.305,1.049.381.961,3.181-1.588,3.946-1.556-2.406,1.946-2.406,1.946,2.931-1.165,3.247-.86c.377.367-2.684,1.792-2.684,1.792a12.345,12.345,0,0,1,2.7-.44c.141.379-2.38,1.421-2.38,1.421s1.833-.343,1.762-.016-3.362,1.79-5.677,1.55Z" transform="translate(-158.769 -81.411)"/>
        <path id="Path_8280" data-name="Path 8280" class="cls-16" d="M221.923,97.937a2.659,2.659,0,0,1-1.806,1.272,4.227,4.227,0,0,1-1.976-.117s-.061.293.434.48c0,0-1.639.2-1.936-.723a2.152,2.152,0,0,1,.024-1.55s2.3.186,2.626-.608a.462.462,0,0,1,.04.452,1.752,1.752,0,0,0,.248-.107,1.949,1.949,0,0,0,1.013-2.485s2.559,1.36,1.336,3.387Z" transform="translate(-202.7 -85.789)"/>
        <path id="Path_8281" data-name="Path 8281" class="cls-15" d="M234.309,97.929A2.659,2.659,0,0,1,232.5,99.2a.833.833,0,0,1,.272-.783c.521-.547-.063-.741-.61-1.086a.422.422,0,0,1-.2-.307,1.949,1.949,0,0,0,1.013-2.485s2.559,1.36,1.336,3.387Z" transform="translate(-215.085 -85.781)"/>
        <path id="Path_8282" data-name="Path 8282" class="cls-16" d="M154.076,88.053s-.716-.478-2.287.125A10.123,10.123,0,0,0,147.8,90.6c-.723.912.117,1.189,1.09.737a14.306,14.306,0,0,1,3.982-1.114c1.72-.167,2.194-1.893,1.2-2.166Z" transform="translate(-147.386 -80.436)"/>
        <path id="Path_8283" data-name="Path 8283" class="cls-17" d="M178.035,59.48s-.523.089-.656.87-1.613,2.038-1.3,3.136a2.021,2.021,0,0,0,1.824,1.556c1.011.034,2.109-2.392,1.8-2.842s-.6-2.265-1.667-2.719Z" transform="translate(-170.243 -57.67)"/>
        <path id="Path_8284" data-name="Path 8284" class="cls-18" d="M157.316,69.546a3.748,3.748,0,0,0-1.681-1.11c-.844-.155-1.292.5-1.207.88s.829-.567,1.138-.335a2.488,2.488,0,0,0,1.75.567Z" transform="translate(-152.912 -64.832)"/>
        <path id="Path_8285" data-name="Path 8285" class="cls-3" d="M173.66,59.286c-.18.079-.363.061-.408-.04s.065-.248.246-.327.363-.061.408.04S173.84,59.207,173.66,59.286Z" transform="translate(-168.005 -57.181)"/>
      </g>
      <g id="Group_1334" data-name="Group 1334" transform="translate(11.447 11.424)">
        <path id="Path_8286" data-name="Path 8286" class="cls-2" d="M96.524,73.756l-.165.172-.147.149c-.1.1-.192.192-.291.283-.194.184-.392.363-.595.537-.4.349-.825.682-1.269.995a13.747,13.747,0,0,1-1.415.88,10.9,10.9,0,0,1-1.615.712,8.235,8.235,0,0,1-1.881.412,6.647,6.647,0,0,1-2.123-.139,6.288,6.288,0,0,1-1.056-.351c-.085-.038-.168-.077-.252-.117a1.191,1.191,0,0,1-.113-.057l-.105-.056c-.143-.073-.277-.153-.414-.232A10.317,10.317,0,0,1,83.6,75.867a13.865,13.865,0,0,1-2.262-2.555,20.66,20.66,0,0,1-1.617-2.773c-.232-.472-.446-.945-.646-1.425s-.388-.959-.561-1.445-.333-.973-.484-1.467c-.075-.248-.147-.5-.214-.747-.034-.127-.067-.254-.1-.383l-.05-.2-.024-.1-.028-.123a2.49,2.49,0,1,1,4.858-1.1l0,.018.01.05.026.121.034.149.075.307c.054.206.107.416.166.624q.175.627.381,1.247a25.548,25.548,0,0,0,.928,2.408,17.5,17.5,0,0,0,1.171,2.188A9.722,9.722,0,0,0,86.7,72.43a6.036,6.036,0,0,0,.787.638c.067.042.135.089.2.127l.052.03.044.026.067.04a1.581,1.581,0,0,0,.285.121,2.152,2.152,0,0,0,.7.1,3.859,3.859,0,0,0,.906-.135,6.864,6.864,0,0,0,1.019-.363,10.213,10.213,0,0,0,1.05-.545c.349-.208.7-.432,1.037-.676.168-.121.337-.246.5-.375.081-.063.163-.127.24-.19l.115-.1.054-.046.024-.02s.018-.016.014-.01a1.92,1.92,0,0,1,2.727,2.7Z" transform="translate(-76.86 -60.819)"/>
        <path id="Path_8287" data-name="Path 8287" class="cls-3" d="M76.43,57.738A3.021,3.021,0,0,0,74.052,61.1a16.771,16.771,0,0,0,1.483,5.488L81.1,64.372s-.706-2.983-1.015-4.026-1.455-3.225-3.655-2.61Z" transform="translate(-74.04 -57.629)"/>
        <g id="Group_1333" data-name="Group 1333" transform="translate(8.996 12.411)">
          <path id="Path_8288" data-name="Path 8288" class="cls-13" d="M119.53,121.5a.1.1,0,0,1-.075-.034.1.1,0,0,1,0-.147,6.308,6.308,0,0,1,1.869-1.066.1.1,0,1,1,.069.2,6.192,6.192,0,0,0-1.8,1.023.108.108,0,0,1-.071.028Z" transform="translate(-119.426 -120.248)"/>
          <path id="Path_8289" data-name="Path 8289" class="cls-13" d="M123.048,121.006h-.012a3.849,3.849,0,0,0-.953-.022.1.1,0,0,1-.117-.089.1.1,0,0,1,.089-.117,4.053,4.053,0,0,1,1,.02.1.1,0,0,1,.089.115.1.1,0,0,1-.1.091Z" transform="translate(-121.462 -120.655)"/>
        </g>
      </g>
    </g>
  </g>
</svg>
