<svg id="b" xmlns="http://www.w3.org/2000/svg" width="48.089" height="86.445" viewBox="0 0 48.089 86.445">
  <defs>
    <style>
      .cls-1 {
        fill: #472948;
      }

      .cls-2 {
        fill: #654059;
      }

      .cls-3 {
        fill: #454f6b;
      }

      .cls-4 {
        fill: #422c4f;
      }

      .cls-5 {
        fill: #eba7ac;
      }

      .cls-6 {
        fill: #e68799;
      }

      .cls-7 {
        fill: #bd6c67;
      }

      .cls-8 {
        fill: #a64f5a;
      }

      .cls-9 {
        fill: #fff;
      }

      .cls-10 {
        fill: #e4e4e0;
      }

      .cls-11 {
        fill: none;
      }

      .cls-12 {
        fill: #ceb49d;
      }

      .cls-13 {
        fill: #967f92;
      }

      .cls-14 {
        fill: #645b79;
      }

      .cls-15 {
        fill: #59395b;
      }
    </style>
  </defs>
  <g id="c" transform="translate(0 0)">
    <g id="Group_1355" data-name="Group 1355">
      <g id="Group_1338" data-name="Group 1338" transform="translate(10.162)">
        <g id="Group_1336" data-name="Group 1336" transform="translate(6.855)">
          <path id="Path_8290" data-name="Path 8290" class="cls-1" d="M81.684,4.233A4.719,4.719,0,0,1,84.226.606,5,5,0,0,1,89.7,1.07a4.424,4.424,0,0,1,1.448,4.04,4.423,4.423,0,0,1-2.736,3.307c-1.606.608-3.019-.023-4.524-.556a3.571,3.571,0,0,1-2.2-3.628Z" transform="translate(-81.671 -0.007)"/>
          <path id="Path_8291" data-name="Path 8291" class="cls-2" d="M90.915,1.07A5.043,5.043,0,0,0,83.21,3.014a5.621,5.621,0,0,1,2.267-1.681,5.113,5.113,0,0,1,5.042.746,4.584,4.584,0,0,1,1.6,3.871,4.211,4.211,0,0,0,.244-.84,4.425,4.425,0,0,0-1.448-4.04Z" transform="translate(-82.889 -0.007)"/>
        </g>
        <g id="Group_1337" data-name="Group 1337" transform="translate(0 6.184)">
          <path id="Path_8292" data-name="Path 8292" class="cls-1" d="M73.852,49.7a9.163,9.163,0,0,1-2.463-3.017,15.648,15.648,0,0,1-.969-2.282l-.05-.321c-.544-3.636-1.013-7.488-3.244-10.412a10.118,10.118,0,1,0-15.79,12.648,5.224,5.224,0,0,1,.888,1.534c.01.2.015.4.01.6a8.329,8.329,0,0,1-1.759,5.028,9.271,9.271,0,0,1-1.706,1.694,6.992,6.992,0,0,0,1.9-1.534,7.4,7.4,0,0,0,1.415-2.419,7.5,7.5,0,0,0,.41-2.411,11.667,11.667,0,0,1-1.846,7.868C58.5,55.9,66.589,54.888,74.434,54.1a12.15,12.15,0,0,1-3.19-5.726,7.841,7.841,0,0,0,.5.608,7.074,7.074,0,0,0,1.677,1.363,6.115,6.115,0,0,0,1.875.721,4.917,4.917,0,0,0,1.773.04A7.039,7.039,0,0,1,73.852,49.7Z" transform="translate(-48.77 -29.697)"/>
          <path id="Path_8293" data-name="Path 8293" class="cls-2" d="M51.825,35.1a10.027,10.027,0,0,1,16.356-.008c1.629,2.294,2.194,5.094,2.867,7.857-.492-3.292-1.075-6.663-3.077-9.287a10.119,10.119,0,0,0-17.5,2.538,10.16,10.16,0,0,0-.448,5.484,10.2,10.2,0,0,1,1.8-6.586Z" transform="translate(-49.617 -29.689)"/>
        </g>
      </g>
      <g id="Group_1339" data-name="Group 1339" transform="translate(13.218 67.691)">
        <path id="Path_8294" data-name="Path 8294" class="cls-3" d="M64.53,343.635l-.967-7.57a15.254,15.254,0,0,1,1.361-8.493l.819-1.719,28.268-.973,1.067,1.74a14.225,14.225,0,0,1,1.577,11.237l-1.6,5.776H64.53Z" transform="translate(-63.44 -324.88)"/>
        <path id="Path_8295" data-name="Path 8295" class="cls-4" d="M91.373,331.52a63.413,63.413,0,0,0,7.911-3.98c-.158-.3-.323-.606-.5-.9l-1.067-1.74-28.268.973-.819,1.719q-.281.591-.508,1.2c4.073,2.352,8.739,4.392,13.414,4.613a23.822,23.822,0,0,0,9.837-1.884Z" transform="translate(-67.145 -324.896)"/>
        <path id="Path_8296" data-name="Path 8296" class="cls-4" d="M103,370.88l5.378,1.723a5.835,5.835,0,0,0,3.84-.1l6.93-2.615-6.595,3.744a2.08,2.08,0,0,0-1.042,1.588l-.435,4.044H109.93l-.158-3.819a2.087,2.087,0,0,0-1.156-1.781Z" transform="translate(-94.757 -360.512)"/>
      </g>
      <g id="Group_1341" data-name="Group 1341" transform="translate(13.303 29.075)">
        <path id="Path_8297" data-name="Path 8297" class="cls-5" d="M95.848,179.239l-2.923-5.3A19.554,19.554,0,0,1,90.57,166.2l-2.321-26.6-4-.054a8.384,8.384,0,0,1-15.508,1.65l-2.673.365a17.512,17.512,0,0,1-.115,9.037c-.427,1.552-1.079,3.032-1.546,4.573a9.627,9.627,0,0,0-.413,4.757,5.379,5.379,0,0,0,1.161,2.375,8.708,8.708,0,0,1,2.127,4.73l.273,2.519a15.284,15.284,0,0,1-1.34,8.1l-1.467,3.152c3.969,2.329,8.555,4.388,13.152,4.607a22.727,22.727,0,0,0,9.385-1.8,68.059,68.059,0,0,0,8.566-4.378Z" transform="translate(-63.844 -139.55)"/>
        <path id="Path_8298" data-name="Path 8298" class="cls-6" d="M169.863,165.733c.171.917,1.886,2.423,3.592,3.723l-1.1-12.627c-2.907,2.3-2.838,7.028-2.49,8.9Z" transform="translate(-147.64 -153.23)"/>
        <g id="Group_1340" data-name="Group 1340" transform="translate(6.35 38.011)">
          <path id="Path_8299" data-name="Path 8299" class="cls-6" d="M114.466,331.984a36.871,36.871,0,0,1-4.594,1.6,29.508,29.508,0,0,1-10.756.9,36.457,36.457,0,0,1-4.8-.815,15.783,15.783,0,0,0,4.626,1.846,18.626,18.626,0,0,0,11.264-.942,15.757,15.757,0,0,0,4.257-2.588Z" transform="translate(-94.32 -329.896)"/>
          <path id="Path_8300" data-name="Path 8300" class="cls-6" d="M141.582,321.98c-.775.277-1.654.592-2.6.879s-1.954.554-2.977.767-2.054.365-3.038.473-1.915.167-2.736.219a12,12,0,0,0,2.761.369,14.348,14.348,0,0,0,6.2-1.275,11.963,11.963,0,0,0,2.392-1.429Z" transform="translate(-122.748 -321.98)"/>
        </g>
        <path id="Path_8301" data-name="Path 8301" class="cls-6" d="M108.353,160.16a13.115,13.115,0,0,1-2.982,1.911,10.942,10.942,0,0,1-7.639.627,13.04,13.04,0,0,1-3.253-1.4,8.132,8.132,0,0,0,3,2.127,8.962,8.962,0,0,0,8.257-.677,8.137,8.137,0,0,0,2.615-2.588Z" transform="translate(-88.097 -155.866)"/>
        <path id="Path_8302" data-name="Path 8302" class="cls-6" d="M103.581,265.231l-.052-.586a181.388,181.388,0,0,0-23.249,1.346c0,.025.006.048.01.073l.273,2.519a15.309,15.309,0,0,1-.238,4.778l6.79-4.8a5.464,5.464,0,0,0,.163,2.48,3.116,3.116,0,0,0,1.452,1.9,2.237,2.237,0,0,0,2.325-.094,2.572,2.572,0,0,0,.921-1.509,5.514,5.514,0,0,0,.131-1.125,3.284,3.284,0,0,1,.006-.671c0,.223,0,.448-.006.671a10.573,10.573,0,0,0,.254,1.4,2.138,2.138,0,0,0,1.242,1.594,2.166,2.166,0,0,0,2.4-1,6.338,6.338,0,0,0,.794-2.663l7.553-.321a19.606,19.606,0,0,1-.773-3.992Z" transform="translate(-76.855 -238.578)"/>
      </g>
      <path id="Path_8303" data-name="Path 8303" class="cls-7" d="M43.8,208.89H36.923l-1.811,12.42c-.027.188-.044.375-.052.56l7.176-2.042Z" transform="translate(-27.755 -165.367)"/>
      <g id="Group_1342" data-name="Group 1342" transform="translate(18.198 21.691)">
        <path id="Path_8304" data-name="Path 8304" class="cls-7" d="M95.845,117.572a8.7,8.7,0,0,0,7-6.078l-5.038-.067-2.169-7.318-5.986,5.026,1.125,3.542-3.438.469a8.69,8.69,0,0,0,8.507,4.428Z" transform="translate(-87.34 -104.11)"/>
        <path id="Path_8305" data-name="Path 8305" class="cls-1" d="M98.44,109.134l.588,1.85c3.542,1.675,6.12-1.919,5.4-6.874l-5.986,5.026Z" transform="translate(-96.127 -104.11)"/>
      </g>
      <g id="Group_1344" data-name="Group 1344" transform="translate(12.004 12.196)">
        <path id="Path_8306" data-name="Path 8306" class="cls-8" d="M62.077,107.617a7.323,7.323,0,0,1-1.865.183,2.5,2.5,0,0,1-1.681-.733,1.515,1.515,0,0,1-.246-1.738,1.275,1.275,0,0,1,1.636-.45,8.8,8.8,0,0,0,2.154,2.736Z" transform="translate(-58.005 -95.117)"/>
        <path id="Path_8307" data-name="Path 8307" class="cls-7" d="M72.71,66.894c-.225,1.915-.51,3.967-1.815,5.386a5.6,5.6,0,0,1-5.167,1.5A8.983,8.983,0,0,1,61,70.909a13.057,13.057,0,0,1-3.371-9.47,14.79,14.79,0,0,1,9.851-2.857,5.85,5.85,0,0,0,1.033,3.371,5.4,5.4,0,0,0,2.625,2.132,1.8,1.8,0,0,0,.248,1.281,1.891,1.891,0,0,0,1.017.875,3.142,3.142,0,0,1,.438-1.788,2.169,2.169,0,0,1,1.534-1.086,1.609,1.609,0,0,1,1.634.806,2.241,2.241,0,0,1-.3,2.094,2.816,2.816,0,0,1-1.313,1.219,1.6,1.6,0,0,1-1.684-.594Z" transform="translate(-57.61 -58.54)"/>
        <path id="Path_8308" data-name="Path 8308" class="cls-8" d="M135.019,85.035a1.323,1.323,0,0,0-1.277.379,2.1,2.1,0,0,0-.542,1.263,1.107,1.107,0,0,0,.052.542.494.494,0,0,0,.413.317c.244.008.431-.213.54-.429a1.069,1.069,0,0,0,.129-.675.545.545,0,0,0-.471-.45,1.7,1.7,0,0,1,1.156-.944Z" transform="translate(-117.441 -79.48)"/>
        <path id="Path_8309" data-name="Path 8309" class="cls-1" d="M91.426,71.837a1.981,1.981,0,0,0-3.646.475C88.874,72.183,90.335,71.964,91.426,71.837Z" transform="translate(-81.494 -68.266)"/>
        <path id="Path_8310" data-name="Path 8310" class="cls-1" d="M62.9,80.028a2.662,2.662,0,0,0-.475-.527.91.91,0,0,0-.661-.213.925.925,0,0,0-.713.736,2.708,2.708,0,0,0,.04,1.081c.521-.313,1.286-.765,1.806-1.077Z" transform="translate(-60.305 -74.96)"/>
        <circle id="Ellipse_512" data-name="Ellipse 512" class="cls-1" cx="0.717" cy="0.717" r="0.717" transform="translate(7.791 5.724)"/>
        <path id="Path_8311" data-name="Path 8311" class="cls-1" d="M68.723,94.385a.643.643,0,0,1-.335.819c-.279.067-.579-.19-.673-.575a.643.643,0,0,1,.335-.819C68.329,93.743,68.629,94,68.723,94.385Z" transform="translate(-65.587 -86.453)"/>
        <path id="Path_8312" data-name="Path 8312" class="cls-8" d="M83.663,105.95a16.951,16.951,0,0,1-3.223,1.115,2.5,2.5,0,0,0,1.815.181A2.744,2.744,0,0,0,83.663,105.95Z" transform="translate(-75.683 -96.072)"/>
        <path id="Path_8313" data-name="Path 8313" class="cls-9" d="M94.708,105.38a22.779,22.779,0,0,1-5.438,2.694,3.108,3.108,0,0,0,3.238.008A6.472,6.472,0,0,0,94.708,105.38Z" transform="translate(-82.673 -95.62)"/>
        <path id="Path_8314" data-name="Path 8314" class="cls-8" d="M102.551,117.44a4.428,4.428,0,0,1-2.721,1.488,2.032,2.032,0,0,0,1.7.01,2.307,2.307,0,0,0,1.023-1.5Z" transform="translate(-91.033 -105.168)"/>
        <g id="Group_1343" data-name="Group 1343" transform="translate(15.846 8.632)">
          <path id="Path_8315" data-name="Path 8315" class="cls-10" d="M134.981,100.631a.661.661,0,1,1-.661-.661A.661.661,0,0,1,134.981,100.631Z" transform="translate(-133.66 -99.97)"/>
          <path id="Path_8316" data-name="Path 8316" class="cls-9" d="M135.318,101.7a.279.279,0,1,1-.279-.279A.279.279,0,0,1,135.318,101.7Z" transform="translate(-134.531 -101.118)"/>
        </g>
        <path id="Path_8317" data-name="Path 8317" class="cls-8" d="M104.2,92.306c.175.425-.356,1.048-1.188,1.39s-1.648.273-1.823-.152.356-1.048,1.188-1.39S104.029,91.881,104.2,92.306Z" transform="translate(-92.086 -84.978)"/>
        <path id="Path_8318" data-name="Path 8318" class="cls-8" d="M69.849,104.052a.775.775,0,1,1-.921-.665A.8.8,0,0,1,69.849,104.052Z" transform="translate(-66.086 -94.032)"/>
      </g>
      <path id="Path_8319" data-name="Path 8319" class="cls-5" d="M48.376,149.22h0a6.342,6.342,0,0,0-5.355,5.009L41.5,161.653h8.114C49.614,150.541,48.376,149.22,48.376,149.22Z" transform="translate(-32.853 -118.13)"/>
      <path id="Path_8320" data-name="Path 8320" class="cls-11" d="M180.315,235.17c-.156.108-.313.217-.465.333C180.006,235.4,180.16,235.285,180.315,235.17Z" transform="translate(-142.376 -186.171)"/>
      <g id="Group_1345" data-name="Group 1345" transform="translate(22.188 40.814)">
        <path id="Path_8321" data-name="Path 8321" class="cls-7" d="M130.4,195.89l1.915,10.358a5.36,5.36,0,0,1-5.134,6.334l-20.671.533,10.9-6.528,6.476-1.038L123.143,197l7.259-1.115Z" transform="translate(-106.506 -195.89)"/>
        <path id="Path_8322" data-name="Path 8322" class="cls-8" d="M120.036,209.9a1.736,1.736,0,0,0-.765,1.167,1.246,1.246,0,0,0,.523,1.046,2.411,2.411,0,0,0,1.5.267c1.821-.081,3.765-.317,5.151-1.5a4.506,4.506,0,0,0-1.054-7.52l-.227-2.117a19.093,19.093,0,0,0,5.878-1.817l-.654-3.536L123.123,197l.746,8.545-6.476,1.038-10.9,6.528,2.709-.071,7.866-3.455a11.227,11.227,0,0,0,2.969.313Z" transform="translate(-106.49 -195.89)"/>
      </g>
      <g id="Group_1346" data-name="Group 1346" transform="translate(24.888 57.858)">
        <path id="Path_8323" data-name="Path 8323" class="cls-12" d="M119.591,288.9c-.033.16-.065.323-.092.49a2.559,2.559,0,0,0,.092,1.4,1.734,1.734,0,0,0,1.486,1.011,2.029,2.029,0,0,0,1.654-.771,3.27,3.27,0,0,0,.6-1.844,6.475,6.475,0,0,0-3.744-.283Z" transform="translate(-119.446 -286.438)"/>
        <path id="Path_8324" data-name="Path 8324" class="cls-13" d="M121.19,277.771a5.639,5.639,0,0,0-1.05,2.377,6.493,6.493,0,0,1,3.744.283,6.95,6.95,0,0,1,.467-2.742Z" transform="translate(-119.995 -277.69)"/>
      </g>
      <g id="Group_1347" data-name="Group 1347" transform="translate(29.653 57.733)">
        <path id="Path_8325" data-name="Path 8325" class="cls-12" d="M142.444,288.651c-.029.133-.054.267-.075.4a2.56,2.56,0,0,0,.092,1.4,1.735,1.735,0,0,0,1.486,1.011,2.029,2.029,0,0,0,1.654-.771,3.772,3.772,0,0,0,.648-2.134,6.594,6.594,0,0,0-3.8.094Z" transform="translate(-142.316 -285.979)"/>
        <path id="Path_8326" data-name="Path 8326" class="cls-13" d="M144.091,277.171a6.424,6.424,0,0,0-1.161,2.592,6.594,6.594,0,0,1,3.8-.094,6.618,6.618,0,0,1,.483-2.579Z" transform="translate(-142.802 -277.09)"/>
      </g>
      <path id="Path_8327" data-name="Path 8327" class="cls-5" d="M175.289,139.81l1.469.019a5.863,5.863,0,0,1,5.482,4.007l3.057,9.17c-3.282,1.979-9.56,2.071-9.56,2.071l-1.448-5.069a12.909,12.909,0,0,1,.129-7.507l.871-2.69Z" transform="translate(-137.582 -110.681)"/>
      <g id="Group_1353" data-name="Group 1353" transform="translate(0 31.476)">
        <g id="Group_1349" data-name="Group 1349" transform="translate(34.523 16.029)">
          <path id="Path_8328" data-name="Path 8328" class="cls-13" d="M187.689,231.838A4.651,4.651,0,0,0,185.668,228l-.683.469a3.621,3.621,0,0,1,.8,3.267,3.448,3.448,0,0,1-2.321,2.317,4.735,4.735,0,0,1-.888.152,3.784,3.784,0,0,1,1.215,2.646,5.946,5.946,0,0,0,2.265-1.181,4.846,4.846,0,0,0,1.631-3.832Z" transform="translate(-179.061 -228)"/>
          <path id="Path_8329" data-name="Path 8329" class="cls-14" d="M169.208,257.78c-.379.035-.76.048-1.14.083a3.148,3.148,0,0,0-1.884.694,1.412,1.412,0,0,0-.256,1.84,2.1,2.1,0,0,0,1.846.471,13.243,13.243,0,0,0,2.648-.442A3.772,3.772,0,0,0,169.208,257.78Z" transform="translate(-165.689 -251.575)"/>
          <g id="Group_1348" data-name="Group 1348" transform="translate(5.901 1.869)">
            <path id="Path_8330" data-name="Path 8330" class="cls-14" d="M198.323,237.645a1.148,1.148,0,0,0-.681-.675,3.371,3.371,0,0,1,.038,1.867c-.023.079-.05.158-.079.235a.954.954,0,0,0,.323-.15A1.151,1.151,0,0,0,198.323,237.645Z" transform="translate(-196.852 -236.97)"/>
            <path id="Path_8331" data-name="Path 8331" class="cls-14" d="M195.807,252.279a6.118,6.118,0,0,1-.217.642c-.208.383-.669.56-.929.911a1.1,1.1,0,0,0-.1,1.075,5.144,5.144,0,0,0,.9-.625,4.845,4.845,0,0,0,1.561-2.773A1.294,1.294,0,0,0,195.807,252.279Z" transform="translate(-194.374 -248.479)"/>
            <path id="Path_8332" data-name="Path 8332" class="cls-14" d="M194.34,252.937a.613.613,0,0,0,.217-.1c.2-.138.965-.979.461-1.136-.4-.123-.883.475-.979.779a.381.381,0,0,0,.073.423.29.29,0,0,0,.231.04Z" transform="translate(-194.008 -248.616)"/>
          </g>
        </g>
        <g id="Group_1352" data-name="Group 1352">
          <g id="Group_1350" data-name="Group 1350" transform="translate(6.384 12.46)">
            <path id="Path_8333" data-name="Path 8333" class="cls-12" d="M32,249.09a4.4,4.4,0,0,0-.679.627,2.561,2.561,0,0,0-.669,1.854,1.647,1.647,0,0,0,1.2,1.463,1.881,1.881,0,0,0,1.323-.277,7.127,7.127,0,0,0,1.079-.863c.188-.165.379-.325.573-.481A4.4,4.4,0,0,0,32,249.09Z" transform="translate(-30.64 -241.126)"/>
            <path id="Path_8334" data-name="Path 8334" class="cls-13" d="M45.02,210.87a9.563,9.563,0,0,0-2.209,5.4,18.487,18.487,0,0,0-4.738,1.969,8.4,8.4,0,0,0-.923.6,4.409,4.409,0,0,1,2.83,2.323,16.785,16.785,0,0,1,5.676-3.013,14.869,14.869,0,0,0-.633-7.276Z" transform="translate(-35.793 -210.87)"/>
            <path id="Path_8335" data-name="Path 8335" class="cls-14" d="M60.488,210.87a9.563,9.563,0,0,0-2.209,5.4,14.067,14.067,0,0,0-1.59.488,1.357,1.357,0,0,0,1.267,1.377,1.11,1.11,0,0,1,.913.688c.023.054.04.108.06.163a16.367,16.367,0,0,1,2.19-.84,14.868,14.868,0,0,0-.633-7.276Z" transform="translate(-51.262 -210.87)"/>
          </g>
          <path id="Path_8336" data-name="Path 8336" class="cls-1" d="M27.348,199.349a8.962,8.962,0,0,0-.617,1.138,1.819,1.819,0,0,0-.083,1.265,1.77,1.77,0,0,0,1.163,1.008,3.2,3.2,0,0,0,2.7-.44,4.691,4.691,0,0,0,1.7-2.207,9.034,9.034,0,0,0,.55-2.763,1.535,1.535,0,0,0-.131-.89,1.511,1.511,0,0,0-1.29-.529,12.335,12.335,0,0,0-1.754.046c-.406.04-1.046-.031-1.171.415a12.2,12.2,0,0,1-1.063,2.957Z" transform="translate(-21.033 -186.575)"/>
          <path id="Path_8337" data-name="Path 8337" class="cls-13" d="M21.907,172.618a25.872,25.872,0,0,1-3.286-3.7,8.271,8.271,0,0,1-1.381-4.571,37.2,37.2,0,0,0-2.946-2.788,1.074,1.074,0,0,0-.9-.152,5.376,5.376,0,0,0-.877.331,5.554,5.554,0,0,1-4.321-.2,2.989,2.989,0,0,1-3.225-.26,7.966,7.966,0,0,1-1.984-2.8c1.442-.883,2.927-1.921,4.369-2.8a4.864,4.864,0,0,1,3.615-4.478,4.866,4.866,0,0,1,5.259,2.338,10.189,10.189,0,0,0,4.624,4.628,14.527,14.527,0,0,0,7.045.754c2.375-.219,4.736-.677,7.124-.673a10.607,10.607,0,0,1,6.72,2.027A6.392,6.392,0,0,1,43.5,167.1l-3.655,2.509-8.17.229-9.766,2.78Z" transform="translate(-2.367 -151.071)"/>
          <g id="Group_1351" data-name="Group 1351" transform="translate(20.051 7.165)">
            <path id="Path_8338" data-name="Path 8338" class="cls-14" d="M96.431,188.1c.4.658,1.284.792,1.959,1.165a6.248,6.248,0,0,1,1.979,2.242,4.31,4.31,0,0,0,2.192,1.988,3.376,3.376,0,0,0,3.086-.975,23.968,23.968,0,0,0,2.136-2.617,4.609,4.609,0,0,1,2.755-1.825,10.681,10.681,0,0,0,1.638-.154,1.9,1.9,0,0,0,1.3-1.5c.006-.048.008-.1.01-.144a12.5,12.5,0,0,0-4.644-.819c-2.386,0-4.746.454-7.124.673a17.859,17.859,0,0,1-4.99-.135,3.123,3.123,0,0,0-.342.623,1.673,1.673,0,0,0,.048,1.475Z" transform="translate(-96.233 -185.46)"/>
            <path id="Path_8339" data-name="Path 8339" class="cls-14" d="M98.545,209.687a1.246,1.246,0,0,0,.225.892,3.241,3.241,0,0,0,.658.671,1.4,1.4,0,0,0,1.011.433.891.891,0,0,0,.7-.723,1.45,1.45,0,0,0-.238-1.023c-.44-.7-2.115-1.631-2.357-.25Z" transform="translate(-98.052 -204.076)"/>
          </g>
          <path id="Path_8340" data-name="Path 8340" class="cls-14" d="M102.628,202.99a3.327,3.327,0,0,1-.279,2.4,3.616,3.616,0,0,1-3.14,1.819c.423-.617.894-1.329,1.317-1.946a16.4,16.4,0,0,0-5.207,2.294c.135-.658.238-1.49.373-2.146a12.719,12.719,0,0,0-4.971,5.011L84.278,212.1a2.068,2.068,0,0,1-2.232-.819,2.993,2.993,0,0,1-.55-1.952l-3.246.769a26.412,26.412,0,0,0,3.232,3.625l9.766-2.78,8.17-.229,3.655-2.509a6.4,6.4,0,0,0-.448-5.211Z" transform="translate(-61.946 -192.172)"/>
          <ellipse id="Ellipse_513" data-name="Ellipse 513" class="cls-1" cx="1.067" cy="0.717" rx="1.067" ry="0.717" transform="translate(0 6.811)"/>
          <circle id="Ellipse_514" data-name="Ellipse 514" class="cls-1" cx="0.742" cy="0.742" r="0.742" transform="translate(7.632 3.244)"/>
          <path id="Path_8341" data-name="Path 8341" class="cls-1" d="M27.97,194.11a22.749,22.749,0,0,0,2.546-1.89A2.67,2.67,0,0,1,27.97,194.11Z" transform="translate(-22.142 -183.646)"/>
          <path id="Path_8342" data-name="Path 8342" class="cls-15" d="M47.25,159.514a15.921,15.921,0,0,1,.321,2.95,10.852,10.852,0,0,1-1.463,3.8,4.935,4.935,0,0,0-.538,3.938,3.261,3.261,0,0,0,3.144,1.875,4.352,4.352,0,0,0,3.248-1.913,6.633,6.633,0,0,0,1.09-3.688,14.322,14.322,0,0,0-.565-3.851,12.045,12.045,0,0,0-1.419-3.542,4.96,4.96,0,0,0-2.638-2.215c-1.3-.288-1.277,1.817-1.181,2.648Z" transform="translate(-35.896 -155.639)"/>
        </g>
      </g>
      <path id="Path_8343" data-name="Path 8343" class="cls-7" d="M68.7,215.911c.188-.221.367-.552.185-.777a.44.44,0,0,0-.41-.131,1.222,1.222,0,0,0-.415.171c-.8.452-1.609.923-2.367,1.454-.152.113-.306.225-.465.333.15-.115.308-.223.465-.333a17.267,17.267,0,0,0,2.619-2.39,1.46,1.46,0,0,0,.3-.44.511.511,0,0,0-.06-.506.518.518,0,0,0-.5-.14,1.542,1.542,0,0,0-.488.223c-1.069.652-2.188,1.25-3.257,1.9l2.475-2.359c.252-.242.531-.579.36-.9a.526.526,0,0,0-.413-.26,1.329,1.329,0,0,0-.825.275,35.82,35.82,0,0,0-4.79,3.361l.754-2.115a3.87,3.87,0,0,0,.219-1.077.365.365,0,0,0-.623-.279,26.085,26.085,0,0,0-4.407,5.957l-14.823,4.219h0l-7.176,2.042a5.936,5.936,0,0,0,1.727,4.49h0a5.932,5.932,0,0,0,6.98,1.044L59.9,221.1a12.155,12.155,0,0,0,8.014-2.859,1.01,1.01,0,0,0,.3-.377.374.374,0,0,0-.108-.438c-.154-.1-.358-.021-.525.058-.583.281-1.321.527-1.9.808a9.64,9.64,0,0,0,3.027-2.386Z" transform="translate(-27.75 -167.63)"/>
      <g id="Group_1354" data-name="Group 1354" transform="translate(10.468 47.04)">
        <path id="Path_8344" data-name="Path 8344" class="cls-12" d="M53.1,263.951a4.819,4.819,0,0,0-2.307-.321c-.052.1-.1.2-.148.3a3.293,3.293,0,0,0-.263,2.463,2.076,2.076,0,0,0,3.288.848,5.381,5.381,0,0,0,1.186-2.052,4.817,4.817,0,0,0-1.756-1.242Z" transform="translate(-50.24 -255.72)"/>
        <path id="Path_8345" data-name="Path 8345" class="cls-13" d="M61.414,227.358a6.811,6.811,0,0,0-3.64-1.588,9.641,9.641,0,0,0-.106,4.011,7.791,7.791,0,0,0-4.788,3.9,4.739,4.739,0,0,1,4.063,1.563c.044-.1.09-.2.14-.3a6.18,6.18,0,0,1,2.859-2.636,2.243,2.243,0,0,0,1.279-2.1,13.672,13.672,0,0,1,.194-2.855Z" transform="translate(-52.33 -225.77)"/>
      </g>
    </g>
  </g>
</svg>
