<svg xmlns="http://www.w3.org/2000/svg" width="99.25" height="84.18" viewBox="0 0 99.25 84.18">
  <g id="Group_2777" data-name="Group 2777" transform="translate(0 0)">
    <ellipse id="Ellipse_590" data-name="Ellipse 590" cx="36.026" cy="19.633" rx="36.026" ry="19.633" transform="translate(17.273 37.229) rotate(-31.111)" fill="#034d91" opacity="0.3"/>
    <g id="Group_2776" data-name="Group 2776" transform="translate(0 15.587)">
      <g id="Group_2772" data-name="Group 2772">
        <g id="Group_2771" data-name="Group 2771">
          <path id="Path_12381" data-name="Path 12381" d="M117.09,185.091l-13.36,12.886,3.7,11.824a1.514,1.514,0,0,0,1.444,1.061h6.319c0-3.715-4.19-2.767-4.19-2.767l-1.186-4.664a13.632,13.632,0,0,0,5.052-3.857c.039.191.127.337.3.353.361.033.686-1,.867-1.722a.555.555,0,0,0,.323.477c.549-.061.7-3.256.7-3.256v0A19.429,19.429,0,0,0,117.09,185.091Z" transform="translate(-80.568 -142.926)" fill="#e0dbc1"/>
          <g id="Group_2770" data-name="Group 2770">
            <g id="Group_2767" data-name="Group 2767">
              <path id="Path_12382" data-name="Path 12382" d="M245.269,64.582s1.087-2.882,2.095-2.783.91,2.852.91,2.852Z" transform="translate(-174.49 -61.112)" fill="#3a2c3b"/>
              <g id="Group_2762" data-name="Group 2762" transform="translate(21.992)">
                <g id="Group_2754" data-name="Group 2754" transform="translate(0 3.137)">
                  <path id="Path_12383" data-name="Path 12383" d="M165.8,71.383c-.651-.543-7.978,1.14-7.978,1.14-4.467-4.615-10.367-3.42-13.086-2.925s-10.878,17.553-10.878,17.553L100.85,94.074S93.8,118.55,128.17,119.539a39.357,39.357,0,0,0,6.087-.274l0,0s-.94.517-.36,1.065c.4.376,1.626-.468,2.357-1.035-.271.285-.476.651-.156.95.618.579,3.014-2,3.014-2l0,0c13.138-3.962,16.695-16.133,17.431-25.283.22.254.475.424.683.211.416-.427-.346-3.1-.521-3.685,0-.015,0-.031,0-.045.114.216.489.843.878.551.428-.321-.366-1.872-.9-2.8,0-.033,0-.064,0-.1.3.358.719.7,1.116.488.544-.292-1.538-5.562-1.538-5.562s1.96-.783,3.815-1.571a.491.491,0,0,0,.148.444c.291.223.7-.317.924-.682-.094.21-.159.481.025.646.286.257.914-.951,1.086-1.3-.1.222-.311.775.046.934.45.2,1.251-2.08,1.251-2.08h0a1.007,1.007,0,0,0-.027-.955C165.8,76.376,166.451,71.926,165.8,71.383Z" transform="translate(-100.255 -69.084)" fill="#f7f4e1"/>
                  <g id="Group_2753" data-name="Group 2753" transform="translate(52.246 2.191)">
                    <g id="Group_2751" data-name="Group 2751" transform="translate(9.796)">
                      <g id="Group_2749" data-name="Group 2749">
                        <path id="Path_12384" data-name="Path 12384" d="M285.046,75.877a.886.886,0,0,0-.364.841,2.594,2.594,0,0,0,3.545,1.434c.265-1.165.237-2.2-.056-2.448C287.908,75.486,286.56,75.629,285.046,75.877Z" transform="translate(-284.667 -75.597)" fill="#3a2c3b"/>
                      </g>
                      <g id="Group_2750" data-name="Group 2750" transform="translate(0.656 1.164)">
                        <path id="Path_12385" data-name="Path 12385" d="M288.072,80.9a.04.04,0,0,1-.017,0c-.054-.028-1.333-.681-1.431-1.3a.45.45,0,0,1,.142-.405.466.466,0,0,1,.379-.136c.753.058,1.856,1.551,1.9,1.615a.038.038,0,0,1-.061.045c-.011-.015-1.129-1.529-1.847-1.584a.384.384,0,0,0-.32.114.374.374,0,0,0-.12.34c.092.577,1.377,1.233,1.39,1.24a.038.038,0,0,1-.017.072Z" transform="translate(-286.618 -79.055)" fill="#fffdeb"/>
                      </g>
                    </g>
                    <g id="Group_2752" data-name="Group 2752" transform="translate(0 2.298)">
                      <path id="Path_12386" data-name="Path 12386" d="M255.626,87.192a.076.076,0,0,1,0-.152c.1,0,9.582-.2,10.915-.794.576-.255,1.65-2.808,2.016-3.77a.076.076,0,0,1,.142.054c-.055.144-1.345,3.523-2.1,3.855-1.361.6-10.581.8-10.973.807Z" transform="translate(-255.55 -82.427)" fill="#3a2c3b"/>
                    </g>
                  </g>
                </g>
                <g id="Group_2761" data-name="Group 2761" transform="translate(0)">
                  <path id="Path_12387" data-name="Path 12387" d="M154.48,94.452c1.714-5.534-6.328-8.44-5.735-13.12s5.8-4.812,5.735-7.712-6.727-4.336-6.727-4.336h0c-1.195.1-2.238.3-3.018.444-2.719.494-10.878,17.553-10.878,17.553L100.851,94.2a21.13,21.13,0,0,0,.186,10.674h0c3.969,7.859,13.828,11.125,28.131,10.4s14.238-10.48,14.976-12.458S152.766,99.986,154.48,94.452Z" transform="translate(-100.255 -66.08)" fill="#3a2c3b"/>
                  <g id="Group_2760" data-name="Group 2760" transform="translate(42.837)">
                    <g id="Group_2756" data-name="Group 2756">
                      <g id="Group_2755" data-name="Group 2755" transform="translate(0.185)">
                        <path id="Path_12388" data-name="Path 12388" d="M229.763,69.759a18.749,18.749,0,0,1,1.253-1.94,12.408,12.408,0,0,1,1.253-1.5c.21-.208.427-.412.648-.609l.012-.01a8.375,8.375,0,0,0-.684-2.516c-.616-1.393-1.714-3.54-2.587-3.419-1.287.178-1.692,4.765-1.465,7.1C228.336,68.329,228.7,69.437,229.763,69.759Z" transform="translate(-228.134 -59.761)" fill="#805e6e"/>
                        <path id="Path_12389" data-name="Path 12389" d="M239.324,74s.072-2.016-.17-2.037-.386,1.934-.386,1.934-.288-2.017-.761-1.934S238.4,74,238.4,74s-.473-.905-.8-.782.473,1.152.473,1.152-.529-.123-.552,0,.532.72.532.72Z" transform="translate(-234.359 -67.854)" fill="#3a2c3b"/>
                      </g>
                      <path id="Path_12390" data-name="Path 12390" d="M230.782,67.1c.218-.665-.266-1.572-.775-2.524a10.551,10.551,0,0,1-.757-1.62,4.864,4.864,0,0,1,0-2.934c.018-.046.033-.079.045-.106.035-.05.069-.1.1-.151a.557.557,0,0,0-.1,0c-1.287.178-1.89,4.7-1.663,7.034.149,1.531.674,2.8,1.853,3.059.028,0,.086-.069.1-.077a3.1,3.1,0,0,0,1-1.406.041.041,0,0,0,.014,0,.038.038,0,0,0,.032-.017A1.56,1.56,0,0,0,230.782,67.1Zm-1.6-4.12a10.578,10.578,0,0,0,.762,1.632,4.369,4.369,0,0,1,.8,2.332,10.044,10.044,0,0,0-.8-1.773,11.146,11.146,0,0,1-.994-2.28,4.316,4.316,0,0,1,.047-2.088A4.955,4.955,0,0,0,229.177,62.978Zm.73,2.6c-.146-.238-.292-.477-.431-.72a8.035,8.035,0,0,1-.687-1.484,4.16,4.16,0,0,1-.226-1.677,3.434,3.434,0,0,1,.467-1.385c.017-.029.036-.057.053-.085a4.794,4.794,0,0,0-.212,2.678,11.179,11.179,0,0,0,1,2.3,9.141,9.141,0,0,1,.831,1.879.848.848,0,0,1-.049.119,3.185,3.185,0,0,0-.317-.9C230.208,66.056,230.054,65.82,229.908,65.582Zm.77,1.734a.969.969,0,0,0,.056-.095,1.48,1.48,0,0,1-.1.981,2.293,2.293,0,0,0,.07-.55A2.438,2.438,0,0,0,230.677,67.316Z" transform="translate(-227.584 -59.762)" fill="#3a2c3b"/>
                    </g>
                    <g id="Group_2759" data-name="Group 2759" transform="translate(5.747 6.438)">
                      <path id="Path_12391" data-name="Path 12391" d="M245.471,78.928h-.8a2.8,2.8,0,0,0,2.761,2.572,2.249,2.249,0,0,0,2.273-2.572Z" transform="translate(-244.667 -78.918)" fill="#d8d8d8" opacity="0.3" style="mix-blend-mode: multiply;isolation: isolate"/>
                      <g id="Group_2758" data-name="Group 2758" transform="translate(0.804)">
                        <g id="Group_2757" data-name="Group 2757">
                          <path id="Path_12392" data-name="Path 12392" d="M247.058,78.928a2.117,2.117,0,0,0,4.229,0Z" transform="translate(-247.058 -78.918)" fill="#fff"/>
                          <path id="Path_12393" data-name="Path 12393" d="M252.205,78.9c0,.007,0,.013,0,.02a1,1,0,1,0,1.991,0c0-.007,0-.013,0-.02Z" transform="translate(-250.472 -78.897)" fill="#3a2c3b"/>
                        </g>
                        <path id="Path_12394" data-name="Path 12394" d="M247.363,79.916l3.9-.781a2.01,2.01,0,0,0,.021-.208h-4.229A2.112,2.112,0,0,0,247.363,79.916Z" transform="translate(-247.058 -78.918)" fill="#d8d8d8" style="mix-blend-mode: multiply;isolation: isolate"/>
                      </g>
                    </g>
                  </g>
                </g>
              </g>
              <g id="Group_2766" data-name="Group 2766" transform="translate(0 8.856)">
                <g id="Group_2764" data-name="Group 2764" transform="translate(0 16.193)">
                  <path id="Path_12395" data-name="Path 12395" d="M72.144,134.217S80.355,164.7,49.01,166.229l-8.116,8.7s4.206-.366,4.206,2.834H37.629a2.921,2.921,0,0,1-1.981-.743,2.138,2.138,0,0,1-.606-2.457c.823-2.286,22.43-37.267,22.43-37.267Z" transform="translate(-34.884 -134.217)" fill="#3a2c3b"/>
                  <g id="Group_2763" data-name="Group 2763" transform="translate(34.375 9.131)">
                    <path id="Path_12396" data-name="Path 12396" d="M137.1,174.908a.038.038,0,0,1-.021-.006.038.038,0,0,1-.01-.053,25.133,25.133,0,0,0,3.8-13.452.038.038,0,0,1,.036-.04.039.039,0,0,1,.04.036,25.207,25.207,0,0,1-3.814,13.5A.038.038,0,0,1,137.1,174.908Z" transform="translate(-137.06 -161.357)" fill="#fffdeb"/>
                  </g>
                </g>
                <g id="Group_2765" data-name="Group 2765" transform="translate(7.789)">
                  <path id="Path_12397" data-name="Path 12397" d="M74.176,87.392a10.232,10.232,0,0,0-7.7.305,12.786,12.786,0,0,0-6.536,6.7h0s-5.491,10.818,7.279,19.853c9.136,6.464,6.263.666,3.888-3.157l3.883-4.64s-5.778-2.1-5.888-5.663l.009.009c0-.058-.009-.115-.009-.174a3.635,3.635,0,0,1,3.626-3.635,3.68,3.68,0,0,1,3.621,3.24,3.588,3.588,0,0,1-.195,1.622h0a7.1,7.1,0,0,0,2.689-3.007A8.35,8.35,0,0,0,74.176,87.392Z" transform="translate(-58.523 -86.549)" fill="#3a2c3b"/>
                  <path id="Path_12398" data-name="Path 12398" d="M78.831,91.633s.966.857,1.025.17-2.532-2.641-2.585-2.7v0a8.26,8.26,0,0,0-3.4-2.325,11.091,11.091,0,0,0-8.036.12,12.111,12.111,0,0,0-1.5.815c.071-.344.025-.633-.259-.746-.623-.247-1.614,1.341-2.172,2.357.169-.463.2-.964-.418-1.024-.744-.072-1.358,1.827-1.71,3.242.057-.591-.027-1.095-.538-.918-.888.306-.965,4.33-.961,5.9-.682,3.747-.478,10.939,8.459,17.262-13.061-11.423-1.892-27.972,7.095-23.27,6.444,3.372,1.842,10.872,1.842,10.872h0a7.924,7.924,0,0,0,2.973-3.022c.085-.174.161-.351.233-.528a.435.435,0,0,0,.313-.143c.63-.56.473-1.867.266-2.768,0-.018,0-.035,0-.052.174.393.43.685.759.281C80.872,94.343,78.831,91.633,78.831,91.633Z" transform="translate(-58.036 -86.084)" fill="#f7f4e1"/>
                </g>
              </g>
            </g>
            <g id="Group_2769" data-name="Group 2769" transform="translate(58.061 38.925)">
              <path id="Path_12399" data-name="Path 12399" d="M228.381,193.182l-4.963,19.651s3.554-.335,3.554,2.146h-8.249Z" transform="translate(-214.936 -187.22)" fill="#e0dbc1"/>
              <g id="Group_2768" data-name="Group 2768">
                <path id="Path_12400" data-name="Path 12400" d="M212.658,208.967,223.3,185.091l-12.88,9.346-1.332,6.483h0s-1.843,2.34-1.533,2.846c.254.415.847-.432,1.053-.751-.3.492-1.452,2.41-1.053,2.747.143.12.345.056.556-.089l-.555,2.7a2.618,2.618,0,0,0,2.564,3.145h6.736C216.851,208.612,212.658,208.967,212.658,208.967Z" transform="translate(-207.467 -181.851)" fill="#f7f4e1"/>
                <path id="Path_12401" data-name="Path 12401" d="M236.359,175.461a22.6,22.6,0,0,1-11.67,12.26" transform="translate(-218.895 -175.461)" fill="none" stroke="#3a2c3b" stroke-linecap="round" stroke-linejoin="round" stroke-width="0.5"/>
              </g>
            </g>
          </g>
        </g>
      </g>
    </g>
  </g>
</svg>
