<svg xmlns="http://www.w3.org/2000/svg" width="40" height="32.018" viewBox="0 0 40 32.018">
  <defs>
    <style>
      .cls-1 {
        fill: #034d91;
      }
    </style>
  </defs>
  <path id="scale-unbalanced-flip-solid" class="cls-1" d="M34.738,16.084a3.007,3.007,0,0,0-5.374,0c-5.406,10.809-5.322,10.352-5.322,11.36-.056,2.76,3.587,5.007,8.012,5.007s7.955-2.246,7.955-4.951C40.008,26.467,40.19,26.987,34.738,16.084Zm-7.2,10.358,4.516-8.956,4.505,8.956Zm4.513-14.02a2,2,0,0,0,.634-3.9L25.045,6.01a4.939,4.939,0,0,0,.055-.541,4.957,4.957,0,0,0-9.243-2.54L8.766.565A2,2,0,1,0,7.387,4.31l7.9,2.636A5,5,0,0,0,18.032,10V28.443H9.021A2.944,2.944,0,0,0,6.073,31.39a.944.944,0,0,0,.945,1.06H20.981a.941.941,0,0,0,.945-.945V10a4.986,4.986,0,0,0,.888-.508l8.493,2.831A3.557,3.557,0,0,0,32.053,12.423Zm-16.022,7.01c0-.978.069-.454-5.327-11.36a3.005,3.005,0,0,0-5.372,0C-.075,18.882.009,18.425.009,19.432c0,2.761,3.583,4.951,7.955,4.951S16.031,22.193,16.031,19.432ZM8.019,9.418l4.509,8.956H3.508Z" transform="translate(-0.009 -0.433)"/>
</svg>
